<svg version="1.1" xmlns="http://www.w3.org/2000/svg" xmlns:xlink="http://www.w3.org/1999/xlink" width="802" height="391" viewBox="0 0 802 391"><defs/><g transform="matrix(1,0,0,1,0,0)"><g><g><g><path fill="none" stroke="#d3d3d3" paint-order="fill stroke markers" d=" M 0 0 L 1200 0" stroke-miterlimit="10" stroke-opacity="0.8" stroke-dasharray="5"/></g><g><path fill="none" stroke="#d3d3d3" paint-order="fill stroke markers" d=" M 0 0 L 0 800" stroke-miterlimit="10" stroke-opacity="0.8" stroke-dasharray="5"/></g></g><g id="_9E840903-F508-44EA-8CAB-04B34587FEE2" bpmn2nodeid="_9E840903-F508-44EA-8CAB-04B34587FEE2" transform="matrix(1,0,0,1,442,23.5)"><g><path fill="none" stroke="none"/></g><g transform="matrix(1,0,0,1,0,0)"><path fill="#ffffff" stroke="none" id="_9E840903-F508-44EA-8CAB-04B34587FEE2?shapeType=BACKGROUND" paint-order="stroke fill markers" d=" M 2 0 L 151 0 L 151 0 A 2 2 0 0 1 153 2 L 153 99 L 153 99 A 2 2 0 0 1 151 101 L 2 101 L 2 101 A 2 2 0 0 1 0 99 L 0 2 L 0 2.0000000000000004 A 2 2 0 0 1 1.9999999999999996 0 Z"/></g><g transform="matrix(1,0,0,1,0,0)"><path fill="none" stroke="#000000" id="_9E840903-F508-44EA-8CAB-04B34587FEE2?shapeType=BORDER&amp;renderType=STROKE" paint-order="fill stroke markers" d=" M 2 0 L 151 0 L 151 0 A 2 2 0 0 1 153 2 L 153 99 L 153 99 A 2 2 0 0 1 151 101 L 2 101 L 2 101 A 2 2 0 0 1 0 99 L 0 2 L 0 2.0000000000000004 A 2 2 0 0 1 1.9999999999999996 0 Z" stroke-miterlimit="10" stroke-width="1.5" stroke-dasharray=""/></g><g><g transform="matrix(0.06,0,0,0.06,9.4,9.4)"><g transform="matrix(1,0,0,1,0,0)"><path fill="#393f44" stroke="none" id="_9E840903-F508-44EA-8CAB-04B34587FEE2undefined" paint-order="stroke fill markers" d=" M 0 0 M 197.3 130.2 C 194.4 127.29999999999998 189.60000000000002 127.29999999999998 186.70000000000002 130.2 L 130.20000000000002 186.7 C 127.30000000000001 189.6 127.30000000000001 194.39999999999998 130.20000000000002 197.29999999999998 L 186.70000000000002 253.79999999999998 C 188.10000000000002 255.29999999999998 190.10000000000002 255.99999999999997 192.00000000000003 255.99999999999997 C 193.90000000000003 255.99999999999997 195.90000000000003 255.29999999999998 197.30000000000004 253.69999999999996 C 200.20000000000005 250.79999999999995 200.20000000000005 245.99999999999997 197.30000000000004 243.09999999999997 L 146.2 192 L 197.29999999999998 140.8 C 200.2 137.9 200.2 133.1 197.3 130.2 Z"/></g><g transform="matrix(1,0,0,1,0,0)"><path fill="#393f44" stroke="none" id="_9E840903-F508-44EA-8CAB-04B34587FEE2undefined" paint-order="stroke fill markers" d=" M 0 0 M 261.3 130.2 C 258.40000000000003 127.29999999999998 253.60000000000002 127.29999999999998 250.70000000000002 130.2 C 247.8 133.1 247.8 137.89999999999998 250.70000000000002 140.79999999999998 L 301.8 191.89999999999998 L 250.7 243 C 247.79999999999998 245.9 247.79999999999998 250.7 250.7 253.6 C 252.1 255.29999999999998 254.1 256 256 256 C 257.9 256 259.9 255.3 261.3 253.8 L 317.8 197.3 C 320.7 194.4 320.7 189.60000000000002 317.8 186.70000000000002 L 261.3 130.2 Z"/></g><g transform="matrix(1,0,0,1,0,0)"><path fill="#393f44" stroke="none" id="_9E840903-F508-44EA-8CAB-04B34587FEE2undefined" paint-order="stroke fill markers" d=" M 0 0 M 400 32 C 400 32 152.8 32 128 32 C 62 32 64 96 64 96 L 64 288 L 1 288 C 1 288 -4 416 78 416 L 320 416 C 368 416 384 368 384 336 C 384 314.2 384 224.4 384 160 L 448 160 L 448 96 C 448 96 449 32 400 32 Z M 0 0 M 78 383.9 C 68.5 383.9 61.6 381.09999999999997 55.5 374.9 C 43.4 362.4 37.5 339.59999999999997 34.9 320 L 256.9 320 C 257.09999999999997 322.7 257.29999999999995 325.4 257.59999999999997 328.2 C 259.99999999999994 351.59999999999997 264.7 370.09999999999997 271.9 383.9 L 78 383.9 L 78 383.9 Z M 0 0 M 352 336 C 352 345.9 349.6 360.3 342.9 371 C 337.2 380.1 330.4 384 320 384 C 285 384 288 288 288 288 L 96 288 L 96 96 L 96 95.9 L 96 95.10000000000001 C 96 90.60000000000001 97.6 78.30000000000001 104.7 71.20000000000002 C 106.5 69.40000000000002 111.9 64.00000000000001 128 64.00000000000001 L 356.5 64.00000000000001 C 354.4 72.80000000000001 352.8 81.80000000000001 352.2 89.9 C 352.2 90.5 352.09999999999997 91.10000000000001 352.09999999999997 91.7 C 352.09999999999997 92 352.09999999999997 92.3 352.09999999999997 92.60000000000001 C 352 94.8 352 96 352 96 L 352 160 L 352 336 Z"/></g></g></g><g transform="matrix(1,0,0,1,35.55078125,28)"><text fill="#000000" stroke="none" font-family="Open Sans" font-size="12pt" font-style="normal" font-weight="normal" text-decoration="normal" x="40.94921875" y="12" text-anchor="middle" dominant-baseline="alphabetic">Respuesta </text><text fill="#000000" stroke="none" font-family="Open Sans" font-size="12pt" font-style="normal" font-weight="normal" text-decoration="normal" x="40.94921875" y="27" text-anchor="middle" dominant-baseline="alphabetic">    Señal      </text><text fill="#000000" stroke="none" font-family="Open Sans" font-size="12pt" font-style="normal" font-weight="normal" text-decoration="normal" x="40.94921875" y="42" text-anchor="middle" dominant-baseline="alphabetic">InvocaCDD</text></g></g><g transform="matrix(1,0,0,1,442,23.5)"/><g id="_50B0968E-258A-4B74-BAB4-57DC06CFAFEE" bpmn2nodeid="_50B0968E-258A-4B74-BAB4-57DC06CFAFEE" transform="matrix(1,0,0,1,675,46)"><g><path fill="none" stroke="none"/></g><g transform="matrix(0.125,0,0,0.125,0,0)"><g transform="matrix(1,0,0,1,0,0)"><path fill="#fce7e7" stroke="none" id="_50B0968E-258A-4B74-BAB4-57DC06CFAFEE?shapeType=BACKGROUND" paint-order="stroke fill markers" d=" M 0 0 M 444 224 C 444 263.9 434.2 300.8 414.4 334.5 C 394.7 368.2 368 394.9 334.4 414.5 C 300.79999999999995 434.1 263.9 444 224 444 C 184.10000000000002 444 147.2 434.2 113.5 414.4 C 79.8 394.7 53.1 368 33.5 334.4 C 13.899999999999999 300.79999999999995 4 263.9 4 224 C 4 184.10000000000002 13.8 147.2 33.6 113.5 C 53.400000000000006 79.80000000000001 80.1 53.1 113.6 33.5 C 147.1 13.899999999999999 184.1 4 224 4 C 263.9 4 300.8 13.8 334.5 33.6 C 368.2 53.400000000000006 394.9 80.1 414.5 113.6 C 434.1 147.1 444 184.1 444 224 Z"/></g><g><g transform="matrix(1,0,0,1,0,0)"><g transform="matrix(1,0,0,1,0,0)"><path fill="#a30000" stroke="none" id="_50B0968E-258A-4B74-BAB4-57DC06CFAFEE?shapeType=BORDER&amp;renderType=FILL" paint-order="stroke fill markers" d=" M 0 0 M 224 0 C 100.3 0 0 100.3 0 224 C 0 347.7 100.3 448 224 448 C 347.7 448 448 347.7 448 224 C 448 100.30000000000001 347.7 0 224 0 Z M 0 0 M 224 400 C 126.8 400 48 321.2 48 224 C 48 126.80000000000001 126.8 48 224 48 C 321.2 48 400 126.8 400 224 C 400 321.2 321.2 400 224 400 Z"/></g></g></g></g><g transform="matrix(1,0,0,1,28,61)"/></g><g transform="matrix(1,0,0,1,675,46)"/><g id="_579F77DB-4786-4F5F-96B1-A5A8FF72F13A" bpmn2nodeid="_579F77DB-4786-4F5F-96B1-A5A8FF72F13A" transform="matrix(1,0,0,1,437,239.5)"><g><path fill="none" stroke="none"/></g><g transform="matrix(1,0,0,1,0,0)"><path fill="#ffffff" stroke="none" id="_579F77DB-4786-4F5F-96B1-A5A8FF72F13A?shapeType=BACKGROUND" paint-order="stroke fill markers" d=" M 2 0 L 151 0 L 151 0 A 2 2 0 0 1 153 2 L 153 99 L 153 99 A 2 2 0 0 1 151 101 L 2 101 L 2 101 A 2 2 0 0 1 0 99 L 0 2 L 0 2.0000000000000004 A 2 2 0 0 1 1.9999999999999996 0 Z"/></g><g transform="matrix(1,0,0,1,0,0)"><path fill="none" stroke="#000000" id="_579F77DB-4786-4F5F-96B1-A5A8FF72F13A?shapeType=BORDER&amp;renderType=STROKE" paint-order="fill stroke markers" d=" M 2 0 L 151 0 L 151 0 A 2 2 0 0 1 153 2 L 153 99 L 153 99 A 2 2 0 0 1 151 101 L 2 101 L 2 101 A 2 2 0 0 1 0 99 L 0 2 L 0 2.0000000000000004 A 2 2 0 0 1 1.9999999999999996 0 Z" stroke-miterlimit="10" stroke-width="1.5" stroke-dasharray=""/></g><g><g transform="matrix(0.06,0,0,0.06,9.4,9.4)"><g transform="matrix(1,0,0,1,0,0)"><path fill="#393f44" stroke="none" id="_579F77DB-4786-4F5F-96B1-A5A8FF72F13Aundefined" paint-order="stroke fill markers" d=" M 0 0 M 197.3 130.2 C 194.4 127.29999999999998 189.60000000000002 127.29999999999998 186.70000000000002 130.2 L 130.20000000000002 186.7 C 127.30000000000001 189.6 127.30000000000001 194.39999999999998 130.20000000000002 197.29999999999998 L 186.70000000000002 253.79999999999998 C 188.10000000000002 255.29999999999998 190.10000000000002 255.99999999999997 192.00000000000003 255.99999999999997 C 193.90000000000003 255.99999999999997 195.90000000000003 255.29999999999998 197.30000000000004 253.69999999999996 C 200.20000000000005 250.79999999999995 200.20000000000005 245.99999999999997 197.30000000000004 243.09999999999997 L 146.2 192 L 197.29999999999998 140.8 C 200.2 137.9 200.2 133.1 197.3 130.2 Z"/></g><g transform="matrix(1,0,0,1,0,0)"><path fill="#393f44" stroke="none" id="_579F77DB-4786-4F5F-96B1-A5A8FF72F13Aundefined" paint-order="stroke fill markers" d=" M 0 0 M 261.3 130.2 C 258.40000000000003 127.29999999999998 253.60000000000002 127.29999999999998 250.70000000000002 130.2 C 247.8 133.1 247.8 137.89999999999998 250.70000000000002 140.79999999999998 L 301.8 191.89999999999998 L 250.7 243 C 247.79999999999998 245.9 247.79999999999998 250.7 250.7 253.6 C 252.1 255.29999999999998 254.1 256 256 256 C 257.9 256 259.9 255.3 261.3 253.8 L 317.8 197.3 C 320.7 194.4 320.7 189.60000000000002 317.8 186.70000000000002 L 261.3 130.2 Z"/></g><g transform="matrix(1,0,0,1,0,0)"><path fill="#393f44" stroke="none" id="_579F77DB-4786-4F5F-96B1-A5A8FF72F13Aundefined" paint-order="stroke fill markers" d=" M 0 0 M 400 32 C 400 32 152.8 32 128 32 C 62 32 64 96 64 96 L 64 288 L 1 288 C 1 288 -4 416 78 416 L 320 416 C 368 416 384 368 384 336 C 384 314.2 384 224.4 384 160 L 448 160 L 448 96 C 448 96 449 32 400 32 Z M 0 0 M 78 383.9 C 68.5 383.9 61.6 381.09999999999997 55.5 374.9 C 43.4 362.4 37.5 339.59999999999997 34.9 320 L 256.9 320 C 257.09999999999997 322.7 257.29999999999995 325.4 257.59999999999997 328.2 C 259.99999999999994 351.59999999999997 264.7 370.09999999999997 271.9 383.9 L 78 383.9 L 78 383.9 Z M 0 0 M 352 336 C 352 345.9 349.6 360.3 342.9 371 C 337.2 380.1 330.4 384 320 384 C 285 384 288 288 288 288 L 96 288 L 96 96 L 96 95.9 L 96 95.10000000000001 C 96 90.60000000000001 97.6 78.30000000000001 104.7 71.20000000000002 C 106.5 69.40000000000002 111.9 64.00000000000001 128 64.00000000000001 L 356.5 64.00000000000001 C 354.4 72.80000000000001 352.8 81.80000000000001 352.2 89.9 C 352.2 90.5 352.09999999999997 91.10000000000001 352.09999999999997 91.7 C 352.09999999999997 92 352.09999999999997 92.3 352.09999999999997 92.60000000000001 C 352 94.8 352 96 352 96 L 352 160 L 352 336 Z"/></g></g></g><g transform="matrix(1,0,0,1,35.55078125,20.5)"><text fill="#000000" stroke="none" font-family="Open Sans" font-size="12pt" font-style="normal" font-weight="normal" text-decoration="normal" x="40.94921875" y="12" text-anchor="middle" dominant-baseline="alphabetic">Respuesta </text><text fill="#000000" stroke="none" font-family="Open Sans" font-size="12pt" font-style="normal" font-weight="normal" text-decoration="normal" x="40.94921875" y="27" text-anchor="middle" dominant-baseline="alphabetic">    Señal      </text><text fill="#000000" stroke="none" font-family="Open Sans" font-size="12pt" font-style="normal" font-weight="normal" text-decoration="normal" x="40.94921875" y="42" text-anchor="middle" dominant-baseline="alphabetic">  Mensaje   </text><text fill="#000000" stroke="none" font-family="Open Sans" font-size="12pt" font-style="normal" font-weight="normal" text-decoration="normal" x="40.94921875" y="57" text-anchor="middle" dominant-baseline="alphabetic">InvocaCDD</text></g></g><g transform="matrix(1,0,0,1,437,239.5)"/><g id="_75E19DF9-799C-4149-8EEB-CB1B989CAC26" bpmn2nodeid="_75E19DF9-799C-4149-8EEB-CB1B989CAC26" transform="matrix(1,0,0,1,282,265)"><g><path fill="none" stroke="none"/></g><g transform="matrix(0.125,0,0,0.125,0,0)"><g transform="matrix(1,0,0,1,0,0)"><path fill="#e8fae6" stroke="none" id="_75E19DF9-799C-4149-8EEB-CB1B989CAC26?shapeType=BACKGROUND" paint-order="stroke fill markers" d=" M 0 0 M 444 224 C 444 263.9 434.2 300.8 414.4 334.5 C 394.7 368.2 368 394.9 334.4 414.5 C 300.79999999999995 434.1 263.9 444 224 444 C 184.10000000000002 444 147.2 434.2 113.5 414.4 C 79.8 394.7 53.1 368 33.5 334.4 C 13.899999999999999 300.79999999999995 4 263.9 4 224 C 4 184.10000000000002 13.8 147.2 33.6 113.5 C 53.400000000000006 79.80000000000001 80.1 53.1 113.6 33.5 C 147.1 13.899999999999999 184.1 4 224 4 C 263.9 4 300.8 13.8 334.5 33.6 C 368.2 53.400000000000006 394.9 80.1 414.5 113.6 C 434.1 147.1 444 184.1 444 224 Z"/></g><g><g transform="matrix(1,0,0,1,0,0)"><g transform="matrix(1,0,0,1,0,0)"><path fill="#4aa241" stroke="none" id="_75E19DF9-799C-4149-8EEB-CB1B989CAC26?shapeType=BORDER&amp;renderType=FILL" paint-order="stroke fill markers" d=" M 0 0 M 224 0 C 100.3 0 0 100.3 0 224 C 0 347.7 100.3 448 224 448 C 347.7 448 448 347.7 448 224 C 448 100.30000000000001 347.7 0 224 0 Z M 0 0 M 224 432 C 109.1 432 16 338.9 16 224 C 16 109.10000000000002 109.1 16 224 16 C 338.9 16 432 109.1 432 224 C 432 338.9 338.9 432 224 432 Z"/></g></g></g><g><g transform="matrix(1,0,0,1,0,0)"><g transform="matrix(1,0,0,1,0,0)"><path fill="#4aa241" stroke="none" id="_75E19DF9-799C-4149-8EEB-CB1B989CAC26undefined" paint-order="stroke fill markers" d=" M 0 0 M 320.2 288.7 L 320.2 192.7 C 317.59999999999997 195.7 314.7 198.5 311.59999999999997 200.89999999999998 C 289.2 218.09999999999997 271.49999999999994 232.09999999999997 258.4 243.09999999999997 C 254.2 246.69999999999996 250.7 249.49999999999997 247.99999999999997 251.49999999999997 C 245.29999999999995 253.49999999999997 241.79999999999998 255.49999999999997 237.19999999999996 257.59999999999997 C 232.59999999999997 259.7 228.39999999999995 260.7 224.39999999999995 260.7 L 224.19999999999996 260.7 C 220.19999999999996 260.7 215.99999999999997 259.7 211.39999999999995 257.59999999999997 C 206.79999999999995 255.49999999999997 203.19999999999996 253.49999999999997 200.59999999999994 251.49999999999997 C 197.89999999999995 249.49999999999997 194.49999999999994 246.69999999999996 190.19999999999993 243.09999999999997 C 177.09999999999994 232.09999999999997 159.29999999999993 217.99999999999997 136.99999999999994 200.89999999999998 C 133.89999999999995 198.39999999999998 131.09999999999994 195.7 128.39999999999995 192.7 L 128.39999999999995 288.7 C 128.39999999999995 289.8 128.79999999999995 290.7 129.59999999999994 291.5 C 130.39999999999992 292.3 131.39999999999995 292.7 132.39999999999995 292.7 L 316.4 292.7 C 317.5 292.7 318.4 292.3 319.2 291.5 C 319.9 290.7 320.2 289.8 320.2 288.7 Z M 0 0 M 320.2 152.7 C 320.2 151.6 319.8 150.7 319 149.89999999999998 C 318.2 149.09999999999997 317.3 148.7 316.2 148.7 L 316.2 148.7 L 132.2 148.7 C 131.1 148.7 130.2 149.1 129.39999999999998 149.89999999999998 C 128.59999999999997 150.7 128.2 151.59999999999997 128.2 152.7 C 128.2 166.7 134.29999999999998 178.5 146.6 188.2 C 162.7 200.89999999999998 179.39999999999998 214.1 196.7 227.79999999999998 C 197.2 228.2 198.6 229.49999999999997 201.1 231.49999999999997 C 203.6 233.59999999999997 205.5 235.09999999999997 206.9 236.19999999999996 C 208.3 237.29999999999995 210.1 238.59999999999997 212.5 240.09999999999997 C 214.9 241.59999999999997 216.9 242.79999999999995 218.8 243.49999999999997 C 220.70000000000002 244.29999999999998 222.5 244.59999999999997 224.20000000000002 244.59999999999997 L 224.4 244.59999999999997 C 226 244.59999999999997 227.8 244.19999999999996 229.8 243.49999999999997 C 231.8 242.79999999999998 233.8 241.59999999999997 236.10000000000002 240.09999999999997 C 238.40000000000003 238.59999999999997 240.3 237.19999999999996 241.70000000000002 236.19999999999996 C 243.10000000000002 235.09999999999997 245.10000000000002 233.59999999999997 247.50000000000003 231.49999999999997 C 249.90000000000003 229.39999999999998 251.40000000000003 228.29999999999998 251.90000000000003 227.79999999999998 C 269.3 213.99999999999997 285.90000000000003 200.89999999999998 302.00000000000006 188.2 C 306.50000000000006 184.6 310.70000000000005 179.79999999999998 314.6000000000001 173.7 C 318.50000000000006 167.7 320.4000000000001 162.2 320.4000000000001 157.29999999999998 L 320.4000000000001 154.2 L 320.4000000000001 152.7 Z M 0 0 M 336.2 152.7 L 336.2 288.7 C 336.2 294.2 334.3 298.9 330.3 302.8 C 326.40000000000003 306.7 321.7 308.7 316.2 308.7 L 132.2 308.7 C 126.69999999999999 308.7 121.99999999999999 306.7 118.1 302.8 C 114.19999999999999 298.90000000000003 112.19999999999999 294.2 112.19999999999999 288.7 L 112.19999999999999 152.7 C 112.19999999999999 147.2 114.19999999999999 142.5 118.1 138.6 C 122 134.7 126.69999999999999 132.7 132.2 132.7 L 316.2 132.7 C 321.7 132.7 326.4 134.6 330.3 138.6 C 334.2 142.6 336.2 147.2 336.2 152.7 Z"/></g></g></g></g><g transform="matrix(1,0,0,1,-45.96875,61)"><text fill="#000000" stroke="none" font-family="Open Sans" font-size="12pt" font-style="normal" font-weight="normal" text-decoration="normal" x="73.96875" y="12" text-anchor="middle" dominant-baseline="alphabetic">mensajeCDD (crear </text><text fill="#000000" stroke="none" font-family="Open Sans" font-size="12pt" font-style="normal" font-weight="normal" text-decoration="normal" x="73.96875" y="27" text-anchor="middle" dominant-baseline="alphabetic">         causaDD)          </text></g></g><g transform="matrix(1,0,0,1,282,265)"/><g id="_F83FCC8E-C831-4C73-AF79-967BB479B8D6" bpmn2nodeid="_F83FCC8E-C831-4C73-AF79-967BB479B8D6" transform="matrix(1,0,0,1,696,260)"><g><path fill="none" stroke="none"/></g><g transform="matrix(0.125,0,0,0.125,0,0)"><g transform="matrix(1,0,0,1,0,0)"><path fill="#fce7e7" stroke="none" id="_F83FCC8E-C831-4C73-AF79-967BB479B8D6?shapeType=BACKGROUND" paint-order="stroke fill markers" d=" M 0 0 M 444 224 C 444 263.9 434.2 300.8 414.4 334.5 C 394.7 368.2 368 394.9 334.4 414.5 C 300.79999999999995 434.1 263.9 444 224 444 C 184.10000000000002 444 147.2 434.2 113.5 414.4 C 79.8 394.7 53.1 368 33.5 334.4 C 13.899999999999999 300.79999999999995 4 263.9 4 224 C 4 184.10000000000002 13.8 147.2 33.6 113.5 C 53.400000000000006 79.80000000000001 80.1 53.1 113.6 33.5 C 147.1 13.899999999999999 184.1 4 224 4 C 263.9 4 300.8 13.8 334.5 33.6 C 368.2 53.400000000000006 394.9 80.1 414.5 113.6 C 434.1 147.1 444 184.1 444 224 Z"/></g><g><g transform="matrix(1,0,0,1,0,0)"><g transform="matrix(1,0,0,1,0,0)"><path fill="#a30000" stroke="none" id="_F83FCC8E-C831-4C73-AF79-967BB479B8D6?shapeType=BORDER&amp;renderType=FILL" paint-order="stroke fill markers" d=" M 0 0 M 224 0 C 100.3 0 0 100.3 0 224 C 0 347.7 100.3 448 224 448 C 347.7 448 448 347.7 448 224 C 448 100.30000000000001 347.7 0 224 0 Z M 0 0 M 224 400 C 126.8 400 48 321.2 48 224 C 48 126.80000000000001 126.8 48 224 48 C 321.2 48 400 126.8 400 224 C 400 321.2 321.2 400 224 400 Z"/></g></g></g></g><g transform="matrix(1,0,0,1,28,61)"/></g><g transform="matrix(1,0,0,1,696,260)"/><g id="_674AF362-1A9C-4644-A98B-A6F5DAA41C62" bpmn2nodeid="_674AF362-1A9C-4644-A98B-A6F5DAA41C62" transform="matrix(1,0,0,1,306,46)"><g><path fill="none" stroke="none"/></g><g transform="matrix(0.125,0,0,0.125,0,0)"><g transform="matrix(1,0,0,1,0,0)"><path fill="#e8fae6" stroke="none" id="_674AF362-1A9C-4644-A98B-A6F5DAA41C62?shapeType=BACKGROUND" paint-order="stroke fill markers" d=" M 0 0 M 444 224 C 444 263.9 434.2 300.8 414.4 334.5 C 394.7 368.2 368 394.9 334.4 414.5 C 300.79999999999995 434.1 263.9 444 224 444 C 184.10000000000002 444 147.2 434.2 113.5 414.4 C 79.8 394.7 53.1 368 33.5 334.4 C 13.899999999999999 300.79999999999995 4 263.9 4 224 C 4 184.10000000000002 13.8 147.2 33.6 113.5 C 53.400000000000006 79.80000000000001 80.1 53.1 113.6 33.5 C 147.1 13.899999999999999 184.1 4 224 4 C 263.9 4 300.8 13.8 334.5 33.6 C 368.2 53.400000000000006 394.9 80.1 414.5 113.6 C 434.1 147.1 444 184.1 444 224 Z"/></g><g><g transform="matrix(1,0,0,1,0,0)"><g transform="matrix(1,0,0,1,0,0)"><path fill="#4aa241" stroke="none" id="_674AF362-1A9C-4644-A98B-A6F5DAA41C62?shapeType=BORDER&amp;renderType=FILL" paint-order="stroke fill markers" d=" M 0 0 M 224 0 C 100.3 0 0 100.3 0 224 C 0 347.7 100.3 448 224 448 C 347.7 448 448 347.7 448 224 C 448 100.30000000000001 347.7 0 224 0 Z M 0 0 M 224 432 C 109.1 432 16 338.9 16 224 C 16 109.10000000000002 109.1 16 224 16 C 338.9 16 432 109.1 432 224 C 432 338.9 338.9 432 224 432 Z"/></g></g></g><g><g transform="matrix(1,0,0,1,0,0)"><g transform="matrix(1,0,0,1,0,0)"><path fill="#4aa241" stroke="none" id="_674AF362-1A9C-4644-A98B-A6F5DAA41C62undefined" paint-order="stroke fill markers" d=" M 0 0 M 224.6 124.8 L 320.5 300.7 L 128.8 300.7 L 224.6 124.8 M 224.6 108.7 C 221.7 108.7 219 109.5 216.5 110.9 C 214 112.30000000000001 212.1 114.5 210.6 117 L 114.69999999999999 293 C 111.79999999999998 298.2 111.89999999999999 303.5 114.89999999999999 308.8 C 116.3 311.2 118.19999999999999 313.2 120.69999999999999 314.6 C 123.1 316 125.79999999999998 316.70000000000005 128.7 316.70000000000005 L 320.5 316.70000000000005 C 323.4 316.70000000000005 325.9 316.00000000000006 328.4 314.6 C 330.9 313.20000000000005 332.79999999999995 311.3 334.2 308.8 C 337.3 303.6 337.3 298.3 334.4 293 L 238.49999999999997 117 C 237.09999999999997 114.4 235.19999999999996 112.4 232.69999999999996 110.9 C 230.2 109.4 227.5 108.7 224.6 108.7 L 224.6 108.7 Z"/></g></g></g></g><g transform="matrix(1,0,0,1,-73.84765625,61)"><text fill="#000000" stroke="none" font-family="Open Sans" font-size="12pt" font-style="normal" font-weight="normal" text-decoration="normal" x="101.84765625" y="12" text-anchor="middle" dominant-baseline="alphabetic">invocaCDD (crear causaDD)</text></g></g><g transform="matrix(1,0,0,1,306,46)"/><g id="_00EA467A-09A4-4C31-B299-817F07063FE7" bpmn2nodeid="_00EA467A-09A4-4C31-B299-817F07063FE7"><g><path fill="none" stroke="#000000" paint-order="fill stroke markers" d=" M 362 74 L 427 74" stroke-miterlimit="10" stroke-dasharray=""/></g><g transform="matrix(1,0,0,1,362,74)"/><g transform="matrix(6.123233995736766e-17,1,-1,6.123233995736766e-17,442,69)"><path fill="#000000" stroke="#000000" paint-order="fill stroke markers" d=" M 10 15 L 0 15 L 5 0 Z" stroke-miterlimit="10" stroke-dasharray=""/></g><g transform="matrix(1,0,0,1,362,64)"/></g><g id="_2C5394AF-3061-4EE4-A8EB-C9CF7489183B" bpmn2nodeid="_2C5394AF-3061-4EE4-A8EB-C9CF7489183B"><g><path fill="none" stroke="#000000" paint-order="fill stroke markers" d=" M 595 74 L 660 74" stroke-miterlimit="10" stroke-dasharray=""/></g><g transform="matrix(1,0,0,1,595,74)"/><g transform="matrix(6.123233995736766e-17,1,-1,6.123233995736766e-17,675,69)"><path fill="#000000" stroke="#000000" paint-order="fill stroke markers" d=" M 10 15 L 0 15 L 5 0 Z" stroke-miterlimit="10" stroke-dasharray=""/></g><g transform="matrix(1,0,0,1,595,64)"/></g><g id="_88A09C2D-56A4-4C35-A5C6-CD7E34A47264" bpmn2nodeid="_88A09C2D-56A4-4C35-A5C6-CD7E34A47264"><g><path fill="none" stroke="#000000" paint-order="fill stroke markers" d=" M 338 293 L 422.0068823128193 290.4543368996115" stroke-miterlimit="10" stroke-dasharray=""/></g><g transform="matrix(1,0,0,1,338,293)"/><g transform="matrix(0.030289126640768126,0.9995411791453814,-0.9995411791453814,0.030289126640768126,436.8485543667962,285.0022941042731)"><path fill="#000000" stroke="#000000" paint-order="fill stroke markers" d=" M 10 15 L 0 15 L 5 0 Z" stroke-miterlimit="10" stroke-dasharray=""/></g><g transform="matrix(1,0,0,1,338.3028912664077,281.5045882085462)"/></g><g id="_4275E9D5-E706-4BFA-BF36-5EAF5D2C7B58" bpmn2nodeid="_4275E9D5-E706-4BFA-BF36-5EAF5D2C7B58"><g><path fill="none" stroke="#000000" paint-order="fill stroke markers" d=" M 590 290 L 681.0026692766471 288.2829685042142" stroke-miterlimit="10" stroke-dasharray=""/></g><g transform="matrix(1,0,0,1,590,290)"/><g transform="matrix(0.018864566947612058,0.9998220482235222,-0.9998220482235222,0.018864566947612058,695.905677165262,283.0008897588824)"><path fill="#000000" stroke="#000000" paint-order="fill stroke markers" d=" M 10 15 L 0 15 L 5 0 Z" stroke-miterlimit="10" stroke-dasharray=""/></g><g transform="matrix(1,0,0,1,590.1886456694762,279.00177951776476)"/></g></g></g></svg>