<svg version="1.1" xmlns="http://www.w3.org/2000/svg" xmlns:xlink="http://www.w3.org/1999/xlink" width="2335" height="693" viewBox="0 0 2335 693"><defs/><g transform="matrix(1,0,0,1,0,0)"><g><g><g><path fill="none" stroke="#d3d3d3" paint-order="fill stroke markers" d=" M 0 0 L 1200 0" stroke-miterlimit="10" stroke-opacity="0.8" stroke-dasharray="5"/></g><g><path fill="none" stroke="#d3d3d3" paint-order="fill stroke markers" d=" M 0 0 L 0 800" stroke-miterlimit="10" stroke-opacity="0.8" stroke-dasharray="5"/></g></g><g id="_2851DCC4-6203-4772-85FF-1547BF6CACB7" bpmn2nodeid="_2851DCC4-6203-4772-85FF-1547BF6CACB7" transform="matrix(1,0,0,1,69,184)"><g><path fill="none" stroke="none"/></g><g transform="matrix(1,0,0,1,0,0)"><path fill="#f2f2f2" stroke="none" id="_2851DCC4-6203-4772-85FF-1547BF6CACB7?shapeType=BACKGROUND" paint-order="stroke fill markers" d=" M 0 0 L 2215.5 0 L 2215.5 458.83331298828125 L 0 458.83331298828125 L 0 0 Z Z"/></g><g transform="matrix(1,0,0,1,0,0)"><path fill="none" stroke="#000000" id="_2851DCC4-6203-4772-85FF-1547BF6CACB7?shapeType=BORDER&amp;renderType=STROKE" paint-order="fill stroke markers" d=" M 0 0 L 2215.5 0 L 2215.5 458.83331298828125 L 0 458.83331298828125 L 0 0 Z Z" stroke-miterlimit="10" stroke-width="0.5" stroke-dasharray=""/></g><g transform="matrix(-1.8369701987210297e-16,-1,1,-1.8369701987210297e-16,0,312.7604064941406)"><text fill="#000000" stroke="none" font-family="Open Sans" font-size="12pt" font-style="normal" font-weight="normal" text-decoration="normal" x="83.34375" y="12" text-anchor="middle" dominant-baseline="alphabetic">Fiscal / Equipo Jurídico</text></g><g id="_ECF0A584-2DAC-426D-AAAA-933081BD7F2C" bpmn2nodeid="_ECF0A584-2DAC-426D-AAAA-933081BD7F2C" transform="matrix(1,0,0,1,41,145)"><g><path fill="none" stroke="none"/></g><g transform="matrix(0.125,0,0,0.125,0,0)"><g transform="matrix(1,0,0,1,0,0)"><path fill="#e8fae6" stroke="none" id="_ECF0A584-2DAC-426D-AAAA-933081BD7F2C?shapeType=BACKGROUND" paint-order="stroke fill markers" d=" M 0 0 M 444 224 C 444 263.9 434.2 300.8 414.4 334.5 C 394.7 368.2 368 394.9 334.4 414.5 C 300.79999999999995 434.1 263.9 444 224 444 C 184.10000000000002 444 147.2 434.2 113.5 414.4 C 79.8 394.7 53.1 368 33.5 334.4 C 13.899999999999999 300.79999999999995 4 263.9 4 224 C 4 184.10000000000002 13.8 147.2 33.6 113.5 C 53.400000000000006 79.80000000000001 80.1 53.1 113.6 33.5 C 147.1 13.899999999999999 184.1 4 224 4 C 263.9 4 300.8 13.8 334.5 33.6 C 368.2 53.400000000000006 394.9 80.1 414.5 113.6 C 434.1 147.1 444 184.1 444 224 Z"/></g><g><g transform="matrix(1,0,0,1,0,0)"><g transform="matrix(1,0,0,1,0,0)"><path fill="#4aa241" stroke="none" id="_ECF0A584-2DAC-426D-AAAA-933081BD7F2C?shapeType=BORDER&amp;renderType=FILL" paint-order="stroke fill markers" d=" M 0 0 M 224 0 C 100.3 0 0 100.3 0 224 C 0 347.7 100.3 448 224 448 C 347.7 448 448 347.7 448 224 C 448 100.30000000000001 347.7 0 224 0 Z M 0 0 M 224 432 C 109.1 432 16 338.9 16 224 C 16 109.10000000000002 109.1 16 224 16 C 338.9 16 432 109.1 432 224 C 432 338.9 338.9 432 224 432 Z"/></g></g></g></g><g transform="matrix(1,0,0,1,28,61)"/></g><g id="_3070F578-F8AD-46E6-9299-D1C859362257" bpmn2nodeid="_3070F578-F8AD-46E6-9299-D1C859362257" transform="matrix(1,0,0,1,921,145)"><g><path fill="none" stroke="none"/></g><g transform="matrix(0.125,0,0,0.125,0,0)"><g transform="matrix(1,0,0,1,0,0)"><path fill="#fbefcf" stroke="none" id="_3070F578-F8AD-46E6-9299-D1C859362257?shapeType=BACKGROUND" paint-order="stroke fill markers" d=" M 0 0 M 444 224 C 444 263.9 434.2 300.8 414.4 334.5 C 394.7 368.2 368 394.9 334.4 414.5 C 300.79999999999995 434.1 263.9 444 224 444 C 184.10000000000002 444 147.2 434.2 113.5 414.4 C 79.8 394.7 53.1 368 33.5 334.4 C 13.899999999999999 300.79999999999995 4 263.9 4 224 C 4 184.10000000000002 13.8 147.2 33.6 113.5 C 53.400000000000006 79.80000000000001 80.1 53.1 113.6 33.5 C 147.1 13.899999999999999 184.1 4 224 4 C 263.9 4 300.8 13.8 334.5 33.6 C 368.2 53.400000000000006 394.9 80.1 414.5 113.6 C 434.1 147.1 444 184.1 444 224 Z"/></g><g><g transform="matrix(1,0,0,1,0,0)"><g transform="matrix(1,0,0,1,0,0)"><path fill="#e5a000" stroke="none" id="_3070F578-F8AD-46E6-9299-D1C859362257?shapeType=BORDER&amp;renderType=FILL" paint-order="stroke fill markers" d=" M 0 0 M 224 408 C 122.5 408 40 325.5 40 224 C 40 122.5 122.5 40 224 40 C 325.5 40 408 122.5 408 224 C 408 325.5 325.5 408 224 408 Z M 0 0 M 224 56 C 131.4 56 56 131.4 56 224 C 56 316.6 131.4 392 224 392 C 316.6 392 392 316.6 392 224 C 392 131.39999999999998 316.6 56 224 56 Z M 0 0 M 224 16 C 252.1 16 279.3 21.5 305 32.3 C 329.8 42.8 352 57.8 371.1 76.9 C 390.20000000000005 96.00000000000001 405.20000000000005 118.30000000000001 415.70000000000005 143 C 426.50000000000006 168.6 432.00000000000006 195.9 432.00000000000006 224 C 432.00000000000006 252.1 426.50000000000006 279.3 415.70000000000005 305 C 405.20000000000005 329.8 390.20000000000005 352 371.1 371.1 C 352 390.20000000000005 329.70000000000005 405.20000000000005 305 415.70000000000005 C 279.4 426.50000000000006 252.1 432.00000000000006 224 432.00000000000006 C 195.9 432.00000000000006 168.7 426.50000000000006 143 415.70000000000005 C 118.2 405.20000000000005 96 390.20000000000005 76.9 371.1 C 57.80000000000001 352 42.8 329.7 32.3 305 C 21.5 279.3 16 252.1 16 224 C 16 195.9 21.5 168.7 32.3 143 C 42.8 118.2 57.8 96 76.9 76.9 C 96.00000000000001 57.80000000000001 118.30000000000001 42.800000000000004 143 32.300000000000004 C 168.7 21.5 195.9 16 224 16 M 224 0 C 100.3 0 0 100.3 0 224 C 0 347.7 100.3 448 224 448 C 347.7 448 448 347.7 448 224 C 448 100.30000000000001 347.7 0 224 0 L 224 0 Z"/></g></g></g><g><g transform="matrix(1,0,0,1,0,0)"><g transform="matrix(1,0,0,1,0,0)"><path fill="#e5a000" stroke="none" id="_3070F578-F8AD-46E6-9299-D1C859362257_signal-catching" paint-order="stroke fill markers" d=" M 0 0 M 224.6 124.8 L 320.5 300.7 L 128.8 300.7 L 224.6 124.8 M 224.6 108.7 C 221.7 108.7 219 109.5 216.5 110.9 C 214 112.30000000000001 212.1 114.5 210.6 117 L 114.69999999999999 293 C 111.79999999999998 298.2 111.89999999999999 303.5 114.89999999999999 308.8 C 116.3 311.2 118.19999999999999 313.2 120.69999999999999 314.6 C 123.1 316 125.79999999999998 316.70000000000005 128.7 316.70000000000005 L 320.5 316.70000000000005 C 323.4 316.70000000000005 325.9 316.00000000000006 328.4 314.6 C 330.9 313.20000000000005 332.79999999999995 311.3 334.2 308.8 C 337.3 303.6 337.3 298.3 334.4 293 L 238.49999999999997 117 C 237.09999999999997 114.4 235.19999999999996 112.4 232.69999999999996 110.9 C 230.2 109.4 227.5 108.7 224.6 108.7 L 224.6 108.7 Z"/></g></g></g></g><g transform="matrix(1,0,0,1,-42.69921875,61)"><text fill="#000000" stroke="none" font-family="Open Sans" font-size="12pt" font-style="normal" font-weight="normal" text-decoration="normal" x="70.69921875" y="12" text-anchor="middle" dominant-baseline="alphabetic">Recibe Consulta FR</text></g></g><g id="_74ADE711-2845-4CF5-A46E-7EEAA441C0E4" bpmn2nodeid="_74ADE711-2845-4CF5-A46E-7EEAA441C0E4" transform="matrix(1,0,0,1,1822,145)"><g><path fill="none" stroke="none"/></g><g transform="matrix(0.125,0,0,0.125,0,0)"><g transform="matrix(1,0,0,1,0,0)"><path fill="#fef4ea" stroke="none" id="_74ADE711-2845-4CF5-A46E-7EEAA441C0E4?shapeType=BACKGROUND" paint-order="stroke fill markers" d=" M 0 0 M 224.4 4.3 C 216.4 4.3 208.4 7.3 202.3 13.399999999999999 L 13.5 202.2 C 1.3000000000000007 214.39999999999998 1.3000000000000007 234.2 13.5 246.39999999999998 L 202.2 435.09999999999997 C 208.29999999999998 441.2 216.39999999999998 444.2 224.29999999999998 444.2 C 232.2 444.2 240.29999999999998 441.2 246.39999999999998 435.09999999999997 L 435.09999999999997 246.39999999999998 C 447.29999999999995 234.2 447.29999999999995 214.39999999999998 435.09999999999997 202.2 L 246.5 13.4 C 240.4 7.3 232.4 4.3 224.4 4.3 L 224.4 4.3 Z"/></g><g><g transform="matrix(1,0,0,1,0,0)"><g transform="matrix(1,0,0,1,0,0)"><path fill="#ec7a08" stroke="none" id="_74ADE711-2845-4CF5-A46E-7EEAA441C0E4?shapeType=BORDER&amp;renderType=FILL" paint-order="stroke fill markers" d=" M 0 0 M 20.8 212.7 L 213.3 20.2 C 219.60000000000002 13.899999999999999 229.70000000000002 13.899999999999999 235.9 20.2 L 428.4 212.7 C 434.7 219 434.7 229.1 428.4 235.29999999999998 L 235.9 427.8 C 229.6 434.1 219.5 434.1 213.3 427.8 L 20.8 235.3 C 14.5 229.1 14.5 218.9 20.8 212.7 L 20.8 212.7 Z M 0 0 M 0 224 C 0 232.1 3.1 240.3 9.3 246.5 L 201.5 438.7 C 213.9 451.09999999999997 234.1 451.09999999999997 246.5 438.7 L 438.7 246.5 C 444.9 240.3 448 232.1 448 224 C 448 215.9 444.9 207.7 438.7 201.5 L 246.5 9.3 C 234.1 -3.0999999999999996 213.9 -3.0999999999999996 201.5 9.3 L 9.3 201.5 C 3.1 207.7 0 215.9 0 224 L 0 224 Z"/></g></g></g><g><g transform="matrix(1,0,0,1,0,0)"><g transform="matrix(1,0,0,1,0,0)"><path fill="#ec7a08" stroke="none" id="_74ADE711-2845-4CF5-A46E-7EEAA441C0E4_exclusive" paint-order="stroke fill markers" d=" M 0 0 M 298.2 269.2 C 298.2 272.59999999999997 297.09999999999997 275.3 294.7 277.7 L 277.7 294.7 C 275.3 297.09999999999997 272.59999999999997 298.2 269.2 298.2 C 265.8 298.2 263.09999999999997 297.09999999999997 260.7 294.7 L 224 258 L 187.2 294.8 C 184.79999999999998 297.2 182.1 298.3 178.7 298.3 C 175.29999999999998 298.3 172.6 297.2 170.2 294.8 L 153.2 277.8 C 150.79999999999998 275.40000000000003 149.7 272.7 149.7 269.3 C 149.7 265.90000000000003 150.79999999999998 263.2 153.2 260.8 L 190 224 L 153.2 187.2 C 150.79999999999998 184.79999999999998 149.7 182 149.7 178.7 C 149.7 175.29999999999998 150.79999999999998 172.5 153.2 170.2 L 170.2 153.2 C 172.6 150.79999999999998 175.29999999999998 149.7 178.7 149.7 C 182.1 149.7 184.79999999999998 150.79999999999998 187.2 153.2 L 224 190 L 260.8 153.2 C 263.2 150.79999999999998 265.90000000000003 149.7 269.3 149.7 C 272.7 149.7 275.40000000000003 150.79999999999998 277.8 153.2 L 294.8 170.2 C 297.2 172.5 298.3 175.29999999999998 298.3 178.7 C 298.3 182 297.2 184.79999999999998 294.8 187.2 L 258 224 L 294.8 260.8 C 297.1 263.1 298.2 265.9 298.2 269.2 Z"/></g></g></g></g><g transform="matrix(1,0,0,1,-64.30859375,61)"><text fill="#000000" stroke="none" font-family="Open Sans" font-size="12pt" font-style="normal" font-weight="normal" text-decoration="normal" x="92.30859375" y="12" text-anchor="middle" dominant-baseline="alphabetic">Causa/Relacion Cerrada?</text></g></g><g id="_D3C67787-EB08-4415-9BBB-72493066662D" bpmn2nodeid="_D3C67787-EB08-4415-9BBB-72493066662D" transform="matrix(1,0,0,1,1099,0)"><g><path fill="none" stroke="none"/></g><g transform="matrix(0.125,0,0,0.125,0,0)"><g transform="matrix(1,0,0,1,0,0)"><path fill="#fef4ea" stroke="none" id="_D3C67787-EB08-4415-9BBB-72493066662D?shapeType=BACKGROUND" paint-order="stroke fill markers" d=" M 0 0 M 224.4 4.3 C 216.4 4.3 208.4 7.3 202.3 13.399999999999999 L 13.5 202.2 C 1.3000000000000007 214.39999999999998 1.3000000000000007 234.2 13.5 246.39999999999998 L 202.2 435.09999999999997 C 208.29999999999998 441.2 216.39999999999998 444.2 224.29999999999998 444.2 C 232.2 444.2 240.29999999999998 441.2 246.39999999999998 435.09999999999997 L 435.09999999999997 246.39999999999998 C 447.29999999999995 234.2 447.29999999999995 214.39999999999998 435.09999999999997 202.2 L 246.5 13.4 C 240.4 7.3 232.4 4.3 224.4 4.3 L 224.4 4.3 Z"/></g><g><g transform="matrix(1,0,0,1,0,0)"><g transform="matrix(1,0,0,1,0,0)"><path fill="#ec7a08" stroke="none" id="_D3C67787-EB08-4415-9BBB-72493066662D?shapeType=BORDER&amp;renderType=FILL" paint-order="stroke fill markers" d=" M 0 0 M 20.8 212.7 L 213.3 20.2 C 219.60000000000002 13.899999999999999 229.70000000000002 13.899999999999999 235.9 20.2 L 428.4 212.7 C 434.7 219 434.7 229.1 428.4 235.29999999999998 L 235.9 427.8 C 229.6 434.1 219.5 434.1 213.3 427.8 L 20.8 235.3 C 14.5 229.1 14.5 218.9 20.8 212.7 L 20.8 212.7 Z M 0 0 M 0 224 C 0 232.1 3.1 240.3 9.3 246.5 L 201.5 438.7 C 213.9 451.09999999999997 234.1 451.09999999999997 246.5 438.7 L 438.7 246.5 C 444.9 240.3 448 232.1 448 224 C 448 215.9 444.9 207.7 438.7 201.5 L 246.5 9.3 C 234.1 -3.0999999999999996 213.9 -3.0999999999999996 201.5 9.3 L 9.3 201.5 C 3.1 207.7 0 215.9 0 224 L 0 224 Z"/></g></g></g><g><g transform="matrix(1,0,0,1,0,0)"><g transform="matrix(1,0,0,1,0,0)"><path fill="#ec7a08" stroke="none" id="_D3C67787-EB08-4415-9BBB-72493066662D_exclusive" paint-order="stroke fill markers" d=" M 0 0 M 298.2 269.2 C 298.2 272.59999999999997 297.09999999999997 275.3 294.7 277.7 L 277.7 294.7 C 275.3 297.09999999999997 272.59999999999997 298.2 269.2 298.2 C 265.8 298.2 263.09999999999997 297.09999999999997 260.7 294.7 L 224 258 L 187.2 294.8 C 184.79999999999998 297.2 182.1 298.3 178.7 298.3 C 175.29999999999998 298.3 172.6 297.2 170.2 294.8 L 153.2 277.8 C 150.79999999999998 275.40000000000003 149.7 272.7 149.7 269.3 C 149.7 265.90000000000003 150.79999999999998 263.2 153.2 260.8 L 190 224 L 153.2 187.2 C 150.79999999999998 184.79999999999998 149.7 182 149.7 178.7 C 149.7 175.29999999999998 150.79999999999998 172.5 153.2 170.2 L 170.2 153.2 C 172.6 150.79999999999998 175.29999999999998 149.7 178.7 149.7 C 182.1 149.7 184.79999999999998 150.79999999999998 187.2 153.2 L 224 190 L 260.8 153.2 C 263.2 150.79999999999998 265.90000000000003 149.7 269.3 149.7 C 272.7 149.7 275.40000000000003 150.79999999999998 277.8 153.2 L 294.8 170.2 C 297.2 172.5 298.3 175.29999999999998 298.3 178.7 C 298.3 182 297.2 184.79999999999998 294.8 187.2 L 258 224 L 294.8 260.8 C 297.1 263.1 298.2 265.9 298.2 269.2 Z"/></g></g></g></g><g transform="matrix(1,0,0,1,-8.44921875,61)"><text fill="#000000" stroke="none" font-family="Open Sans" font-size="12pt" font-style="normal" font-weight="normal" text-decoration="normal" x="36.44921875" y="12" text-anchor="middle" dominant-baseline="alphabetic">Es Causa?</text></g></g><g id="_D50ABCE9-33D4-490F-9085-BE37B7C6907C" bpmn2nodeid="_D50ABCE9-33D4-490F-9085-BE37B7C6907C" transform="matrix(1,0,0,1,384,145)"><g><path fill="none" stroke="none"/></g><g transform="matrix(0.125,0,0,0.125,0,0)"><g transform="matrix(1,0,0,1,0,0)"><path fill="#fef4ea" stroke="none" id="_D50ABCE9-33D4-490F-9085-BE37B7C6907C?shapeType=BACKGROUND" paint-order="stroke fill markers" d=" M 0 0 M 224.4 4.3 C 216.4 4.3 208.4 7.3 202.3 13.399999999999999 L 13.5 202.2 C 1.3000000000000007 214.39999999999998 1.3000000000000007 234.2 13.5 246.39999999999998 L 202.2 435.09999999999997 C 208.29999999999998 441.2 216.39999999999998 444.2 224.29999999999998 444.2 C 232.2 444.2 240.29999999999998 441.2 246.39999999999998 435.09999999999997 L 435.09999999999997 246.39999999999998 C 447.29999999999995 234.2 447.29999999999995 214.39999999999998 435.09999999999997 202.2 L 246.5 13.4 C 240.4 7.3 232.4 4.3 224.4 4.3 L 224.4 4.3 Z"/></g><g><g transform="matrix(1,0,0,1,0,0)"><g transform="matrix(1,0,0,1,0,0)"><path fill="#ec7a08" stroke="none" id="_D50ABCE9-33D4-490F-9085-BE37B7C6907C?shapeType=BORDER&amp;renderType=FILL" paint-order="stroke fill markers" d=" M 0 0 M 20.8 212.7 L 213.3 20.2 C 219.60000000000002 13.899999999999999 229.70000000000002 13.899999999999999 235.9 20.2 L 428.4 212.7 C 434.7 219 434.7 229.1 428.4 235.29999999999998 L 235.9 427.8 C 229.6 434.1 219.5 434.1 213.3 427.8 L 20.8 235.3 C 14.5 229.1 14.5 218.9 20.8 212.7 L 20.8 212.7 Z M 0 0 M 0 224 C 0 232.1 3.1 240.3 9.3 246.5 L 201.5 438.7 C 213.9 451.09999999999997 234.1 451.09999999999997 246.5 438.7 L 438.7 246.5 C 444.9 240.3 448 232.1 448 224 C 448 215.9 444.9 207.7 438.7 201.5 L 246.5 9.3 C 234.1 -3.0999999999999996 213.9 -3.0999999999999996 201.5 9.3 L 9.3 201.5 C 3.1 207.7 0 215.9 0 224 L 0 224 Z"/></g></g></g><g><g transform="matrix(1,0,0,1,0,0)"><g transform="matrix(1,0,0,1,0,0)"><path fill="#ec7a08" stroke="none" id="_D50ABCE9-33D4-490F-9085-BE37B7C6907C_exclusive" paint-order="stroke fill markers" d=" M 0 0 M 298.2 269.2 C 298.2 272.59999999999997 297.09999999999997 275.3 294.7 277.7 L 277.7 294.7 C 275.3 297.09999999999997 272.59999999999997 298.2 269.2 298.2 C 265.8 298.2 263.09999999999997 297.09999999999997 260.7 294.7 L 224 258 L 187.2 294.8 C 184.79999999999998 297.2 182.1 298.3 178.7 298.3 C 175.29999999999998 298.3 172.6 297.2 170.2 294.8 L 153.2 277.8 C 150.79999999999998 275.40000000000003 149.7 272.7 149.7 269.3 C 149.7 265.90000000000003 150.79999999999998 263.2 153.2 260.8 L 190 224 L 153.2 187.2 C 150.79999999999998 184.79999999999998 149.7 182 149.7 178.7 C 149.7 175.29999999999998 150.79999999999998 172.5 153.2 170.2 L 170.2 153.2 C 172.6 150.79999999999998 175.29999999999998 149.7 178.7 149.7 C 182.1 149.7 184.79999999999998 150.79999999999998 187.2 153.2 L 224 190 L 260.8 153.2 C 263.2 150.79999999999998 265.90000000000003 149.7 269.3 149.7 C 272.7 149.7 275.40000000000003 150.79999999999998 277.8 153.2 L 294.8 170.2 C 297.2 172.5 298.3 175.29999999999998 298.3 178.7 C 298.3 182 297.2 184.79999999999998 294.8 187.2 L 258 224 L 294.8 260.8 C 297.1 263.1 298.2 265.9 298.2 269.2 Z"/></g></g></g></g><g transform="matrix(1,0,0,1,-53.58984375,61)"><text fill="#000000" stroke="none" font-family="Open Sans" font-size="12pt" font-style="normal" font-weight="normal" text-decoration="normal" x="81.58984375" y="12" text-anchor="middle" dominant-baseline="alphabetic">Requiere consulta FR?</text></g></g><g id="_5034F10B-C7F3-4187-9CB3-50BFF49642F0" bpmn2nodeid="_5034F10B-C7F3-4187-9CB3-50BFF49642F0" transform="matrix(1,0,0,1,1354,122)"><g><path fill="none" stroke="none"/></g><g transform="matrix(1,0,0,1,0,0)"><path fill="#ffffff" stroke="none" id="_5034F10B-C7F3-4187-9CB3-50BFF49642F0?shapeType=BACKGROUND" paint-order="stroke fill markers" d=" M 2 0 L 152 0 L 152 0 A 2 2 0 0 1 154 2 L 154 100 L 154 100 A 2 2 0 0 1 152 102 L 2 102 L 2 102 A 2 2 0 0 1 0 100 L 0 2 L 0 2.0000000000000004 A 2 2 0 0 1 1.9999999999999996 0 Z"/></g><g transform="matrix(1,0,0,1,0,0)"><path fill="none" stroke="rgb(0,0,0)" id="_5034F10B-C7F3-4187-9CB3-50BFF49642F0?shapeType=BORDER&amp;renderType=STROKE" paint-order="fill stroke markers" d=" M 2 0 L 152 0 L 152 0 A 2 2 0 0 1 154 2 L 154 100 L 154 100 A 2 2 0 0 1 152 102 L 2 102 L 2 102 A 2 2 0 0 1 0 100 L 0 2 L 0 2.0000000000000004 A 2 2 0 0 1 1.9999999999999996 0 Z" stroke-miterlimit="10" stroke-width="1.5" stroke-dasharray=""/></g><g><g transform="matrix(0.06,0,0,0.06,9.4,9.4)"><g transform="matrix(1,0,0,1,0,0)"><path fill="#393f44" stroke="none" id="_5034F10B-C7F3-4187-9CB3-50BFF49642F0_task__OAvW__qg4j" paint-order="stroke fill markers" d=" M 0 0 M 16 445.2101 C 16 440.86867 18.784312 431.12906000000004 22.001325 424.21728 C 35.767643 394.6402 77.282944 359.28049 129 333.08362 C 144.51625 325.22398 157.34689 319.96394 167.80739 317.17416 C 171.93153 316.07426 175.72913 314.41389999999996 176.5251 313.36265 C 178.89361 310.23449999999997 180.91404 302.90781 181.72673 294.5 L 182.5 286.5 L 178.50715 283.45457 C 166.30327 274.14645 154.2837 251.67767 148.03953 226.5 C 145.61086 216.70715 145.05603000000002 215.46246 142.98364 215.1579 C 141.70332000000002 214.96974 138.08302 212.24302 134.93852 209.09852 C 123.23314 197.39314000000002 116.89146000000001 177.37556 121.43982000000001 166.48978 C 123.00204000000001 162.75088 128.15457 159.00970999999998 131.75 159.00374 C 134.44781 158.99974 134.47062 158.60296 132.91375 138.78796 C 130.92658 113.4962 134.27903 92.26542699999999 143.13217 74.075676 C 152.23162 55.379835 167.56889 42.88208 189.04934 36.659507000000005 C 210.20334 30.531504000000005 237.79666 30.531504000000005 258.95065999999997 36.659507000000005 C 300.04166 48.562968000000005 318.95842 83.80634 314.95504999999997 141 C 314.31982999999997 150.075 313.62402 157.78816 313.4088 158.14035 C 313.19359 158.49254000000002 314.57532 159.07295000000002 316.47931 159.43014000000002 C 328.92867 161.76565000000002 330.98619 177.01772000000003 321.49638 196.62092 C 316.90319 206.10912000000002 309.35724 214.50797 304.81732 215.18517000000003 C 303.02259 215.45289000000002 302.2931 217.14618000000002 299.94277999999997 226.50000000000003 C 296.65948 239.56693 294.47402 245.30522000000002 287.94764 257.99534000000006 C 282.49071999999995 268.60596000000004 273.03466 281.10922000000005 268.10756999999995 284.2288300000001 L 264.87062 286.27832000000006 L 265.51815999999997 292.88916000000006 C 266.34490999999997 301.32961000000006 268.63948999999997 309.8706000000001 270.87735999999995 312.83742000000007 C 272.06735 314.4150200000001 275.00244999999995 315.78963000000005 280.0630699999999 317.13941000000005 C 291.06929999999994 320.0750300000001 303.61700999999994 325.27420000000006 320.99999999999994 334.10171 C 369.81470999999993 358.89104000000003 410.84810999999996 393.75797 425.03216 422.5 C 429.06985999999995 430.68183 432 440.23198 432 445.2101 L 432 448 L 224 448 L 16 448 L 16 445.2101 Z"/></g></g></g><g transform="matrix(1,0,0,1,4.039999999999992,13.680000000000007)"><g transform="matrix(0.04,0,0,0.04,63.36,69.12)"><g transform="matrix(1,0,0,1,0,0)"><path fill="none" stroke="none"/></g><g transform="matrix(1,0,0,1,0,0)"><path fill="none" stroke="none"/></g></g></g><g transform="matrix(1,0,0,1,42.33984375,36)"><text fill="#000000" stroke="none" font-family="Open Sans" font-size="12pt" font-style="normal" font-weight="normal" text-decoration="normal" x="34.66015625" y="12" text-anchor="middle" dominant-baseline="alphabetic">Preparar </text><text fill="#000000" stroke="none" font-family="Open Sans" font-size="12pt" font-style="normal" font-weight="normal" text-decoration="normal" x="34.66015625" y="27" text-anchor="middle" dominant-baseline="alphabetic">   Cierre   </text></g></g><g id="_00B35FD1-5382-4217-8014-8E77FE998419" bpmn2nodeid="_00B35FD1-5382-4217-8014-8E77FE998419" transform="matrix(1,0,0,1,2103,145)"><g><path fill="none" stroke="none"/></g><g transform="matrix(0.125,0,0,0.125,0,0)"><g transform="matrix(1,0,0,1,0,0)"><path fill="#fce7e7" stroke="none" id="_00B35FD1-5382-4217-8014-8E77FE998419?shapeType=BACKGROUND" paint-order="stroke fill markers" d=" M 0 0 M 444 224 C 444 263.9 434.2 300.8 414.4 334.5 C 394.7 368.2 368 394.9 334.4 414.5 C 300.79999999999995 434.1 263.9 444 224 444 C 184.10000000000002 444 147.2 434.2 113.5 414.4 C 79.8 394.7 53.1 368 33.5 334.4 C 13.899999999999999 300.79999999999995 4 263.9 4 224 C 4 184.10000000000002 13.8 147.2 33.6 113.5 C 53.400000000000006 79.80000000000001 80.1 53.1 113.6 33.5 C 147.1 13.899999999999999 184.1 4 224 4 C 263.9 4 300.8 13.8 334.5 33.6 C 368.2 53.400000000000006 394.9 80.1 414.5 113.6 C 434.1 147.1 444 184.1 444 224 Z"/></g><g><g transform="matrix(1,0,0,1,0,0)"><g transform="matrix(1,0,0,1,0,0)"><path fill="#a30000" stroke="none" id="_00B35FD1-5382-4217-8014-8E77FE998419?shapeType=BORDER&amp;renderType=FILL" paint-order="stroke fill markers" d=" M 0 0 M 224 0 C 100.3 0 0 100.3 0 224 C 0 347.7 100.3 448 224 448 C 347.7 448 448 347.7 448 224 C 448 100.30000000000001 347.7 0 224 0 Z M 0 0 M 224 400 C 126.8 400 48 321.2 48 224 C 48 126.80000000000001 126.8 48 224 48 C 321.2 48 400 126.8 400 224 C 400 321.2 321.2 400 224 400 Z"/></g></g></g></g><g transform="matrix(1,0,0,1,-17.5,61)"><text fill="#000000" stroke="none" font-family="Open Sans" font-size="12pt" font-style="normal" font-weight="normal" text-decoration="normal" x="45.5" y="12" text-anchor="middle" dominant-baseline="alphabetic">flujo normal</text></g></g><g id="_92D52DEC-45AC-4AF9-B3CF-30EEE7EE06E1" bpmn2nodeid="_92D52DEC-45AC-4AF9-B3CF-30EEE7EE06E1" transform="matrix(1,0,0,1,766,221.42855834960938)"><g><path fill="none" stroke="none"/></g><g transform="matrix(2.542857666015625,0,0,0.9285715738932292,0,0)"><g transform="matrix(1,0,0,1,0,0)"><path fill="none" stroke="#000000" id="_92D52DEC-45AC-4AF9-B3CF-30EEE7EE06E1?shapeType=BORDER&amp;renderType=STROKE" paint-order="fill stroke markers" d=" M 0 0 M 7.4 58.6 L 2.6 58.6 L 2.6 1.4 L 7.4 1.4" stroke-miterlimit="10" stroke-dasharray=""/></g><g><g transform="matrix(1,0,0,1,0,0)"><g transform="matrix(1,0,0,1,0,0)"><path fill="none" stroke="none"/></g></g></g></g><g transform="matrix(1,0,0,1,35.38116455078125,12.857147216796875)"><text fill="#000000" stroke="none" font-family="Open Sans" font-size="12pt" font-style="normal" font-weight="normal" text-decoration="normal" x="91.76171875" y="12" text-anchor="middle" dominant-baseline="alphabetic">Falta implementar estas </text><text fill="#000000" stroke="none" font-family="Open Sans" font-size="12pt" font-style="normal" font-weight="normal" text-decoration="normal" x="91.76171875" y="27" text-anchor="middle" dominant-baseline="alphabetic">               señales                </text></g></g><g id="_DF5BEC8A-59A4-499D-B110-1265A731E789" bpmn2nodeid="_DF5BEC8A-59A4-499D-B110-1265A731E789" transform="matrix(1,0,0,1,526,122)"><g><path fill="none" stroke="none"/></g><g transform="matrix(1,0,0,1,0,0)"><path fill="#ffffff" stroke="none" id="_DF5BEC8A-59A4-499D-B110-1265A731E789?shapeType=BACKGROUND" paint-order="stroke fill markers" d=" M 2 0 L 152 0 L 152 0 A 2 2 0 0 1 154 2 L 154 100 L 154 100 A 2 2 0 0 1 152 102 L 2 102 L 2 102 A 2 2 0 0 1 0 100 L 0 2 L 0 2.0000000000000004 A 2 2 0 0 1 1.9999999999999996 0 Z"/></g><g transform="matrix(1,0,0,1,0,0)"><path fill="none" stroke="rgb(0,0,0)" id="_DF5BEC8A-59A4-499D-B110-1265A731E789?shapeType=BORDER&amp;renderType=STROKE" paint-order="fill stroke markers" d=" M 2 0 L 152 0 L 152 0 A 2 2 0 0 1 154 2 L 154 100 L 154 100 A 2 2 0 0 1 152 102 L 2 102 L 2 102 A 2 2 0 0 1 0 100 L 0 2 L 0 2.0000000000000004 A 2 2 0 0 1 1.9999999999999996 0 Z" stroke-miterlimit="10" stroke-width="1.5" stroke-dasharray=""/></g><g><g transform="matrix(0.06,0,0,0.06,9.4,9.4)"><g transform="matrix(1,0,0,1,0,0)"><path fill="#393f44" stroke="none" id="_DF5BEC8A-59A4-499D-B110-1265A731E789_task__OAvW__qg4j" paint-order="stroke fill markers" d=" M 0 0 M 16 445.2101 C 16 440.86867 18.784312 431.12906000000004 22.001325 424.21728 C 35.767643 394.6402 77.282944 359.28049 129 333.08362 C 144.51625 325.22398 157.34689 319.96394 167.80739 317.17416 C 171.93153 316.07426 175.72913 314.41389999999996 176.5251 313.36265 C 178.89361 310.23449999999997 180.91404 302.90781 181.72673 294.5 L 182.5 286.5 L 178.50715 283.45457 C 166.30327 274.14645 154.2837 251.67767 148.03953 226.5 C 145.61086 216.70715 145.05603000000002 215.46246 142.98364 215.1579 C 141.70332000000002 214.96974 138.08302 212.24302 134.93852 209.09852 C 123.23314 197.39314000000002 116.89146000000001 177.37556 121.43982000000001 166.48978 C 123.00204000000001 162.75088 128.15457 159.00970999999998 131.75 159.00374 C 134.44781 158.99974 134.47062 158.60296 132.91375 138.78796 C 130.92658 113.4962 134.27903 92.26542699999999 143.13217 74.075676 C 152.23162 55.379835 167.56889 42.88208 189.04934 36.659507000000005 C 210.20334 30.531504000000005 237.79666 30.531504000000005 258.95065999999997 36.659507000000005 C 300.04166 48.562968000000005 318.95842 83.80634 314.95504999999997 141 C 314.31982999999997 150.075 313.62402 157.78816 313.4088 158.14035 C 313.19359 158.49254000000002 314.57532 159.07295000000002 316.47931 159.43014000000002 C 328.92867 161.76565000000002 330.98619 177.01772000000003 321.49638 196.62092 C 316.90319 206.10912000000002 309.35724 214.50797 304.81732 215.18517000000003 C 303.02259 215.45289000000002 302.2931 217.14618000000002 299.94277999999997 226.50000000000003 C 296.65948 239.56693 294.47402 245.30522000000002 287.94764 257.99534000000006 C 282.49071999999995 268.60596000000004 273.03466 281.10922000000005 268.10756999999995 284.2288300000001 L 264.87062 286.27832000000006 L 265.51815999999997 292.88916000000006 C 266.34490999999997 301.32961000000006 268.63948999999997 309.8706000000001 270.87735999999995 312.83742000000007 C 272.06735 314.4150200000001 275.00244999999995 315.78963000000005 280.0630699999999 317.13941000000005 C 291.06929999999994 320.0750300000001 303.61700999999994 325.27420000000006 320.99999999999994 334.10171 C 369.81470999999993 358.89104000000003 410.84810999999996 393.75797 425.03216 422.5 C 429.06985999999995 430.68183 432 440.23198 432 445.2101 L 432 448 L 224 448 L 16 448 L 16 445.2101 Z"/></g></g></g><g transform="matrix(1,0,0,1,4.039999999999992,13.680000000000007)"><g transform="matrix(0.04,0,0,0.04,63.36,69.12)"><g transform="matrix(1,0,0,1,0,0)"><path fill="none" stroke="none"/></g><g transform="matrix(1,0,0,1,0,0)"><path fill="none" stroke="none"/></g></g></g><g transform="matrix(1,0,0,1,35,43.5)"><text fill="#000000" stroke="none" font-family="Open Sans" font-size="12pt" font-style="normal" font-weight="normal" text-decoration="normal" x="53.7578125" y="12" text-anchor="middle" dominant-baseline="alphabetic">Consultar a FR</text></g></g><g id="_3F46C980-90FE-4BB8-AAE7-27862029D653" bpmn2nodeid="_3F46C980-90FE-4BB8-AAE7-27862029D653" transform="matrix(1,0,0,1,1822,0)"><g><path fill="none" stroke="none"/></g><g transform="matrix(0.125,0,0,0.125,0,0)"><g transform="matrix(1,0,0,1,0,0)"><path fill="#fef4ea" stroke="none" id="_3F46C980-90FE-4BB8-AAE7-27862029D653?shapeType=BACKGROUND" paint-order="stroke fill markers" d=" M 0 0 M 224.4 4.3 C 216.4 4.3 208.4 7.3 202.3 13.399999999999999 L 13.5 202.2 C 1.3000000000000007 214.39999999999998 1.3000000000000007 234.2 13.5 246.39999999999998 L 202.2 435.09999999999997 C 208.29999999999998 441.2 216.39999999999998 444.2 224.29999999999998 444.2 C 232.2 444.2 240.29999999999998 441.2 246.39999999999998 435.09999999999997 L 435.09999999999997 246.39999999999998 C 447.29999999999995 234.2 447.29999999999995 214.39999999999998 435.09999999999997 202.2 L 246.5 13.4 C 240.4 7.3 232.4 4.3 224.4 4.3 L 224.4 4.3 Z"/></g><g><g transform="matrix(1,0,0,1,0,0)"><g transform="matrix(1,0,0,1,0,0)"><path fill="#ec7a08" stroke="none" id="_3F46C980-90FE-4BB8-AAE7-27862029D653?shapeType=BORDER&amp;renderType=FILL" paint-order="stroke fill markers" d=" M 0 0 M 20.8 212.7 L 213.3 20.2 C 219.60000000000002 13.899999999999999 229.70000000000002 13.899999999999999 235.9 20.2 L 428.4 212.7 C 434.7 219 434.7 229.1 428.4 235.29999999999998 L 235.9 427.8 C 229.6 434.1 219.5 434.1 213.3 427.8 L 20.8 235.3 C 14.5 229.1 14.5 218.9 20.8 212.7 L 20.8 212.7 Z M 0 0 M 0 224 C 0 232.1 3.1 240.3 9.3 246.5 L 201.5 438.7 C 213.9 451.09999999999997 234.1 451.09999999999997 246.5 438.7 L 438.7 246.5 C 444.9 240.3 448 232.1 448 224 C 448 215.9 444.9 207.7 438.7 201.5 L 246.5 9.3 C 234.1 -3.0999999999999996 213.9 -3.0999999999999996 201.5 9.3 L 9.3 201.5 C 3.1 207.7 0 215.9 0 224 L 0 224 Z"/></g></g></g><g><g transform="matrix(1,0,0,1,0,0)"><g transform="matrix(1,0,0,1,0,0)"><path fill="#ec7a08" stroke="none" id="_3F46C980-90FE-4BB8-AAE7-27862029D653_exclusive" paint-order="stroke fill markers" d=" M 0 0 M 298.2 269.2 C 298.2 272.59999999999997 297.09999999999997 275.3 294.7 277.7 L 277.7 294.7 C 275.3 297.09999999999997 272.59999999999997 298.2 269.2 298.2 C 265.8 298.2 263.09999999999997 297.09999999999997 260.7 294.7 L 224 258 L 187.2 294.8 C 184.79999999999998 297.2 182.1 298.3 178.7 298.3 C 175.29999999999998 298.3 172.6 297.2 170.2 294.8 L 153.2 277.8 C 150.79999999999998 275.40000000000003 149.7 272.7 149.7 269.3 C 149.7 265.90000000000003 150.79999999999998 263.2 153.2 260.8 L 190 224 L 153.2 187.2 C 150.79999999999998 184.79999999999998 149.7 182 149.7 178.7 C 149.7 175.29999999999998 150.79999999999998 172.5 153.2 170.2 L 170.2 153.2 C 172.6 150.79999999999998 175.29999999999998 149.7 178.7 149.7 C 182.1 149.7 184.79999999999998 150.79999999999998 187.2 153.2 L 224 190 L 260.8 153.2 C 263.2 150.79999999999998 265.90000000000003 149.7 269.3 149.7 C 272.7 149.7 275.40000000000003 150.79999999999998 277.8 153.2 L 294.8 170.2 C 297.2 172.5 298.3 175.29999999999998 298.3 178.7 C 298.3 182 297.2 184.79999999999998 294.8 187.2 L 258 224 L 294.8 260.8 C 297.1 263.1 298.2 265.9 298.2 269.2 Z"/></g></g></g></g><g transform="matrix(1,0,0,1,-8.44921875,61)"><text fill="#000000" stroke="none" font-family="Open Sans" font-size="12pt" font-style="normal" font-weight="normal" text-decoration="normal" x="36.44921875" y="12" text-anchor="middle" dominant-baseline="alphabetic">Es Causa?</text></g></g><g id="_34079CB6-A87E-499A-BEFC-A2D02D147F92" bpmn2nodeid="_34079CB6-A87E-499A-BEFC-A2D02D147F92" transform="matrix(1,0,0,1,1588,122)"><g><path fill="none" stroke="none"/></g><g transform="matrix(1,0,0,1,0,0)"><path fill="#ffffff" stroke="none" id="_34079CB6-A87E-499A-BEFC-A2D02D147F92?shapeType=BACKGROUND" paint-order="stroke fill markers" d=" M 2 0 L 152 0 L 152 0 A 2 2 0 0 1 154 2 L 154 100 L 154 100 A 2 2 0 0 1 152 102 L 2 102 L 2 102 A 2 2 0 0 1 0 100 L 0 2 L 0 2.0000000000000004 A 2 2 0 0 1 1.9999999999999996 0 Z"/></g><g transform="matrix(1,0,0,1,0,0)"><path fill="none" stroke="rgb(0,136,206)" id="_34079CB6-A87E-499A-BEFC-A2D02D147F92?shapeType=BORDER&amp;renderType=STROKE" paint-order="fill stroke markers" d=" M 2 0 L 152 0 L 152 0 A 2 2 0 0 1 154 2 L 154 100 L 154 100 A 2 2 0 0 1 152 102 L 2 102 L 2 102 A 2 2 0 0 1 0 100 L 0 2 L 0 2.0000000000000004 A 2 2 0 0 1 1.9999999999999996 0 Z" stroke-miterlimit="10" stroke-width="1.5" stroke-dasharray=""/></g><g><g transform="matrix(0.06,0,0,0.06,9.4,9.4)"><g transform="matrix(1,0,0,1,0,0)"><path fill="#393f44" stroke="none" id="_34079CB6-A87E-499A-BEFC-A2D02D147F92_task__OAvW__qg4j" paint-order="stroke fill markers" d=" M 0 0 M 16 445.2101 C 16 440.86867 18.784312 431.12906000000004 22.001325 424.21728 C 35.767643 394.6402 77.282944 359.28049 129 333.08362 C 144.51625 325.22398 157.34689 319.96394 167.80739 317.17416 C 171.93153 316.07426 175.72913 314.41389999999996 176.5251 313.36265 C 178.89361 310.23449999999997 180.91404 302.90781 181.72673 294.5 L 182.5 286.5 L 178.50715 283.45457 C 166.30327 274.14645 154.2837 251.67767 148.03953 226.5 C 145.61086 216.70715 145.05603000000002 215.46246 142.98364 215.1579 C 141.70332000000002 214.96974 138.08302 212.24302 134.93852 209.09852 C 123.23314 197.39314000000002 116.89146000000001 177.37556 121.43982000000001 166.48978 C 123.00204000000001 162.75088 128.15457 159.00970999999998 131.75 159.00374 C 134.44781 158.99974 134.47062 158.60296 132.91375 138.78796 C 130.92658 113.4962 134.27903 92.26542699999999 143.13217 74.075676 C 152.23162 55.379835 167.56889 42.88208 189.04934 36.659507000000005 C 210.20334 30.531504000000005 237.79666 30.531504000000005 258.95065999999997 36.659507000000005 C 300.04166 48.562968000000005 318.95842 83.80634 314.95504999999997 141 C 314.31982999999997 150.075 313.62402 157.78816 313.4088 158.14035 C 313.19359 158.49254000000002 314.57532 159.07295000000002 316.47931 159.43014000000002 C 328.92867 161.76565000000002 330.98619 177.01772000000003 321.49638 196.62092 C 316.90319 206.10912000000002 309.35724 214.50797 304.81732 215.18517000000003 C 303.02259 215.45289000000002 302.2931 217.14618000000002 299.94277999999997 226.50000000000003 C 296.65948 239.56693 294.47402 245.30522000000002 287.94764 257.99534000000006 C 282.49071999999995 268.60596000000004 273.03466 281.10922000000005 268.10756999999995 284.2288300000001 L 264.87062 286.27832000000006 L 265.51815999999997 292.88916000000006 C 266.34490999999997 301.32961000000006 268.63948999999997 309.8706000000001 270.87735999999995 312.83742000000007 C 272.06735 314.4150200000001 275.00244999999995 315.78963000000005 280.0630699999999 317.13941000000005 C 291.06929999999994 320.0750300000001 303.61700999999994 325.27420000000006 320.99999999999994 334.10171 C 369.81470999999993 358.89104000000003 410.84810999999996 393.75797 425.03216 422.5 C 429.06985999999995 430.68183 432 440.23198 432 445.2101 L 432 448 L 224 448 L 16 448 L 16 445.2101 Z"/></g></g></g><g transform="matrix(1,0,0,1,4.039999999999992,13.680000000000007)"><g transform="matrix(0.04,0,0,0.04,63.36,69.12)"><g transform="matrix(1,0,0,1,0,0)"><path fill="none" stroke="none"/></g><g transform="matrix(1,0,0,1,0,0)"><path fill="none" stroke="none"/></g></g></g><g transform="matrix(1,0,0,1,35,28.5)"><text fill="#000000" stroke="none" font-family="Open Sans" font-size="12pt" font-style="normal" font-weight="normal" text-decoration="normal" x="50.73828125" y="12" text-anchor="middle" dominant-baseline="alphabetic">     Evaluar      </text><text fill="#000000" stroke="none" font-family="Open Sans" font-size="12pt" font-style="normal" font-weight="normal" text-decoration="normal" x="50.73828125" y="27" text-anchor="middle" dominant-baseline="alphabetic">Resultado de </text><text fill="#000000" stroke="none" font-family="Open Sans" font-size="12pt" font-style="normal" font-weight="normal" text-decoration="normal" x="50.73828125" y="42" text-anchor="middle" dominant-baseline="alphabetic">       Cierre       </text></g></g><g id="_442F7E85-3D59-4D8E-BDE9-D6FDA82FC430" bpmn2nodeid="_442F7E85-3D59-4D8E-BDE9-D6FDA82FC430" transform="matrix(1,0,0,1,1949.625,147.5)"><g><path fill="none" stroke="none"/></g><g transform="matrix(1,0,0,1,0,0)"><path fill="#ffffff" stroke="none" id="_442F7E85-3D59-4D8E-BDE9-D6FDA82FC430?shapeType=BACKGROUND" paint-order="stroke fill markers" d=" M 2 0 L 80.75 0 L 80.75 0 A 2 2 0 0 1 82.75 2 L 82.75 48.75 L 82.75 48.75 A 2 2 0 0 1 80.75 50.75 L 2 50.75 L 2 50.75 A 2 2 0 0 1 0 48.75 L 0 2 L 0 2.0000000000000004 A 2 2 0 0 1 1.9999999999999996 0 Z"/></g><g transform="matrix(1,0,0,1,0,0)"><path fill="none" stroke="#000000" id="_442F7E85-3D59-4D8E-BDE9-D6FDA82FC430?shapeType=BORDER&amp;renderType=STROKE" paint-order="fill stroke markers" d=" M 2 0 L 80.75 0 L 80.75 0 A 2 2 0 0 1 82.75 2 L 82.75 48.75 L 82.75 48.75 A 2 2 0 0 1 80.75 50.75 L 2 50.75 L 2 50.75 A 2 2 0 0 1 0 48.75 L 0 2 L 0 2.0000000000000004 A 2 2 0 0 1 1.9999999999999996 0 Z" stroke-miterlimit="10" stroke-width="1.5" stroke-dasharray=""/></g><g><g transform="matrix(0.06,0,0,0.06,9.4,9.4)"><g transform="matrix(1,0,0,1,0,0)"><path fill="#393f44" stroke="none" id="_442F7E85-3D59-4D8E-BDE9-D6FDA82FC430_task__aSED__Uvb0" paint-order="stroke fill markers" d=" M 0 0 M 197.3 130.2 C 194.4 127.29999999999998 189.60000000000002 127.29999999999998 186.70000000000002 130.2 L 130.20000000000002 186.7 C 127.30000000000001 189.6 127.30000000000001 194.39999999999998 130.20000000000002 197.29999999999998 L 186.70000000000002 253.79999999999998 C 188.10000000000002 255.29999999999998 190.10000000000002 255.99999999999997 192.00000000000003 255.99999999999997 C 193.90000000000003 255.99999999999997 195.90000000000003 255.29999999999998 197.30000000000004 253.69999999999996 C 200.20000000000005 250.79999999999995 200.20000000000005 245.99999999999997 197.30000000000004 243.09999999999997 L 146.2 192 L 197.29999999999998 140.8 C 200.2 137.9 200.2 133.1 197.3 130.2 Z"/></g><g transform="matrix(1,0,0,1,0,0)"><path fill="#393f44" stroke="none" id="_442F7E85-3D59-4D8E-BDE9-D6FDA82FC430_task__aSED__LwQ9" paint-order="stroke fill markers" d=" M 0 0 M 261.3 130.2 C 258.40000000000003 127.29999999999998 253.60000000000002 127.29999999999998 250.70000000000002 130.2 C 247.8 133.1 247.8 137.89999999999998 250.70000000000002 140.79999999999998 L 301.8 191.89999999999998 L 250.7 243 C 247.79999999999998 245.9 247.79999999999998 250.7 250.7 253.6 C 252.1 255.29999999999998 254.1 256 256 256 C 257.9 256 259.9 255.3 261.3 253.8 L 317.8 197.3 C 320.7 194.4 320.7 189.60000000000002 317.8 186.70000000000002 L 261.3 130.2 Z"/></g><g transform="matrix(1,0,0,1,0,0)"><path fill="#393f44" stroke="none" id="_442F7E85-3D59-4D8E-BDE9-D6FDA82FC430_task__aSED__C8ql" paint-order="stroke fill markers" d=" M 0 0 M 400 32 C 400 32 152.8 32 128 32 C 62 32 64 96 64 96 L 64 288 L 1 288 C 1 288 -4 416 78 416 L 320 416 C 368 416 384 368 384 336 C 384 314.2 384 224.4 384 160 L 448 160 L 448 96 C 448 96 449 32 400 32 Z M 0 0 M 78 383.9 C 68.5 383.9 61.6 381.09999999999997 55.5 374.9 C 43.4 362.4 37.5 339.59999999999997 34.9 320 L 256.9 320 C 257.09999999999997 322.7 257.29999999999995 325.4 257.59999999999997 328.2 C 259.99999999999994 351.59999999999997 264.7 370.09999999999997 271.9 383.9 L 78 383.9 L 78 383.9 Z M 0 0 M 352 336 C 352 345.9 349.6 360.3 342.9 371 C 337.2 380.1 330.4 384 320 384 C 285 384 288 288 288 288 L 96 288 L 96 96 L 96 95.9 L 96 95.10000000000001 C 96 90.60000000000001 97.6 78.30000000000001 104.7 71.20000000000002 C 106.5 69.40000000000002 111.9 64.00000000000001 128 64.00000000000001 L 356.5 64.00000000000001 C 354.4 72.80000000000001 352.8 81.80000000000001 352.2 89.9 C 352.2 90.5 352.09999999999997 91.10000000000001 352.09999999999997 91.7 C 352.09999999999997 92 352.09999999999997 92.3 352.09999999999997 92.60000000000001 C 352 94.8 352 96 352 96 L 352 160 L 352 336 Z"/></g></g></g><g transform="matrix(1,0,0,1,35,17.875)"><text fill="#000000" stroke="none" font-family="Open Sans" font-size="12pt" font-style="normal" font-weight="normal" text-decoration="normal" x="16.25" y="12" text-anchor="middle" dominant-baseline="alphabetic">Task</text></g></g><g id="_B47AF788-D6A7-461C-8924-142B5CCAFC1A" bpmn2nodeid="_B47AF788-D6A7-461C-8924-142B5CCAFC1A" transform="matrix(1,0,0,1,1099,145)"><g><path fill="none" stroke="none"/></g><g transform="matrix(0.125,0,0,0.125,0,0)"><g transform="matrix(1,0,0,1,0,0)"><path fill="#fef4ea" stroke="none" id="_B47AF788-D6A7-461C-8924-142B5CCAFC1A?shapeType=BACKGROUND" paint-order="stroke fill markers" d=" M 0 0 M 224.4 4.3 C 216.4 4.3 208.4 7.3 202.3 13.399999999999999 L 13.5 202.2 C 1.3000000000000007 214.39999999999998 1.3000000000000007 234.2 13.5 246.39999999999998 L 202.2 435.09999999999997 C 208.29999999999998 441.2 216.39999999999998 444.2 224.29999999999998 444.2 C 232.2 444.2 240.29999999999998 441.2 246.39999999999998 435.09999999999997 L 435.09999999999997 246.39999999999998 C 447.29999999999995 234.2 447.29999999999995 214.39999999999998 435.09999999999997 202.2 L 246.5 13.4 C 240.4 7.3 232.4 4.3 224.4 4.3 L 224.4 4.3 Z"/></g><g><g transform="matrix(1,0,0,1,0,0)"><g transform="matrix(1,0,0,1,0,0)"><path fill="#ec7a08" stroke="none" id="_B47AF788-D6A7-461C-8924-142B5CCAFC1A?shapeType=BORDER&amp;renderType=FILL" paint-order="stroke fill markers" d=" M 0 0 M 20.8 212.7 L 213.3 20.2 C 219.60000000000002 13.899999999999999 229.70000000000002 13.899999999999999 235.9 20.2 L 428.4 212.7 C 434.7 219 434.7 229.1 428.4 235.29999999999998 L 235.9 427.8 C 229.6 434.1 219.5 434.1 213.3 427.8 L 20.8 235.3 C 14.5 229.1 14.5 218.9 20.8 212.7 L 20.8 212.7 Z M 0 0 M 0 224 C 0 232.1 3.1 240.3 9.3 246.5 L 201.5 438.7 C 213.9 451.09999999999997 234.1 451.09999999999997 246.5 438.7 L 438.7 246.5 C 444.9 240.3 448 232.1 448 224 C 448 215.9 444.9 207.7 438.7 201.5 L 246.5 9.3 C 234.1 -3.0999999999999996 213.9 -3.0999999999999996 201.5 9.3 L 9.3 201.5 C 3.1 207.7 0 215.9 0 224 L 0 224 Z"/></g></g></g><g><g transform="matrix(1,0,0,1,0,0)"><g transform="matrix(1,0,0,1,0,0)"><path fill="#ec7a08" stroke="none" id="_B47AF788-D6A7-461C-8924-142B5CCAFC1A_exclusive" paint-order="stroke fill markers" d=" M 0 0 M 298.2 269.2 C 298.2 272.59999999999997 297.09999999999997 275.3 294.7 277.7 L 277.7 294.7 C 275.3 297.09999999999997 272.59999999999997 298.2 269.2 298.2 C 265.8 298.2 263.09999999999997 297.09999999999997 260.7 294.7 L 224 258 L 187.2 294.8 C 184.79999999999998 297.2 182.1 298.3 178.7 298.3 C 175.29999999999998 298.3 172.6 297.2 170.2 294.8 L 153.2 277.8 C 150.79999999999998 275.40000000000003 149.7 272.7 149.7 269.3 C 149.7 265.90000000000003 150.79999999999998 263.2 153.2 260.8 L 190 224 L 153.2 187.2 C 150.79999999999998 184.79999999999998 149.7 182 149.7 178.7 C 149.7 175.29999999999998 150.79999999999998 172.5 153.2 170.2 L 170.2 153.2 C 172.6 150.79999999999998 175.29999999999998 149.7 178.7 149.7 C 182.1 149.7 184.79999999999998 150.79999999999998 187.2 153.2 L 224 190 L 260.8 153.2 C 263.2 150.79999999999998 265.90000000000003 149.7 269.3 149.7 C 272.7 149.7 275.40000000000003 150.79999999999998 277.8 153.2 L 294.8 170.2 C 297.2 172.5 298.3 175.29999999999998 298.3 178.7 C 298.3 182 297.2 184.79999999999998 294.8 187.2 L 258 224 L 294.8 260.8 C 297.1 263.1 298.2 265.9 298.2 269.2 Z"/></g></g></g></g><g transform="matrix(1,0,0,1,-49.11328125,61)"><text fill="#000000" stroke="none" font-family="Open Sans" font-size="12pt" font-style="normal" font-weight="normal" text-decoration="normal" x="77.11328125" y="12" text-anchor="middle" dominant-baseline="alphabetic">Aprobó Consulta FR?</text></g></g><g id="_43619ADC-2020-49EB-B017-4DE4108DF820" bpmn2nodeid="_43619ADC-2020-49EB-B017-4DE4108DF820" transform="matrix(1,0,0,1,1218,145)"><g><path fill="none" stroke="none"/></g><g transform="matrix(0.125,0,0,0.125,0,0)"><g transform="matrix(1,0,0,1,0,0)"><path fill="#fef4ea" stroke="none" id="_43619ADC-2020-49EB-B017-4DE4108DF820?shapeType=BACKGROUND" paint-order="stroke fill markers" d=" M 0 0 M 224.4 4.3 C 216.4 4.3 208.4 7.3 202.3 13.399999999999999 L 13.5 202.2 C 1.3000000000000007 214.39999999999998 1.3000000000000007 234.2 13.5 246.39999999999998 L 202.2 435.09999999999997 C 208.29999999999998 441.2 216.39999999999998 444.2 224.29999999999998 444.2 C 232.2 444.2 240.29999999999998 441.2 246.39999999999998 435.09999999999997 L 435.09999999999997 246.39999999999998 C 447.29999999999995 234.2 447.29999999999995 214.39999999999998 435.09999999999997 202.2 L 246.5 13.4 C 240.4 7.3 232.4 4.3 224.4 4.3 L 224.4 4.3 Z"/></g><g><g transform="matrix(1,0,0,1,0,0)"><g transform="matrix(1,0,0,1,0,0)"><path fill="#ec7a08" stroke="none" id="_43619ADC-2020-49EB-B017-4DE4108DF820?shapeType=BORDER&amp;renderType=FILL" paint-order="stroke fill markers" d=" M 0 0 M 20.8 212.7 L 213.3 20.2 C 219.60000000000002 13.899999999999999 229.70000000000002 13.899999999999999 235.9 20.2 L 428.4 212.7 C 434.7 219 434.7 229.1 428.4 235.29999999999998 L 235.9 427.8 C 229.6 434.1 219.5 434.1 213.3 427.8 L 20.8 235.3 C 14.5 229.1 14.5 218.9 20.8 212.7 L 20.8 212.7 Z M 0 0 M 0 224 C 0 232.1 3.1 240.3 9.3 246.5 L 201.5 438.7 C 213.9 451.09999999999997 234.1 451.09999999999997 246.5 438.7 L 438.7 246.5 C 444.9 240.3 448 232.1 448 224 C 448 215.9 444.9 207.7 438.7 201.5 L 246.5 9.3 C 234.1 -3.0999999999999996 213.9 -3.0999999999999996 201.5 9.3 L 9.3 201.5 C 3.1 207.7 0 215.9 0 224 L 0 224 Z"/></g></g></g><g><g transform="matrix(1,0,0,1,0,0)"><g transform="matrix(1,0,0,1,0,0)"><path fill="#ec7a08" stroke="none" id="_43619ADC-2020-49EB-B017-4DE4108DF820_exclusive" paint-order="stroke fill markers" d=" M 0 0 M 298.2 269.2 C 298.2 272.59999999999997 297.09999999999997 275.3 294.7 277.7 L 277.7 294.7 C 275.3 297.09999999999997 272.59999999999997 298.2 269.2 298.2 C 265.8 298.2 263.09999999999997 297.09999999999997 260.7 294.7 L 224 258 L 187.2 294.8 C 184.79999999999998 297.2 182.1 298.3 178.7 298.3 C 175.29999999999998 298.3 172.6 297.2 170.2 294.8 L 153.2 277.8 C 150.79999999999998 275.40000000000003 149.7 272.7 149.7 269.3 C 149.7 265.90000000000003 150.79999999999998 263.2 153.2 260.8 L 190 224 L 153.2 187.2 C 150.79999999999998 184.79999999999998 149.7 182 149.7 178.7 C 149.7 175.29999999999998 150.79999999999998 172.5 153.2 170.2 L 170.2 153.2 C 172.6 150.79999999999998 175.29999999999998 149.7 178.7 149.7 C 182.1 149.7 184.79999999999998 150.79999999999998 187.2 153.2 L 224 190 L 260.8 153.2 C 263.2 150.79999999999998 265.90000000000003 149.7 269.3 149.7 C 272.7 149.7 275.40000000000003 150.79999999999998 277.8 153.2 L 294.8 170.2 C 297.2 172.5 298.3 175.29999999999998 298.3 178.7 C 298.3 182 297.2 184.79999999999998 294.8 187.2 L 258 224 L 294.8 260.8 C 297.1 263.1 298.2 265.9 298.2 269.2 Z"/></g></g></g></g><g transform="matrix(1,0,0,1,28,61)"/></g><g id="_51081BC1-AC35-4974-A9F3-0066A01C23E4" bpmn2nodeid="_51081BC1-AC35-4974-A9F3-0066A01C23E4" transform="matrix(1,0,0,1,766,145)"><g><path fill="none" stroke="none"/></g><g transform="matrix(0.125,0,0,0.125,0,0)"><g transform="matrix(1,0,0,1,0,0)"><path fill="#bedee1" stroke="none" id="_51081BC1-AC35-4974-A9F3-0066A01C23E4?shapeType=BACKGROUND" paint-order="stroke fill markers" d=" M 0 0 M 444 224 C 444 263.9 434.2 300.8 414.4 334.5 C 394.7 368.2 368 394.9 334.4 414.5 C 300.79999999999995 434.1 263.9 444 224 444 C 184.10000000000002 444 147.2 434.2 113.5 414.4 C 79.8 394.7 53.1 368 33.5 334.4 C 13.899999999999999 300.79999999999995 4 263.9 4 224 C 4 184.10000000000002 13.8 147.2 33.6 113.5 C 53.400000000000006 79.80000000000001 80.1 53.1 113.6 33.5 C 147.1 13.899999999999999 184.1 4 224 4 C 263.9 4 300.8 13.8 334.5 33.6 C 368.2 53.400000000000006 394.9 80.1 414.5 113.6 C 434.1 147.1 444 184.1 444 224 Z"/></g><g><g transform="matrix(1,0,0,1,0,0)"><g transform="matrix(1,0,0,1,0,0)"><path fill="#007a87" stroke="none" id="_51081BC1-AC35-4974-A9F3-0066A01C23E4?shapeType=BORDER&amp;renderType=FILL" paint-order="stroke fill markers" d=" M 0 0 M 224 408 C 122.5 408 40 325.5 40 224 C 40 122.5 122.5 40 224 40 C 325.5 40 408 122.5 408 224 C 408 325.5 325.5 408 224 408 Z M 0 0 M 224 56 C 131.4 56 56 131.4 56 224 C 56 316.6 131.4 392 224 392 C 316.6 392 392 316.6 392 224 C 392 131.39999999999998 316.6 56 224 56 Z M 0 0 M 224 16 C 252.1 16 279.3 21.5 305 32.3 C 329.8 42.8 352 57.8 371.1 76.9 C 390.20000000000005 96.00000000000001 405.20000000000005 118.30000000000001 415.70000000000005 143 C 426.50000000000006 168.6 432.00000000000006 195.9 432.00000000000006 224 C 432.00000000000006 252.1 426.50000000000006 279.3 415.70000000000005 305 C 405.20000000000005 329.8 390.20000000000005 352 371.1 371.1 C 352 390.20000000000005 329.70000000000005 405.20000000000005 305 415.70000000000005 C 279.4 426.50000000000006 252.1 432.00000000000006 224 432.00000000000006 C 195.9 432.00000000000006 168.7 426.50000000000006 143 415.70000000000005 C 118.2 405.20000000000005 96 390.20000000000005 76.9 371.1 C 57.80000000000001 352 42.8 329.7 32.3 305 C 21.5 279.3 16 252.1 16 224 C 16 195.9 21.5 168.7 32.3 143 C 42.8 118.2 57.8 96 76.9 76.9 C 96.00000000000001 57.80000000000001 118.30000000000001 42.800000000000004 143 32.300000000000004 C 168.7 21.5 195.9 16 224 16 M 224 0 C 100.3 0 0 100.3 0 224 C 0 347.7 100.3 448 224 448 C 347.7 448 448 347.7 448 224 C 448 100.30000000000001 347.7 0 224 0 L 224 0 Z"/></g></g></g><g><g transform="matrix(1,0,0,1,0,0)"><g transform="matrix(1,0,0,1,0,0)"><path fill="#007a87" stroke="none" id="_51081BC1-AC35-4974-A9F3-0066A01C23E4_signal-throwing" paint-order="stroke fill markers" d=" M 0 0 M 224.6 108.7 C 221.7 108.7 219 109.5 216.5 110.9 C 214 112.30000000000001 212.1 114.5 210.6 117 L 114.69999999999999 293 C 111.79999999999998 298.2 111.89999999999999 303.5 114.89999999999999 308.8 C 116.3 311.2 118.19999999999999 313.2 120.69999999999999 314.6 C 123.1 316 125.79999999999998 316.70000000000005 128.7 316.70000000000005 L 320.5 316.70000000000005 C 323.4 316.70000000000005 325.9 316.00000000000006 328.4 314.6 C 330.9 313.20000000000005 332.79999999999995 311.3 334.2 308.8 C 337.3 303.6 337.3 298.3 334.4 293 L 238.49999999999997 117 C 237.09999999999997 114.4 235.19999999999996 112.4 232.69999999999996 110.9 C 230.2 109.4 227.5 108.7 224.6 108.7 L 224.6 108.7 Z"/></g></g></g></g><g transform="matrix(1,0,0,1,-42.28125,61)"><text fill="#000000" stroke="none" font-family="Open Sans" font-size="12pt" font-style="normal" font-weight="normal" text-decoration="normal" x="70.28125" y="12" text-anchor="middle" dominant-baseline="alphabetic">Invoca Consulta FR</text></g></g><g id="_914AD965-31E8-4CDB-BA6E-35F4886A8E5D" bpmn2nodeid="_914AD965-31E8-4CDB-BA6E-35F4886A8E5D" transform="matrix(1,0,0,1,144,122)"><g><path fill="none" stroke="none"/></g><g transform="matrix(1,0,0,1,0,0)"><path fill="#ffffff" stroke="none" id="_914AD965-31E8-4CDB-BA6E-35F4886A8E5D?shapeType=BACKGROUND" paint-order="stroke fill markers" d=" M 2 0 L 152 0 L 152 0 A 2 2 0 0 1 154 2 L 154 100 L 154 100 A 2 2 0 0 1 152 102 L 2 102 L 2 102 A 2 2 0 0 1 0 100 L 0 2 L 0 2.0000000000000004 A 2 2 0 0 1 1.9999999999999996 0 Z"/></g><g transform="matrix(1,0,0,1,0,0)"><path fill="none" stroke="#000000" id="_914AD965-31E8-4CDB-BA6E-35F4886A8E5D?shapeType=BORDER&amp;renderType=STROKE" paint-order="fill stroke markers" d=" M 2 0 L 152 0 L 152 0 A 2 2 0 0 1 154 2 L 154 100 L 154 100 A 2 2 0 0 1 152 102 L 2 102 L 2 102 A 2 2 0 0 1 0 100 L 0 2 L 0 2.0000000000000004 A 2 2 0 0 1 1.9999999999999996 0 Z" stroke-miterlimit="10" stroke-width="1.5" stroke-dasharray=""/></g><g><g transform="matrix(0.06,0,0,0.06,9.4,9.4)"><g transform="matrix(1,0,0,1,0,0)"><path fill="#393f44" stroke="none" id="_914AD965-31E8-4CDB-BA6E-35F4886A8E5D_task__aSED__Uvb0" paint-order="stroke fill markers" d=" M 0 0 M 197.3 130.2 C 194.4 127.29999999999998 189.60000000000002 127.29999999999998 186.70000000000002 130.2 L 130.20000000000002 186.7 C 127.30000000000001 189.6 127.30000000000001 194.39999999999998 130.20000000000002 197.29999999999998 L 186.70000000000002 253.79999999999998 C 188.10000000000002 255.29999999999998 190.10000000000002 255.99999999999997 192.00000000000003 255.99999999999997 C 193.90000000000003 255.99999999999997 195.90000000000003 255.29999999999998 197.30000000000004 253.69999999999996 C 200.20000000000005 250.79999999999995 200.20000000000005 245.99999999999997 197.30000000000004 243.09999999999997 L 146.2 192 L 197.29999999999998 140.8 C 200.2 137.9 200.2 133.1 197.3 130.2 Z"/></g><g transform="matrix(1,0,0,1,0,0)"><path fill="#393f44" stroke="none" id="_914AD965-31E8-4CDB-BA6E-35F4886A8E5D_task__aSED__LwQ9" paint-order="stroke fill markers" d=" M 0 0 M 261.3 130.2 C 258.40000000000003 127.29999999999998 253.60000000000002 127.29999999999998 250.70000000000002 130.2 C 247.8 133.1 247.8 137.89999999999998 250.70000000000002 140.79999999999998 L 301.8 191.89999999999998 L 250.7 243 C 247.79999999999998 245.9 247.79999999999998 250.7 250.7 253.6 C 252.1 255.29999999999998 254.1 256 256 256 C 257.9 256 259.9 255.3 261.3 253.8 L 317.8 197.3 C 320.7 194.4 320.7 189.60000000000002 317.8 186.70000000000002 L 261.3 130.2 Z"/></g><g transform="matrix(1,0,0,1,0,0)"><path fill="#393f44" stroke="none" id="_914AD965-31E8-4CDB-BA6E-35F4886A8E5D_task__aSED__C8ql" paint-order="stroke fill markers" d=" M 0 0 M 400 32 C 400 32 152.8 32 128 32 C 62 32 64 96 64 96 L 64 288 L 1 288 C 1 288 -4 416 78 416 L 320 416 C 368 416 384 368 384 336 C 384 314.2 384 224.4 384 160 L 448 160 L 448 96 C 448 96 449 32 400 32 Z M 0 0 M 78 383.9 C 68.5 383.9 61.6 381.09999999999997 55.5 374.9 C 43.4 362.4 37.5 339.59999999999997 34.9 320 L 256.9 320 C 257.09999999999997 322.7 257.29999999999995 325.4 257.59999999999997 328.2 C 259.99999999999994 351.59999999999997 264.7 370.09999999999997 271.9 383.9 L 78 383.9 L 78 383.9 Z M 0 0 M 352 336 C 352 345.9 349.6 360.3 342.9 371 C 337.2 380.1 330.4 384 320 384 C 285 384 288 288 288 288 L 96 288 L 96 96 L 96 95.9 L 96 95.10000000000001 C 96 90.60000000000001 97.6 78.30000000000001 104.7 71.20000000000002 C 106.5 69.40000000000002 111.9 64.00000000000001 128 64.00000000000001 L 356.5 64.00000000000001 C 354.4 72.80000000000001 352.8 81.80000000000001 352.2 89.9 C 352.2 90.5 352.09999999999997 91.10000000000001 352.09999999999997 91.7 C 352.09999999999997 92 352.09999999999997 92.3 352.09999999999997 92.60000000000001 C 352 94.8 352 96 352 96 L 352 160 L 352 336 Z"/></g></g></g><g transform="matrix(1,0,0,1,35,13.5)"><text fill="#000000" stroke="none" font-family="Open Sans" font-size="12pt" font-style="normal" font-weight="normal" text-decoration="normal" x="53.0703125" y="12" text-anchor="middle" dominant-baseline="alphabetic">  Evaluar RN    </text><text fill="#000000" stroke="none" font-family="Open Sans" font-size="12pt" font-style="normal" font-weight="normal" text-decoration="normal" x="53.0703125" y="27" text-anchor="middle" dominant-baseline="alphabetic"> Consulta FR   </text><text fill="#000000" stroke="none" font-family="Open Sans" font-size="12pt" font-style="normal" font-weight="normal" text-decoration="normal" x="53.0703125" y="42" text-anchor="middle" dominant-baseline="alphabetic">por Acción de </text><text fill="#000000" stroke="none" font-family="Open Sans" font-size="12pt" font-style="normal" font-weight="normal" text-decoration="normal" x="53.0703125" y="57" text-anchor="middle" dominant-baseline="alphabetic">Término de la </text><text fill="#000000" stroke="none" font-family="Open Sans" font-size="12pt" font-style="normal" font-weight="normal" text-decoration="normal" x="53.0703125" y="72" text-anchor="middle" dominant-baseline="alphabetic">       Causa        </text></g></g><g id="_F86DD03E-09A3-41E4-98FF-1648B94B3DD9" bpmn2nodeid="_F86DD03E-09A3-41E4-98FF-1648B94B3DD9" transform="matrix(1,0,0,1,1435,0)"><g><path fill="none" stroke="none"/></g><g transform="matrix(0.125,0,0,0.125,0,0)"><g transform="matrix(1,0,0,1,0,0)"><path fill="#fef4ea" stroke="none" id="_F86DD03E-09A3-41E4-98FF-1648B94B3DD9?shapeType=BACKGROUND" paint-order="stroke fill markers" d=" M 0 0 M 224.4 4.3 C 216.4 4.3 208.4 7.3 202.3 13.399999999999999 L 13.5 202.2 C 1.3000000000000007 214.39999999999998 1.3000000000000007 234.2 13.5 246.39999999999998 L 202.2 435.09999999999997 C 208.29999999999998 441.2 216.39999999999998 444.2 224.29999999999998 444.2 C 232.2 444.2 240.29999999999998 441.2 246.39999999999998 435.09999999999997 L 435.09999999999997 246.39999999999998 C 447.29999999999995 234.2 447.29999999999995 214.39999999999998 435.09999999999997 202.2 L 246.5 13.4 C 240.4 7.3 232.4 4.3 224.4 4.3 L 224.4 4.3 Z"/></g><g><g transform="matrix(1,0,0,1,0,0)"><g transform="matrix(1,0,0,1,0,0)"><path fill="#ec7a08" stroke="none" id="_F86DD03E-09A3-41E4-98FF-1648B94B3DD9?shapeType=BORDER&amp;renderType=FILL" paint-order="stroke fill markers" d=" M 0 0 M 20.8 212.7 L 213.3 20.2 C 219.60000000000002 13.899999999999999 229.70000000000002 13.899999999999999 235.9 20.2 L 428.4 212.7 C 434.7 219 434.7 229.1 428.4 235.29999999999998 L 235.9 427.8 C 229.6 434.1 219.5 434.1 213.3 427.8 L 20.8 235.3 C 14.5 229.1 14.5 218.9 20.8 212.7 L 20.8 212.7 Z M 0 0 M 0 224 C 0 232.1 3.1 240.3 9.3 246.5 L 201.5 438.7 C 213.9 451.09999999999997 234.1 451.09999999999997 246.5 438.7 L 438.7 246.5 C 444.9 240.3 448 232.1 448 224 C 448 215.9 444.9 207.7 438.7 201.5 L 246.5 9.3 C 234.1 -3.0999999999999996 213.9 -3.0999999999999996 201.5 9.3 L 9.3 201.5 C 3.1 207.7 0 215.9 0 224 L 0 224 Z"/></g></g></g><g><g transform="matrix(1,0,0,1,0,0)"><g transform="matrix(1,0,0,1,0,0)"><path fill="#ec7a08" stroke="none" id="_F86DD03E-09A3-41E4-98FF-1648B94B3DD9_exclusive" paint-order="stroke fill markers" d=" M 0 0 M 298.2 269.2 C 298.2 272.59999999999997 297.09999999999997 275.3 294.7 277.7 L 277.7 294.7 C 275.3 297.09999999999997 272.59999999999997 298.2 269.2 298.2 C 265.8 298.2 263.09999999999997 297.09999999999997 260.7 294.7 L 224 258 L 187.2 294.8 C 184.79999999999998 297.2 182.1 298.3 178.7 298.3 C 175.29999999999998 298.3 172.6 297.2 170.2 294.8 L 153.2 277.8 C 150.79999999999998 275.40000000000003 149.7 272.7 149.7 269.3 C 149.7 265.90000000000003 150.79999999999998 263.2 153.2 260.8 L 190 224 L 153.2 187.2 C 150.79999999999998 184.79999999999998 149.7 182 149.7 178.7 C 149.7 175.29999999999998 150.79999999999998 172.5 153.2 170.2 L 170.2 153.2 C 172.6 150.79999999999998 175.29999999999998 149.7 178.7 149.7 C 182.1 149.7 184.79999999999998 150.79999999999998 187.2 153.2 L 224 190 L 260.8 153.2 C 263.2 150.79999999999998 265.90000000000003 149.7 269.3 149.7 C 272.7 149.7 275.40000000000003 150.79999999999998 277.8 153.2 L 294.8 170.2 C 297.2 172.5 298.3 175.29999999999998 298.3 178.7 C 298.3 182 297.2 184.79999999999998 294.8 187.2 L 258 224 L 294.8 260.8 C 297.1 263.1 298.2 265.9 298.2 269.2 Z"/></g></g></g></g><g transform="matrix(1,0,0,1,28,61)"/></g><g id="_74F76A8E-1735-4F68-ADAB-C0BB330DE79D" bpmn2nodeid="_74F76A8E-1735-4F68-ADAB-C0BB330DE79D" transform="matrix(1,0,0,1,171.2857208251953,35.857147216796875)"><g><path fill="none" stroke="none"/></g><g transform="matrix(0.9999998474121093,0,0,1,0,0)"><g transform="matrix(1,0,0,1,0,0)"><path fill="none" stroke="#000000" id="_74F76A8E-1735-4F68-ADAB-C0BB330DE79D?shapeType=BORDER&amp;renderType=STROKE" paint-order="fill stroke markers" d=" M 0 0 M 7.4 58.6 L 2.6 58.6 L 2.6 1.4 L 7.4 1.4" stroke-miterlimit="10" stroke-dasharray=""/></g><g><g transform="matrix(1,0,0,1,0,0)"><g transform="matrix(1,0,0,1,0,0)"><path fill="none" stroke="none"/></g></g></g></g><g transform="matrix(1,0,0,1,11.664054870605469,7.5)"><text fill="#000000" stroke="none" font-family="Open Sans" font-size="12pt" font-style="normal" font-weight="normal" text-decoration="normal" x="38.3359375" y="12" text-anchor="middle" dominant-baseline="alphabetic"> Falta ver  </text><text fill="#000000" stroke="none" font-family="Open Sans" font-size="12pt" font-style="normal" font-weight="normal" text-decoration="normal" x="38.3359375" y="27" text-anchor="middle" dominant-baseline="alphabetic">que hace  </text><text fill="#000000" stroke="none" font-family="Open Sans" font-size="12pt" font-style="normal" font-weight="normal" text-decoration="normal" x="38.3359375" y="42" text-anchor="middle" dominant-baseline="alphabetic">este script</text></g></g></g><g id="_31587418-D8F9-45A0-8C40-32169480B565" bpmn2nodeid="_31587418-D8F9-45A0-8C40-32169480B565" transform="matrix(1,0,0,1,1493.125,99)"><g><path fill="none" stroke="none"/></g><g transform="matrix(1,0,0,1,0,0)"><path fill="#ffffff" stroke="none" id="_31587418-D8F9-45A0-8C40-32169480B565?shapeType=BACKGROUND" paint-order="stroke fill markers" d=" M 2 0 L 75.75 0 L 75.75 0 A 2 2 0 0 1 77.75 2 L 77.75 48 L 77.75 48 A 2 2 0 0 1 75.75 50 L 2 50 L 2 50 A 2 2 0 0 1 0 48 L 0 2 L 0 2.0000000000000004 A 2 2 0 0 1 1.9999999999999996 0 Z"/></g><g transform="matrix(1,0,0,1,0,0)"><path fill="none" stroke="#000000" id="_31587418-D8F9-45A0-8C40-32169480B565?shapeType=BORDER&amp;renderType=STROKE" paint-order="fill stroke markers" d=" M 2 0 L 75.75 0 L 75.75 0 A 2 2 0 0 1 77.75 2 L 77.75 48 L 77.75 48 A 2 2 0 0 1 75.75 50 L 2 50 L 2 50 A 2 2 0 0 1 0 48 L 0 2 L 0 2.0000000000000004 A 2 2 0 0 1 1.9999999999999996 0 Z" stroke-miterlimit="10" stroke-width="1.5" stroke-dasharray=""/></g><g><g transform="matrix(0.06,0,0,0.06,9.4,9.4)"><g transform="matrix(1,0,0,1,0,0)"><path fill="#393f44" stroke="none" id="_31587418-D8F9-45A0-8C40-32169480B565_task__aSED__Uvb0" paint-order="stroke fill markers" d=" M 0 0 M 197.3 130.2 C 194.4 127.29999999999998 189.60000000000002 127.29999999999998 186.70000000000002 130.2 L 130.20000000000002 186.7 C 127.30000000000001 189.6 127.30000000000001 194.39999999999998 130.20000000000002 197.29999999999998 L 186.70000000000002 253.79999999999998 C 188.10000000000002 255.29999999999998 190.10000000000002 255.99999999999997 192.00000000000003 255.99999999999997 C 193.90000000000003 255.99999999999997 195.90000000000003 255.29999999999998 197.30000000000004 253.69999999999996 C 200.20000000000005 250.79999999999995 200.20000000000005 245.99999999999997 197.30000000000004 243.09999999999997 L 146.2 192 L 197.29999999999998 140.8 C 200.2 137.9 200.2 133.1 197.3 130.2 Z"/></g><g transform="matrix(1,0,0,1,0,0)"><path fill="#393f44" stroke="none" id="_31587418-D8F9-45A0-8C40-32169480B565_task__aSED__LwQ9" paint-order="stroke fill markers" d=" M 0 0 M 261.3 130.2 C 258.40000000000003 127.29999999999998 253.60000000000002 127.29999999999998 250.70000000000002 130.2 C 247.8 133.1 247.8 137.89999999999998 250.70000000000002 140.79999999999998 L 301.8 191.89999999999998 L 250.7 243 C 247.79999999999998 245.9 247.79999999999998 250.7 250.7 253.6 C 252.1 255.29999999999998 254.1 256 256 256 C 257.9 256 259.9 255.3 261.3 253.8 L 317.8 197.3 C 320.7 194.4 320.7 189.60000000000002 317.8 186.70000000000002 L 261.3 130.2 Z"/></g><g transform="matrix(1,0,0,1,0,0)"><path fill="#393f44" stroke="none" id="_31587418-D8F9-45A0-8C40-32169480B565_task__aSED__C8ql" paint-order="stroke fill markers" d=" M 0 0 M 400 32 C 400 32 152.8 32 128 32 C 62 32 64 96 64 96 L 64 288 L 1 288 C 1 288 -4 416 78 416 L 320 416 C 368 416 384 368 384 336 C 384 314.2 384 224.4 384 160 L 448 160 L 448 96 C 448 96 449 32 400 32 Z M 0 0 M 78 383.9 C 68.5 383.9 61.6 381.09999999999997 55.5 374.9 C 43.4 362.4 37.5 339.59999999999997 34.9 320 L 256.9 320 C 257.09999999999997 322.7 257.29999999999995 325.4 257.59999999999997 328.2 C 259.99999999999994 351.59999999999997 264.7 370.09999999999997 271.9 383.9 L 78 383.9 L 78 383.9 Z M 0 0 M 352 336 C 352 345.9 349.6 360.3 342.9 371 C 337.2 380.1 330.4 384 320 384 C 285 384 288 288 288 288 L 96 288 L 96 96 L 96 95.9 L 96 95.10000000000001 C 96 90.60000000000001 97.6 78.30000000000001 104.7 71.20000000000002 C 106.5 69.40000000000002 111.9 64.00000000000001 128 64.00000000000001 L 356.5 64.00000000000001 C 354.4 72.80000000000001 352.8 81.80000000000001 352.2 89.9 C 352.2 90.5 352.09999999999997 91.10000000000001 352.09999999999997 91.7 C 352.09999999999997 92 352.09999999999997 92.3 352.09999999999997 92.60000000000001 C 352 94.8 352 96 352 96 L 352 160 L 352 336 Z"/></g></g></g><g transform="matrix(1,0,0,1,35,17.5)"><text fill="#000000" stroke="none" font-family="Open Sans" font-size="12pt" font-style="normal" font-weight="normal" text-decoration="normal" x="16.25" y="12" text-anchor="middle" dominant-baseline="alphabetic">Task</text></g></g><g id="_EA2592E8-5BA7-4384-8169-E256A8971020" bpmn2nodeid="_EA2592E8-5BA7-4384-8169-E256A8971020" transform="matrix(1,0,0,1,993.4285888671875,3)"><g><path fill="none" stroke="none"/></g><g transform="matrix(1.885714111328125,0,0,1,0,0)"><g transform="matrix(1,0,0,1,0,0)"><path fill="none" stroke="#000000" id="_EA2592E8-5BA7-4384-8169-E256A8971020?shapeType=BORDER&amp;renderType=STROKE" paint-order="fill stroke markers" d=" M 0 0 M 7.4 58.6 L 2.6 58.6 L 2.6 1.4 L 7.4 1.4" stroke-miterlimit="10" stroke-dasharray=""/></g><g><g transform="matrix(1,0,0,1,0,0)"><g transform="matrix(1,0,0,1,0,0)"><path fill="none" stroke="none"/></g></g></g></g><g transform="matrix(1,0,0,1,23.99664306640625,15)"><text fill="#000000" stroke="none" font-family="Open Sans" font-size="12pt" font-style="normal" font-weight="normal" text-decoration="normal" x="70.2890625" y="12" text-anchor="middle" dominant-baseline="alphabetic">Falta implementar </text><text fill="#000000" stroke="none" font-family="Open Sans" font-size="12pt" font-style="normal" font-weight="normal" text-decoration="normal" x="70.2890625" y="27" text-anchor="middle" dominant-baseline="alphabetic">            señal            </text></g></g><g id="_4E0F2862-616B-4465-A6AE-9D60466FD9A7" bpmn2nodeid="_4E0F2862-616B-4465-A6AE-9D60466FD9A7" transform="matrix(1,0,0,1,1891,7)"><g><path fill="none" stroke="none"/></g><g transform="matrix(0.125,0,0,0.125,0,0)"><g transform="matrix(1,0,0,1,0,0)"><path fill="#fce7e7" stroke="none" id="_4E0F2862-616B-4465-A6AE-9D60466FD9A7?shapeType=BACKGROUND" paint-order="stroke fill markers" d=" M 0 0 M 444 224 C 444 263.9 434.2 300.8 414.4 334.5 C 394.7 368.2 368 394.9 334.4 414.5 C 300.79999999999995 434.1 263.9 444 224 444 C 184.10000000000002 444 147.2 434.2 113.5 414.4 C 79.8 394.7 53.1 368 33.5 334.4 C 13.899999999999999 300.79999999999995 4 263.9 4 224 C 4 184.10000000000002 13.8 147.2 33.6 113.5 C 53.400000000000006 79.80000000000001 80.1 53.1 113.6 33.5 C 147.1 13.899999999999999 184.1 4 224 4 C 263.9 4 300.8 13.8 334.5 33.6 C 368.2 53.400000000000006 394.9 80.1 414.5 113.6 C 434.1 147.1 444 184.1 444 224 Z"/></g><g><g transform="matrix(1,0,0,1,0,0)"><g transform="matrix(1,0,0,1,0,0)"><path fill="#a30000" stroke="none" id="_4E0F2862-616B-4465-A6AE-9D60466FD9A7?shapeType=BORDER&amp;renderType=FILL" paint-order="stroke fill markers" d=" M 0 0 M 224 0 C 100.3 0 0 100.3 0 224 C 0 347.7 100.3 448 224 448 C 347.7 448 448 347.7 448 224 C 448 100.30000000000001 347.7 0 224 0 Z M 0 0 M 224 400 C 126.8 400 48 321.2 48 224 C 48 126.80000000000001 126.8 48 224 48 C 321.2 48 400 126.8 400 224 C 400 321.2 321.2 400 224 400 Z"/></g></g></g><g><g transform="matrix(1,0,0,1,0,0)"><g transform="matrix(1,0,0,1,0,0)"><path fill="#a30000" stroke="none" id="_4E0F2862-616B-4465-A6AE-9D60466FD9A7_signal-throwing" paint-order="stroke fill markers" d=" M 0 0 M 224.6 108.7 C 221.7 108.7 219 109.5 216.5 110.9 C 214 112.30000000000001 212.1 114.5 210.6 117 L 114.69999999999999 293 C 111.79999999999998 298.2 111.89999999999999 303.5 114.89999999999999 308.8 C 116.3 311.2 118.19999999999999 313.2 120.69999999999999 314.6 C 123.1 316 125.79999999999998 316.70000000000005 128.7 316.70000000000005 L 320.5 316.70000000000005 C 323.4 316.70000000000005 325.9 316.00000000000006 328.4 314.6 C 330.9 313.20000000000005 332.79999999999995 311.3 334.2 308.8 C 337.3 303.6 337.3 298.3 334.4 293 L 238.49999999999997 117 C 237.09999999999997 114.4 235.19999999999996 112.4 232.69999999999996 110.9 C 230.2 109.4 227.5 108.7 224.6 108.7 L 224.6 108.7 Z"/></g></g></g></g><g transform="matrix(1,0,0,1,-71.91796875,61)"><text fill="#000000" stroke="none" font-family="Open Sans" font-size="12pt" font-style="normal" font-weight="normal" text-decoration="normal" x="99.91796875" y="12" text-anchor="middle" dominant-baseline="alphabetic">Invoca Dirigir Investigación</text></g></g><g id="_4DCCF436-7849-47BC-AACD-E1CAC28EDA98" bpmn2nodeid="_4DCCF436-7849-47BC-AACD-E1CAC28EDA98" transform="matrix(1,0,0,1,1505,3.25)"><g><path fill="none" stroke="none"/></g><g transform="matrix(0.125,0,0,0.125,0,0)"><g transform="matrix(1,0,0,1,0,0)"><path fill="#fce7e7" stroke="none" id="_4DCCF436-7849-47BC-AACD-E1CAC28EDA98?shapeType=BACKGROUND" paint-order="stroke fill markers" d=" M 0 0 M 444 224 C 444 263.9 434.2 300.8 414.4 334.5 C 394.7 368.2 368 394.9 334.4 414.5 C 300.79999999999995 434.1 263.9 444 224 444 C 184.10000000000002 444 147.2 434.2 113.5 414.4 C 79.8 394.7 53.1 368 33.5 334.4 C 13.899999999999999 300.79999999999995 4 263.9 4 224 C 4 184.10000000000002 13.8 147.2 33.6 113.5 C 53.400000000000006 79.80000000000001 80.1 53.1 113.6 33.5 C 147.1 13.899999999999999 184.1 4 224 4 C 263.9 4 300.8 13.8 334.5 33.6 C 368.2 53.400000000000006 394.9 80.1 414.5 113.6 C 434.1 147.1 444 184.1 444 224 Z"/></g><g><g transform="matrix(1,0,0,1,0,0)"><g transform="matrix(1,0,0,1,0,0)"><path fill="#a30000" stroke="none" id="_4DCCF436-7849-47BC-AACD-E1CAC28EDA98?shapeType=BORDER&amp;renderType=FILL" paint-order="stroke fill markers" d=" M 0 0 M 224 0 C 100.3 0 0 100.3 0 224 C 0 347.7 100.3 448 224 448 C 347.7 448 448 347.7 448 224 C 448 100.30000000000001 347.7 0 224 0 Z M 0 0 M 224 400 C 126.8 400 48 321.2 48 224 C 48 126.80000000000001 126.8 48 224 48 C 321.2 48 400 126.8 400 224 C 400 321.2 321.2 400 224 400 Z"/></g></g></g><g><g transform="matrix(1,0,0,1,0,0)"><g transform="matrix(1,0,0,1,0,0)"><path fill="#a30000" stroke="none" id="_4DCCF436-7849-47BC-AACD-E1CAC28EDA98_end_1_" paint-order="stroke fill markers" d=" M 0 0 M 320.2 220.7 C 320.2 238.1 315.9 254.2 307.3 268.9 C 298.7 283.59999999999997 287.1 295.29999999999995 272.40000000000003 303.79999999999995 C 257.70000000000005 312.4 241.60000000000002 316.69999999999993 224.20000000000005 316.69999999999993 C 206.80000000000007 316.69999999999993 190.70000000000005 312.3999999999999 176.00000000000006 303.79999999999995 C 161.30000000000007 295.19999999999993 149.70000000000005 283.59999999999997 141.10000000000005 268.9 C 132.50000000000006 254.2 128.30000000000004 238.09999999999997 128.30000000000004 220.7 C 128.30000000000004 203.3 132.60000000000005 187.2 141.20000000000005 172.5 C 149.80000000000004 157.8 161.40000000000003 146.1 176.10000000000005 137.5 C 190.80000000000004 128.9 206.90000000000006 124.7 224.30000000000007 124.7 C 241.70000000000007 124.7 257.80000000000007 129 272.50000000000006 137.6 C 287.20000000000005 146.2 298.90000000000003 157.9 307.40000000000003 172.5 C 316 187.2 320.2 203.3 320.2 220.7 Z"/></g></g></g></g><g transform="matrix(1,0,0,1,-30.36328125,61)"><text fill="#000000" stroke="none" font-family="Open Sans" font-size="12pt" font-style="normal" font-weight="normal" text-decoration="normal" x="58.36328125" y="12" text-anchor="middle" dominant-baseline="alphabetic">flujo se termina</text></g></g><g id="_9AB94C0F-4C82-4B98-AC3C-6CBE84C3B0C9" bpmn2nodeid="_9AB94C0F-4C82-4B98-AC3C-6CBE84C3B0C9" transform="matrix(1,0,0,1,1168,21.5)"><g><path fill="none" stroke="none"/></g><g transform="matrix(0.125,0,0,0.125,0,0)"><g transform="matrix(1,0,0,1,0,0)"><path fill="#fce7e7" stroke="none" id="_9AB94C0F-4C82-4B98-AC3C-6CBE84C3B0C9?shapeType=BACKGROUND" paint-order="stroke fill markers" d=" M 0 0 M 444 224 C 444 263.9 434.2 300.8 414.4 334.5 C 394.7 368.2 368 394.9 334.4 414.5 C 300.79999999999995 434.1 263.9 444 224 444 C 184.10000000000002 444 147.2 434.2 113.5 414.4 C 79.8 394.7 53.1 368 33.5 334.4 C 13.899999999999999 300.79999999999995 4 263.9 4 224 C 4 184.10000000000002 13.8 147.2 33.6 113.5 C 53.400000000000006 79.80000000000001 80.1 53.1 113.6 33.5 C 147.1 13.899999999999999 184.1 4 224 4 C 263.9 4 300.8 13.8 334.5 33.6 C 368.2 53.400000000000006 394.9 80.1 414.5 113.6 C 434.1 147.1 444 184.1 444 224 Z"/></g><g><g transform="matrix(1,0,0,1,0,0)"><g transform="matrix(1,0,0,1,0,0)"><path fill="#a30000" stroke="none" id="_9AB94C0F-4C82-4B98-AC3C-6CBE84C3B0C9?shapeType=BORDER&amp;renderType=FILL" paint-order="stroke fill markers" d=" M 0 0 M 224 0 C 100.3 0 0 100.3 0 224 C 0 347.7 100.3 448 224 448 C 347.7 448 448 347.7 448 224 C 448 100.30000000000001 347.7 0 224 0 Z M 0 0 M 224 400 C 126.8 400 48 321.2 48 224 C 48 126.80000000000001 126.8 48 224 48 C 321.2 48 400 126.8 400 224 C 400 321.2 321.2 400 224 400 Z"/></g></g></g><g><g transform="matrix(1,0,0,1,0,0)"><g transform="matrix(1,0,0,1,0,0)"><path fill="#a30000" stroke="none" id="_9AB94C0F-4C82-4B98-AC3C-6CBE84C3B0C9_signal-throwing" paint-order="stroke fill markers" d=" M 0 0 M 224.6 108.7 C 221.7 108.7 219 109.5 216.5 110.9 C 214 112.30000000000001 212.1 114.5 210.6 117 L 114.69999999999999 293 C 111.79999999999998 298.2 111.89999999999999 303.5 114.89999999999999 308.8 C 116.3 311.2 118.19999999999999 313.2 120.69999999999999 314.6 C 123.1 316 125.79999999999998 316.70000000000005 128.7 316.70000000000005 L 320.5 316.70000000000005 C 323.4 316.70000000000005 325.9 316.00000000000006 328.4 314.6 C 330.9 313.20000000000005 332.79999999999995 311.3 334.2 308.8 C 337.3 303.6 337.3 298.3 334.4 293 L 238.49999999999997 117 C 237.09999999999997 114.4 235.19999999999996 112.4 232.69999999999996 110.9 C 230.2 109.4 227.5 108.7 224.6 108.7 L 224.6 108.7 Z"/></g></g></g></g><g transform="matrix(1,0,0,1,-71.91796875,61)"><text fill="#000000" stroke="none" font-family="Open Sans" font-size="12pt" font-style="normal" font-weight="normal" text-decoration="normal" x="99.91796875" y="12" text-anchor="middle" dominant-baseline="alphabetic">Invoca Dirigir Investigación</text></g></g><g id="_C277F793-442F-4FBE-8239-3477B3B135E3" bpmn2nodeid="_C277F793-442F-4FBE-8239-3477B3B135E3" transform="matrix(1,0,0,1,1689.857177734375,37.857147216796875)"><g><path fill="none" stroke="none"/></g><g transform="matrix(1.7,0,0,0.952380879720052,0,0)"><g transform="matrix(1,0,0,1,0,0)"><path fill="none" stroke="#000000" id="_C277F793-442F-4FBE-8239-3477B3B135E3?shapeType=BORDER&amp;renderType=STROKE" paint-order="fill stroke markers" d=" M 0 0 M 7.4 58.6 L 2.6 58.6 L 2.6 1.4 L 7.4 1.4" stroke-miterlimit="10" stroke-dasharray=""/></g><g><g transform="matrix(1,0,0,1,0,0)"><g transform="matrix(1,0,0,1,0,0)"><path fill="none" stroke="none"/></g></g></g></g><g transform="matrix(1,0,0,1,14.7109375,13.571426391601562)"><text fill="#000000" stroke="none" font-family="Open Sans" font-size="12pt" font-style="normal" font-weight="normal" text-decoration="normal" x="70.2890625" y="12" text-anchor="middle" dominant-baseline="alphabetic">Falta implementar </text><text fill="#000000" stroke="none" font-family="Open Sans" font-size="12pt" font-style="normal" font-weight="normal" text-decoration="normal" x="70.2890625" y="27" text-anchor="middle" dominant-baseline="alphabetic">            señal            </text></g></g><g id="_5B7BAA36-ABE7-4BD5-8303-43C1F732F762" bpmn2nodeid="_5B7BAA36-ABE7-4BD5-8303-43C1F732F762"><g><path fill="none" stroke="#000000" paint-order="fill stroke markers" d=" M 166 357 L 198 357" stroke-miterlimit="10" stroke-dasharray=""/></g><g transform="matrix(1,0,0,1,166,357)"/><g transform="matrix(6.123233995736766e-17,1,-1,6.123233995736766e-17,213,352)"><path fill="#000000" stroke="#000000" paint-order="fill stroke markers" d=" M 10 15 L 0 15 L 5 0 Z" stroke-miterlimit="10" stroke-dasharray=""/></g><g transform="matrix(1,0,0,1,166,347)"/></g><g id="_D31FAD17-D4C4-4B12-9436-4267B971906A" bpmn2nodeid="_D31FAD17-D4C4-4B12-9436-4267B971906A"><g><path fill="none" stroke="#000000" paint-order="fill stroke markers" d=" M 367 357 L 438 357" stroke-miterlimit="10" stroke-dasharray=""/></g><g transform="matrix(1,0,0,1,367,357)"/><g transform="matrix(6.123233995736766e-17,1,-1,6.123233995736766e-17,453,352)"><path fill="#000000" stroke="#000000" paint-order="fill stroke markers" d=" M 10 15 L 0 15 L 5 0 Z" stroke-miterlimit="10" stroke-dasharray=""/></g><g transform="matrix(1,0,0,1,367,347)"/></g><g id="_BE073C70-C60B-463D-8455-6B9C47904851" bpmn2nodeid="_BE073C70-C60B-463D-8455-6B9C47904851"><g><path fill="none" stroke="#000000" paint-order="fill stroke markers" d=" M 481 385 L 481 467.5 L 1315 461.25 L 1315 400" stroke-miterlimit="10" stroke-dasharray=""/></g><g transform="matrix(1,0,0,1,481,385)"/><g transform="matrix(1,0,0,1,1310,385)"><path fill="#000000" stroke="#000000" paint-order="fill stroke markers" d=" M 10 15 L 0 15 L 5 0 Z" stroke-miterlimit="10" stroke-dasharray=""/></g><g transform="matrix(1,0,0,1,491,415.25)"><text fill="#000000" stroke="none" font-family="Open Sans" font-size="10pt" font-style="normal" font-weight="normal" text-decoration="normal" x="0" y="8.8" text-anchor="start" dominant-baseline="alphabetic">No                   </text></g></g><g id="_D9B52E67-3624-4532-AA51-1824F594472D" bpmn2nodeid="_D9B52E67-3624-4532-AA51-1824F594472D"><g><path fill="none" stroke="#000000" paint-order="fill stroke markers" d=" M 1343 357 L 1408 357" stroke-miterlimit="10" stroke-dasharray=""/></g><g transform="matrix(1,0,0,1,1343,357)"/><g transform="matrix(6.123233995736766e-17,1,-1,6.123233995736766e-17,1423,352)"><path fill="#000000" stroke="#000000" paint-order="fill stroke markers" d=" M 10 15 L 0 15 L 5 0 Z" stroke-miterlimit="10" stroke-dasharray=""/></g><g transform="matrix(1,0,0,1,1343,347)"/></g><g id="_9F42C885-EFC7-40B2-B308-9B42EA3580A9" bpmn2nodeid="_9F42C885-EFC7-40B2-B308-9B42EA3580A9"><g><path fill="none" stroke="#000000" paint-order="fill stroke markers" d=" M 1577 357 L 1642 357" stroke-miterlimit="10" stroke-dasharray=""/></g><g transform="matrix(1,0,0,1,1577,357)"/><g transform="matrix(6.123233995736766e-17,1,-1,6.123233995736766e-17,1657,352)"><path fill="#000000" stroke="#000000" paint-order="fill stroke markers" d=" M 10 15 L 0 15 L 5 0 Z" stroke-miterlimit="10" stroke-dasharray=""/></g><g transform="matrix(1,0,0,1,1577,347)"/></g><g id="_CA534C10-5635-4294-9BEB-6D7775947771" bpmn2nodeid="_CA534C10-5635-4294-9BEB-6D7775947771"><g><path fill="none" stroke="#000000" paint-order="fill stroke markers" d=" M 1811 357 L 1876 357" stroke-miterlimit="10" stroke-dasharray=""/></g><g transform="matrix(1,0,0,1,1811,357)"/><g transform="matrix(6.123233995736766e-17,1,-1,6.123233995736766e-17,1891,352)"><path fill="#000000" stroke="#000000" paint-order="fill stroke markers" d=" M 10 15 L 0 15 L 5 0 Z" stroke-miterlimit="10" stroke-dasharray=""/></g><g transform="matrix(1,0,0,1,1811,347)"/></g><g id="_8BCE0F7F-DB57-4987-B3F9-D42E4A1C5F2F" bpmn2nodeid="_8BCE0F7F-DB57-4987-B3F9-D42E4A1C5F2F"><g><path fill="none" stroke="#000000" paint-order="fill stroke markers" d=" M 1947 357 L 2003.625022842889 356.9011779706058" stroke-miterlimit="10" stroke-dasharray=""/></g><g transform="matrix(1,0,0,1,1947,357)"/><g transform="matrix(0.001745198040384966,0.9999984771407404,-0.9999984771407404,0.001745198040384966,2018.616274009798,351.8750076142963)"><path fill="#000000" stroke="#000000" paint-order="fill stroke markers" d=" M 10 15 L 0 15 L 5 0 Z" stroke-miterlimit="10" stroke-dasharray=""/></g><g transform="matrix(1,0,0,1,1947.0174519804038,335.9375152285926)"><text fill="#000000" stroke="none" font-family="Open Sans" font-size="10pt" font-style="normal" font-weight="normal" text-decoration="normal" x="0" y="8.8" text-anchor="start" dominant-baseline="alphabetic">Si                  </text></g></g><g id="_1D5005B4-FB71-4403-9F0A-6EC3D9747CD9" bpmn2nodeid="_1D5005B4-FB71-4403-9F0A-6EC3D9747CD9"><g><path fill="none" stroke="#000000" paint-order="fill stroke markers" d=" M 2101.375 356.92117745535717 L 2157.000009342107 356.9832589389979" stroke-miterlimit="10" stroke-dasharray=""/></g><g transform="matrix(1,0,0,1,2101.375,356.92117745535717)"/><g transform="matrix(-0.0011160707334739086,0.999999377192865,-0.999999377192865,-0.0011160707334739086,2172.0055803536675,352.0000031140357)"><path fill="#000000" stroke="#000000" paint-order="fill stroke markers" d=" M 10 15 L 0 15 L 5 0 Z" stroke-miterlimit="10" stroke-dasharray=""/></g><g transform="matrix(1,0,0,1,2101.386160707335,346.9605949557499)"/></g><g id="_2193605E-83F4-45C0-BACE-44BEF154BA31" bpmn2nodeid="_2193605E-83F4-45C0-BACE-44BEF154BA31"><g><path fill="none" stroke="#000000" paint-order="fill stroke markers" d=" M 1919 329 L 1919 255" stroke-miterlimit="10" stroke-dasharray=""/></g><g transform="matrix(1,0,0,1,1919,329)"/><g transform="matrix(1,0,0,1,1914,240)"><path fill="#000000" stroke="#000000" paint-order="fill stroke markers" d=" M 10 15 L 0 15 L 5 0 Z" stroke-miterlimit="10" stroke-dasharray=""/></g><g transform="matrix(1,0,0,1,1929,273.5)"><text fill="#000000" stroke="none" font-family="Open Sans" font-size="10pt" font-style="normal" font-weight="normal" text-decoration="normal" x="0" y="8.8" text-anchor="start" dominant-baseline="alphabetic">No                    </text></g></g><g id="_1E817904-27A4-4262-9552-1F6B12E49AAD" bpmn2nodeid="_1E817904-27A4-4262-9552-1F6B12E49AAD"><g><path fill="none" stroke="#000000" paint-order="fill stroke markers" d=" M 1919 184 L 1919 78" stroke-miterlimit="10" stroke-dasharray=""/></g><g transform="matrix(1,0,0,1,1919,184)"/><g transform="matrix(1,0,0,1,1914,63)"><path fill="#000000" stroke="#000000" paint-order="fill stroke markers" d=" M 10 15 L 0 15 L 5 0 Z" stroke-miterlimit="10" stroke-dasharray=""/></g><g transform="matrix(1,0,0,1,1929,112.5)"><text fill="#000000" stroke="none" font-family="Open Sans" font-size="10pt" font-style="normal" font-weight="normal" text-decoration="normal" x="0" y="8.8" text-anchor="start" dominant-baseline="alphabetic">Si                                </text></g></g><g id="_505021C4-426A-4BBB-99F0-1BFCBE80341D" bpmn2nodeid="_505021C4-426A-4BBB-99F0-1BFCBE80341D"><g><path fill="none" stroke="#000000" paint-order="fill stroke markers" d=" M 1891 212 L 1575 212" stroke-miterlimit="10" stroke-dasharray=""/></g><g transform="matrix(1,0,0,1,1891,212)"/><g transform="matrix(-1.8369701987210297e-16,-1,1,-1.8369701987210297e-16,1560,217)"><path fill="#000000" stroke="#000000" paint-order="fill stroke markers" d=" M 10 15 L 0 15 L 5 0 Z" stroke-miterlimit="10" stroke-dasharray=""/></g><g transform="matrix(1,0,0,1,1625.5,191)"><text fill="#000000" stroke="none" font-family="Open Sans" font-size="10pt" font-style="normal" font-weight="normal" text-decoration="normal" x="0" y="8.8" text-anchor="start" dominant-baseline="alphabetic">No                                                     </text></g></g><g id="_4EF18B6F-0CB0-4BB2-9226-7071DB0DAF46" bpmn2nodeid="_4EF18B6F-0CB0-4BB2-9226-7071DB0DAF46"><g><path fill="none" stroke="#000000" paint-order="fill stroke markers" d=" M 1532 184 L 1532 164" stroke-miterlimit="10" stroke-dasharray=""/></g><g transform="matrix(1,0,0,1,1532,184)"/><g transform="matrix(1,0,0,1,1527,149)"><path fill="#000000" stroke="#000000" paint-order="fill stroke markers" d=" M 10 15 L 0 15 L 5 0 Z" stroke-miterlimit="10" stroke-dasharray=""/></g><g transform="matrix(1,0,0,1,1542,166.5)"/></g><g id="_81E8CD35-B2DA-4760-81D5-DA8D7FCF569A" bpmn2nodeid="_81E8CD35-B2DA-4760-81D5-DA8D7FCF569A"><g><path fill="none" stroke="#000000" paint-order="fill stroke markers" d=" M 1532.3861003861005 99 L 1532.7683673909212 74.24821143784857" stroke-miterlimit="10" stroke-dasharray=""/></g><g transform="matrix(1,0,0,1,1532.3861003861005,99)"/><g transform="matrix(0.9998807625232373,0.015442173938587522,-0.015442173938587522,0.9998807625232373,1528.0005961873837,59.17278913030706)"><path fill="#000000" stroke="#000000" paint-order="fill stroke markers" d=" M 10 15 L 0 15 L 5 0 Z" stroke-miterlimit="10" stroke-dasharray=""/></g><g transform="matrix(1,0,0,1,1542.3849080113325,78.97057826061419)"/></g><g id="_C53EC708-E1D6-4B6A-A5D5-7EEAC89CA08A" bpmn2nodeid="_C53EC708-E1D6-4B6A-A5D5-7EEAC89CA08A"><g><path fill="none" stroke="#000000" paint-order="fill stroke markers" d=" M 509 357 L 580 357" stroke-miterlimit="10" stroke-dasharray=""/></g><g transform="matrix(1,0,0,1,509,357)"/><g transform="matrix(6.123233995736766e-17,1,-1,6.123233995736766e-17,595,352)"><path fill="#000000" stroke="#000000" paint-order="fill stroke markers" d=" M 10 15 L 0 15 L 5 0 Z" stroke-miterlimit="10" stroke-dasharray=""/></g><g transform="matrix(1,0,0,1,509,336)"><text fill="#000000" stroke="none" font-family="Open Sans" font-size="10pt" font-style="normal" font-weight="normal" text-decoration="normal" x="0" y="8.8" text-anchor="start" dominant-baseline="alphabetic">Si                      </text></g></g><g id="_D62C418A-A3E5-4044-8D53-33916116322C" bpmn2nodeid="_D62C418A-A3E5-4044-8D53-33916116322C"><g><path fill="none" stroke="#000000" paint-order="fill stroke markers" d=" M 749 357 L 820 357" stroke-miterlimit="10" stroke-dasharray=""/></g><g transform="matrix(1,0,0,1,749,357)"/><g transform="matrix(6.123233995736766e-17,1,-1,6.123233995736766e-17,835,352)"><path fill="#000000" stroke="#000000" paint-order="fill stroke markers" d=" M 10 15 L 0 15 L 5 0 Z" stroke-miterlimit="10" stroke-dasharray=""/></g><g transform="matrix(1,0,0,1,749,347)"/></g><g id="_FFE882E4-4C76-4E8E-B012-8161A541163C" bpmn2nodeid="_FFE882E4-4C76-4E8E-B012-8161A541163C"><g><path fill="none" stroke="#000000" paint-order="fill stroke markers" d=" M 891 357 L 975 357" stroke-miterlimit="10" stroke-dasharray=""/></g><g transform="matrix(1,0,0,1,891,357)"/><g transform="matrix(6.123233995736766e-17,1,-1,6.123233995736766e-17,990,352)"><path fill="#000000" stroke="#000000" paint-order="fill stroke markers" d=" M 10 15 L 0 15 L 5 0 Z" stroke-miterlimit="10" stroke-dasharray=""/></g><g transform="matrix(1,0,0,1,891,347)"/></g><g id="_BE82AB6F-DDC0-4011-BAF1-C55819FD61FC" bpmn2nodeid="_BE82AB6F-DDC0-4011-BAF1-C55819FD61FC"><g><path fill="none" stroke="#000000" paint-order="fill stroke markers" d=" M 1046 357 L 1153 357" stroke-miterlimit="10" stroke-dasharray=""/></g><g transform="matrix(1,0,0,1,1046,357)"/><g transform="matrix(6.123233995736766e-17,1,-1,6.123233995736766e-17,1168,352)"><path fill="#000000" stroke="#000000" paint-order="fill stroke markers" d=" M 10 15 L 0 15 L 5 0 Z" stroke-miterlimit="10" stroke-dasharray=""/></g><g transform="matrix(1,0,0,1,1046,347)"/></g><g id="_2AD6CF85-357A-419E-9342-09E2123C4DCA" bpmn2nodeid="_2AD6CF85-357A-419E-9342-09E2123C4DCA"><g><path fill="none" stroke="#000000" paint-order="fill stroke markers" d=" M 1224 357 L 1272 357" stroke-miterlimit="10" stroke-dasharray=""/></g><g transform="matrix(1,0,0,1,1224,357)"/><g transform="matrix(6.123233995736766e-17,1,-1,6.123233995736766e-17,1287,352)"><path fill="#000000" stroke="#000000" paint-order="fill stroke markers" d=" M 10 15 L 0 15 L 5 0 Z" stroke-miterlimit="10" stroke-dasharray=""/></g><g transform="matrix(1,0,0,1,1224,336)"><text fill="#000000" stroke="none" font-family="Open Sans" font-size="10pt" font-style="normal" font-weight="normal" text-decoration="normal" x="0" y="8.8" text-anchor="start" dominant-baseline="alphabetic">Si               </text></g></g><g id="_3CEC5B00-D2CA-445F-B11C-C12AE4435169" bpmn2nodeid="_3CEC5B00-D2CA-445F-B11C-C12AE4435169"><g><path fill="none" stroke="#000000" paint-order="fill stroke markers" d=" M 1196 329 L 1196 255" stroke-miterlimit="10" stroke-dasharray=""/></g><g transform="matrix(1,0,0,1,1196,329)"/><g transform="matrix(1,0,0,1,1191,240)"><path fill="#000000" stroke="#000000" paint-order="fill stroke markers" d=" M 10 15 L 0 15 L 5 0 Z" stroke-miterlimit="10" stroke-dasharray=""/></g><g transform="matrix(1,0,0,1,1206,273.5)"><text fill="#000000" stroke="none" font-family="Open Sans" font-size="10pt" font-style="normal" font-weight="normal" text-decoration="normal" x="0" y="8.8" text-anchor="start" dominant-baseline="alphabetic">No                    </text></g></g><g id="_B3B287C9-40C9-4EB3-AF5C-51EBA4508925" bpmn2nodeid="_B3B287C9-40C9-4EB3-AF5C-51EBA4508925"><g><path fill="none" stroke="#000000" paint-order="fill stroke markers" d=" M 1196 184 L 1196 92.5" stroke-miterlimit="10" stroke-dasharray=""/></g><g transform="matrix(1,0,0,1,1196,184)"/><g transform="matrix(1,0,0,1,1191,77.5)"><path fill="#000000" stroke="#000000" paint-order="fill stroke markers" d=" M 10 15 L 0 15 L 5 0 Z" stroke-miterlimit="10" stroke-dasharray=""/></g><g transform="matrix(1,0,0,1,1206,119.75)"><text fill="#000000" stroke="none" font-family="Open Sans" font-size="10pt" font-style="normal" font-weight="normal" text-decoration="normal" x="0" y="8.8" text-anchor="start" dominant-baseline="alphabetic">Si                            </text></g></g><g id="_7DB7F64C-FE91-493A-A086-588E2FB5963F" bpmn2nodeid="_7DB7F64C-FE91-493A-A086-588E2FB5963F"><g><path fill="none" stroke="#000000" paint-order="fill stroke markers" d=" M 1224 212 L 1489 212" stroke-miterlimit="10" stroke-dasharray=""/></g><g transform="matrix(1,0,0,1,1224,212)"/><g transform="matrix(6.123233995736766e-17,1,-1,6.123233995736766e-17,1504,207)"><path fill="#000000" stroke="#000000" paint-order="fill stroke markers" d=" M 10 15 L 0 15 L 5 0 Z" stroke-miterlimit="10" stroke-dasharray=""/></g><g transform="matrix(1,0,0,1,1264,191)"><text fill="#000000" stroke="none" font-family="Open Sans" font-size="10pt" font-style="normal" font-weight="normal" text-decoration="normal" x="0" y="8.8" text-anchor="start" dominant-baseline="alphabetic">No                                                     </text></g></g><g transform="matrix(1,0,0,1,69,184)"/><g transform="matrix(1,0,0,1,110,329)"/><g transform="matrix(1,0,0,1,990,329)"/><g transform="matrix(1,0,0,1,1891,329)"/><g transform="matrix(1,0,0,1,1168,184)"/><g transform="matrix(1,0,0,1,453,329)"/><g transform="matrix(1,0,0,1,2172,329)"/><g transform="matrix(1,0,0,1,835,405.4285583496094)"/><g transform="matrix(1,0,0,1,1891,184)"/><g transform="matrix(1,0,0,1,2018.625,331.5)"/><g transform="matrix(1,0,0,1,1168,329)"/><g transform="matrix(1,0,0,1,1287,329)"/><g transform="matrix(1,0,0,1,835,329)"/><g transform="matrix(1,0,0,1,213,306)"/><g transform="matrix(1,0,0,1,1504,184)"/><g transform="matrix(1,0,0,1,240.2857208251953,219.85714721679688)"/><g transform="matrix(1,0,0,1,1493.125,99)"/><g transform="matrix(1,0,0,1,993.4285888671875,3)"/><g transform="matrix(1,0,0,1,1891,7)"/><g transform="matrix(1,0,0,1,1505,3.25)"/><g transform="matrix(1,0,0,1,1168,21.5)"/><g transform="matrix(1,0,0,1,1689.857177734375,37.857147216796875)"/><g transform="matrix(1,0,0,1,595,306)"/><g transform="matrix(1,0,0,1,1423,306)"/><g transform="matrix(1,0,0,1,1657,306)"/></g></g></svg>