<svg version="1.1" xmlns="http://www.w3.org/2000/svg" xmlns:xlink="http://www.w3.org/1999/xlink" width="1389" height="584" viewBox="0 0 1389 584"><defs/><g transform="matrix(1,0,0,1,0,0)"><g><g><g><path fill="none" stroke="#d3d3d3" paint-order="fill stroke markers" d=" M 0 0 L 1200 0" stroke-miterlimit="10" stroke-opacity="0.8" stroke-dasharray="5"/></g><g><path fill="none" stroke="#d3d3d3" paint-order="fill stroke markers" d=" M 0 0 L 0 800" stroke-miterlimit="10" stroke-opacity="0.8" stroke-dasharray="5"/></g></g><g id="_F3373DD4-AABC-428F-A42C-F488BBD87103" bpmn2nodeid="_F3373DD4-AABC-428F-A42C-F488BBD87103" transform="matrix(1,0,0,1,65,32)"><g><path fill="none" stroke="none"/></g><g transform="matrix(1,0,0,1,0,0)"><path fill="#f2f2f2" stroke="none" id="_F3373DD4-AABC-428F-A42C-F488BBD87103?shapeType=BACKGROUND" paint-order="stroke fill markers" d=" M 0 0 L 1273.8095703125 0 L 1273.8095703125 501.90478515625 L 0 501.90478515625 L 0 0 Z Z"/></g><g transform="matrix(1,0,0,1,0,0)"><path fill="none" stroke="rgb(0,0,0)" id="_F3373DD4-AABC-428F-A42C-F488BBD87103?shapeType=BORDER&amp;renderType=STROKE" paint-order="fill stroke markers" d=" M 0 0 L 1273.8095703125 0 L 1273.8095703125 501.90478515625 L 0 501.90478515625 L 0 0 Z Z" stroke-miterlimit="10" stroke-width="0.5" stroke-dasharray=""/></g><g transform="matrix(-1.8369701987210297e-16,-1,1,-1.8369701987210297e-16,0,268.952392578125)"><text fill="#000000" stroke="none" font-family="Open Sans" font-size="12pt" font-style="normal" font-weight="normal" text-decoration="normal" x="18" y="12" text-anchor="middle" dominant-baseline="alphabetic">Lane</text></g><g id="_F8793CA7-D853-4B73-B1B8-73C82EBE83A4" bpmn2nodeid="_F8793CA7-D853-4B73-B1B8-73C82EBE83A4" transform="matrix(1,0,0,1,1149.3333740234375,212)"><g><path fill="none" stroke="none"/></g><g transform="matrix(0.125,0,0,0.125,0,0)"><g transform="matrix(1,0,0,1,0,0)"><path fill="#fce7e7" stroke="none" id="_F8793CA7-D853-4B73-B1B8-73C82EBE83A4?shapeType=BACKGROUND" paint-order="stroke fill markers" d=" M 0 0 M 444 224 C 444 263.9 434.2 300.8 414.4 334.5 C 394.7 368.2 368 394.9 334.4 414.5 C 300.79999999999995 434.1 263.9 444 224 444 C 184.10000000000002 444 147.2 434.2 113.5 414.4 C 79.8 394.7 53.1 368 33.5 334.4 C 13.899999999999999 300.79999999999995 4 263.9 4 224 C 4 184.10000000000002 13.8 147.2 33.6 113.5 C 53.400000000000006 79.80000000000001 80.1 53.1 113.6 33.5 C 147.1 13.899999999999999 184.1 4 224 4 C 263.9 4 300.8 13.8 334.5 33.6 C 368.2 53.400000000000006 394.9 80.1 414.5 113.6 C 434.1 147.1 444 184.1 444 224 Z"/></g><g><g transform="matrix(1,0,0,1,0,0)"><g transform="matrix(1,0,0,1,0,0)"><path fill="#a30000" stroke="none" id="_F8793CA7-D853-4B73-B1B8-73C82EBE83A4?shapeType=BORDER&amp;renderType=FILL" paint-order="stroke fill markers" d=" M 0 0 M 224 0 C 100.3 0 0 100.3 0 224 C 0 347.7 100.3 448 224 448 C 347.7 448 448 347.7 448 224 C 448 100.30000000000001 347.7 0 224 0 Z M 0 0 M 224 400 C 126.8 400 48 321.2 48 224 C 48 126.80000000000001 126.8 48 224 48 C 321.2 48 400 126.8 400 224 C 400 321.2 321.2 400 224 400 Z"/></g></g></g><g><g transform="matrix(1,0,0,1,0,0)"><g transform="matrix(1,0,0,1,0,0)"><path fill="#a30000" stroke="none" id="_F8793CA7-D853-4B73-B1B8-73C82EBE83A4_message-throwing" paint-order="stroke fill markers" d=" M 0 0 M 336.2 189.4 L 336.2 288.7 C 336.2 294.2 334.3 298.9 330.3 302.8 C 326.40000000000003 306.7 321.7 308.7 316.2 308.7 L 132.2 308.7 C 126.69999999999999 308.7 121.99999999999999 306.7 118.1 302.8 C 114.19999999999999 298.90000000000003 112.19999999999999 294.2 112.19999999999999 288.7 L 112.19999999999999 189.39999999999998 C 115.89999999999999 193.49999999999997 120.1 197.09999999999997 124.79999999999998 200.29999999999998 C 154.99999999999997 220.79999999999998 175.7 235.2 186.89999999999998 243.39999999999998 C 191.7 246.89999999999998 195.49999999999997 249.59999999999997 198.49999999999997 251.59999999999997 C 201.39999999999998 253.49999999999997 205.39999999999998 255.49999999999997 210.29999999999998 257.59999999999997 C 215.2 259.7 219.79999999999998 260.7 224.1 260.7 L 224.29999999999998 260.7 C 228.49999999999997 260.7 233.1 259.7 238.1 257.59999999999997 C 243 255.49999999999997 247 253.49999999999997 249.9 251.59999999999997 C 252.8 249.69999999999996 256.7 246.89999999999998 261.5 243.39999999999998 C 275.6 233.2 296.4 218.79999999999998 323.7 200.29999999999998 C 328.5 197.1 332.6 193.4 336.2 189.4 Z M 0 0 M 336.2 152.7 C 336.2 159.29999999999998 334.2 165.6 330.09999999999997 171.6 C 326.09999999999997 177.6 320.99999999999994 182.7 314.9 187 C 283.5 208.8 264 222.3 256.4 227.6 C 255.59999999999997 228.2 253.79999999999998 229.4 251.09999999999997 231.4 C 248.39999999999995 233.4 246.19999999999996 235 244.29999999999995 236.20000000000002 C 242.39999999999995 237.40000000000003 240.39999999999995 238.8 237.79999999999995 240.3 C 235.19999999999996 241.8 232.89999999999995 242.9 230.59999999999997 243.70000000000002 C 228.29999999999998 244.50000000000003 226.19999999999996 244.8 224.39999999999998 244.8 L 224.2 244.8 C 222.29999999999998 244.8 220.2 244.4 218 243.70000000000002 C 215.8 243.00000000000003 213.3 241.8 210.8 240.3 C 208.20000000000002 238.8 206.10000000000002 237.4 204.3 236.20000000000002 C 202.5 235.00000000000003 200.20000000000002 233.4 197.5 231.4 C 194.79999999999998 229.4 193 228.20000000000002 192.2 227.6 C 184.6 222.29999999999998 173.7 214.7 159.39999999999998 204.79999999999998 C 145.09999999999997 194.89999999999998 136.59999999999997 188.99999999999997 133.79999999999998 186.99999999999997 C 128.6 183.49999999999997 123.69999999999999 178.69999999999996 119.19999999999999 172.59999999999997 C 114.69999999999999 166.49999999999997 112.29999999999998 160.79999999999995 112.29999999999998 155.49999999999997 C 112.29999999999998 148.99999999999997 114.09999999999998 143.59999999999997 117.49999999999999 139.29999999999998 C 120.89999999999999 134.99999999999997 125.89999999999999 132.79999999999998 132.29999999999998 132.79999999999998 L 316.29999999999995 132.79999999999998 C 321.69999999999993 132.79999999999998 326.4 134.7 330.4 138.7 C 334.2 142.6 336.2 147.2 336.2 152.7 Z"/></g></g></g></g><g transform="matrix(1,0,0,1,28,61)"/></g><g id="_074C5CF5-D78E-4AB8-8167-A8AAD929F022" bpmn2nodeid="_074C5CF5-D78E-4AB8-8167-A8AAD929F022" transform="matrix(1,0,0,1,40.666664123535156,212)"><g><path fill="none" stroke="none"/></g><g transform="matrix(0.125,0,0,0.125,0,0)"><g transform="matrix(1,0,0,1,0,0)"><path fill="#e8fae6" stroke="none" id="_074C5CF5-D78E-4AB8-8167-A8AAD929F022?shapeType=BACKGROUND" paint-order="stroke fill markers" d=" M 0 0 M 444 224 C 444 263.9 434.2 300.8 414.4 334.5 C 394.7 368.2 368 394.9 334.4 414.5 C 300.79999999999995 434.1 263.9 444 224 444 C 184.10000000000002 444 147.2 434.2 113.5 414.4 C 79.8 394.7 53.1 368 33.5 334.4 C 13.899999999999999 300.79999999999995 4 263.9 4 224 C 4 184.10000000000002 13.8 147.2 33.6 113.5 C 53.400000000000006 79.80000000000001 80.1 53.1 113.6 33.5 C 147.1 13.899999999999999 184.1 4 224 4 C 263.9 4 300.8 13.8 334.5 33.6 C 368.2 53.400000000000006 394.9 80.1 414.5 113.6 C 434.1 147.1 444 184.1 444 224 Z"/></g><g><g transform="matrix(1,0,0,1,0,0)"><g transform="matrix(1,0,0,1,0,0)"><path fill="#4aa241" stroke="none" id="_074C5CF5-D78E-4AB8-8167-A8AAD929F022?shapeType=BORDER&amp;renderType=FILL" paint-order="stroke fill markers" d=" M 0 0 M 224 0 C 100.3 0 0 100.3 0 224 C 0 347.7 100.3 448 224 448 C 347.7 448 448 347.7 448 224 C 448 100.30000000000001 347.7 0 224 0 Z M 0 0 M 224 432 C 109.1 432 16 338.9 16 224 C 16 109.10000000000002 109.1 16 224 16 C 338.9 16 432 109.1 432 224 C 432 338.9 338.9 432 224 432 Z"/></g></g></g><g><g transform="matrix(1,0,0,1,0,0)"><g transform="matrix(1,0,0,1,0,0)"><path fill="#4aa241" stroke="none" id="_074C5CF5-D78E-4AB8-8167-A8AAD929F022_message-catching" paint-order="stroke fill markers" d=" M 0 0 M 320.2 288.7 L 320.2 192.7 C 317.59999999999997 195.7 314.7 198.5 311.59999999999997 200.89999999999998 C 289.2 218.09999999999997 271.49999999999994 232.09999999999997 258.4 243.09999999999997 C 254.2 246.69999999999996 250.7 249.49999999999997 247.99999999999997 251.49999999999997 C 245.29999999999995 253.49999999999997 241.79999999999998 255.49999999999997 237.19999999999996 257.59999999999997 C 232.59999999999997 259.7 228.39999999999995 260.7 224.39999999999995 260.7 L 224.19999999999996 260.7 C 220.19999999999996 260.7 215.99999999999997 259.7 211.39999999999995 257.59999999999997 C 206.79999999999995 255.49999999999997 203.19999999999996 253.49999999999997 200.59999999999994 251.49999999999997 C 197.89999999999995 249.49999999999997 194.49999999999994 246.69999999999996 190.19999999999993 243.09999999999997 C 177.09999999999994 232.09999999999997 159.29999999999993 217.99999999999997 136.99999999999994 200.89999999999998 C 133.89999999999995 198.39999999999998 131.09999999999994 195.7 128.39999999999995 192.7 L 128.39999999999995 288.7 C 128.39999999999995 289.8 128.79999999999995 290.7 129.59999999999994 291.5 C 130.39999999999992 292.3 131.39999999999995 292.7 132.39999999999995 292.7 L 316.4 292.7 C 317.5 292.7 318.4 292.3 319.2 291.5 C 319.9 290.7 320.2 289.8 320.2 288.7 Z M 0 0 M 320.2 152.7 C 320.2 151.6 319.8 150.7 319 149.89999999999998 C 318.2 149.09999999999997 317.3 148.7 316.2 148.7 L 316.2 148.7 L 132.2 148.7 C 131.1 148.7 130.2 149.1 129.39999999999998 149.89999999999998 C 128.59999999999997 150.7 128.2 151.59999999999997 128.2 152.7 C 128.2 166.7 134.29999999999998 178.5 146.6 188.2 C 162.7 200.89999999999998 179.39999999999998 214.1 196.7 227.79999999999998 C 197.2 228.2 198.6 229.49999999999997 201.1 231.49999999999997 C 203.6 233.59999999999997 205.5 235.09999999999997 206.9 236.19999999999996 C 208.3 237.29999999999995 210.1 238.59999999999997 212.5 240.09999999999997 C 214.9 241.59999999999997 216.9 242.79999999999995 218.8 243.49999999999997 C 220.70000000000002 244.29999999999998 222.5 244.59999999999997 224.20000000000002 244.59999999999997 L 224.4 244.59999999999997 C 226 244.59999999999997 227.8 244.19999999999996 229.8 243.49999999999997 C 231.8 242.79999999999998 233.8 241.59999999999997 236.10000000000002 240.09999999999997 C 238.40000000000003 238.59999999999997 240.3 237.19999999999996 241.70000000000002 236.19999999999996 C 243.10000000000002 235.09999999999997 245.10000000000002 233.59999999999997 247.50000000000003 231.49999999999997 C 249.90000000000003 229.39999999999998 251.40000000000003 228.29999999999998 251.90000000000003 227.79999999999998 C 269.3 213.99999999999997 285.90000000000003 200.89999999999998 302.00000000000006 188.2 C 306.50000000000006 184.6 310.70000000000005 179.79999999999998 314.6000000000001 173.7 C 318.50000000000006 167.7 320.4000000000001 162.2 320.4000000000001 157.29999999999998 L 320.4000000000001 154.2 L 320.4000000000001 152.7 Z M 0 0 M 336.2 152.7 L 336.2 288.7 C 336.2 294.2 334.3 298.9 330.3 302.8 C 326.40000000000003 306.7 321.7 308.7 316.2 308.7 L 132.2 308.7 C 126.69999999999999 308.7 121.99999999999999 306.7 118.1 302.8 C 114.19999999999999 298.90000000000003 112.19999999999999 294.2 112.19999999999999 288.7 L 112.19999999999999 152.7 C 112.19999999999999 147.2 114.19999999999999 142.5 118.1 138.6 C 122 134.7 126.69999999999999 132.7 132.2 132.7 L 316.2 132.7 C 321.7 132.7 326.4 134.6 330.3 138.6 C 334.2 142.6 336.2 147.2 336.2 152.7 Z"/></g></g></g></g><g transform="matrix(1,0,0,1,28,61)"/></g><g id="_C84D8110-17E6-4133-8358-9CA89D5BA24D" bpmn2nodeid="_C84D8110-17E6-4133-8358-9CA89D5BA24D" transform="matrix(1,0,0,1,1149,308)"><g><path fill="none" stroke="none"/></g><g transform="matrix(0.125,0,0,0.125,0,0)"><g transform="matrix(1,0,0,1,0,0)"><path fill="#fce7e7" stroke="none" id="_C84D8110-17E6-4133-8358-9CA89D5BA24D?shapeType=BACKGROUND" paint-order="stroke fill markers" d=" M 0 0 M 444 224 C 444 263.9 434.2 300.8 414.4 334.5 C 394.7 368.2 368 394.9 334.4 414.5 C 300.79999999999995 434.1 263.9 444 224 444 C 184.10000000000002 444 147.2 434.2 113.5 414.4 C 79.8 394.7 53.1 368 33.5 334.4 C 13.899999999999999 300.79999999999995 4 263.9 4 224 C 4 184.10000000000002 13.8 147.2 33.6 113.5 C 53.400000000000006 79.80000000000001 80.1 53.1 113.6 33.5 C 147.1 13.899999999999999 184.1 4 224 4 C 263.9 4 300.8 13.8 334.5 33.6 C 368.2 53.400000000000006 394.9 80.1 414.5 113.6 C 434.1 147.1 444 184.1 444 224 Z"/></g><g><g transform="matrix(1,0,0,1,0,0)"><g transform="matrix(1,0,0,1,0,0)"><path fill="#a30000" stroke="none" id="_C84D8110-17E6-4133-8358-9CA89D5BA24D?shapeType=BORDER&amp;renderType=FILL" paint-order="stroke fill markers" d=" M 0 0 M 224 0 C 100.3 0 0 100.3 0 224 C 0 347.7 100.3 448 224 448 C 347.7 448 448 347.7 448 224 C 448 100.30000000000001 347.7 0 224 0 Z M 0 0 M 224 400 C 126.8 400 48 321.2 48 224 C 48 126.80000000000001 126.8 48 224 48 C 321.2 48 400 126.8 400 224 C 400 321.2 321.2 400 224 400 Z"/></g></g></g></g><g transform="matrix(1,0,0,1,28,61)"/></g><g id="_723538B7-B0EA-4BF2-B88C-D14E945C7736" bpmn2nodeid="_723538B7-B0EA-4BF2-B88C-D14E945C7736" transform="matrix(1,0,0,1,900,212)"><g><path fill="none" stroke="none"/></g><g transform="matrix(0.125,0,0,0.125,0,0)"><g transform="matrix(1,0,0,1,0,0)"><path fill="#fef4ea" stroke="none" id="_723538B7-B0EA-4BF2-B88C-D14E945C7736?shapeType=BACKGROUND" paint-order="stroke fill markers" d=" M 0 0 M 224.4 4.3 C 216.4 4.3 208.4 7.3 202.3 13.399999999999999 L 13.5 202.2 C 1.3000000000000007 214.39999999999998 1.3000000000000007 234.2 13.5 246.39999999999998 L 202.2 435.09999999999997 C 208.29999999999998 441.2 216.39999999999998 444.2 224.29999999999998 444.2 C 232.2 444.2 240.29999999999998 441.2 246.39999999999998 435.09999999999997 L 435.09999999999997 246.39999999999998 C 447.29999999999995 234.2 447.29999999999995 214.39999999999998 435.09999999999997 202.2 L 246.5 13.4 C 240.4 7.3 232.4 4.3 224.4 4.3 L 224.4 4.3 Z"/></g><g><g transform="matrix(1,0,0,1,0,0)"><g transform="matrix(1,0,0,1,0,0)"><path fill="#ec7a08" stroke="none" id="_723538B7-B0EA-4BF2-B88C-D14E945C7736?shapeType=BORDER&amp;renderType=FILL" paint-order="stroke fill markers" d=" M 0 0 M 20.8 212.7 L 213.3 20.2 C 219.60000000000002 13.899999999999999 229.70000000000002 13.899999999999999 235.9 20.2 L 428.4 212.7 C 434.7 219 434.7 229.1 428.4 235.29999999999998 L 235.9 427.8 C 229.6 434.1 219.5 434.1 213.3 427.8 L 20.8 235.3 C 14.5 229.1 14.5 218.9 20.8 212.7 L 20.8 212.7 Z M 0 0 M 0 224 C 0 232.1 3.1 240.3 9.3 246.5 L 201.5 438.7 C 213.9 451.09999999999997 234.1 451.09999999999997 246.5 438.7 L 438.7 246.5 C 444.9 240.3 448 232.1 448 224 C 448 215.9 444.9 207.7 438.7 201.5 L 246.5 9.3 C 234.1 -3.0999999999999996 213.9 -3.0999999999999996 201.5 9.3 L 9.3 201.5 C 3.1 207.7 0 215.9 0 224 L 0 224 Z"/></g></g></g><g><g transform="matrix(1,0,0,1,0,0)"><g transform="matrix(1,0,0,1,0,0)"><path fill="#ec7a08" stroke="none" id="_723538B7-B0EA-4BF2-B88C-D14E945C7736_exclusive" paint-order="stroke fill markers" d=" M 0 0 M 298.2 269.2 C 298.2 272.59999999999997 297.09999999999997 275.3 294.7 277.7 L 277.7 294.7 C 275.3 297.09999999999997 272.59999999999997 298.2 269.2 298.2 C 265.8 298.2 263.09999999999997 297.09999999999997 260.7 294.7 L 224 258 L 187.2 294.8 C 184.79999999999998 297.2 182.1 298.3 178.7 298.3 C 175.29999999999998 298.3 172.6 297.2 170.2 294.8 L 153.2 277.8 C 150.79999999999998 275.40000000000003 149.7 272.7 149.7 269.3 C 149.7 265.90000000000003 150.79999999999998 263.2 153.2 260.8 L 190 224 L 153.2 187.2 C 150.79999999999998 184.79999999999998 149.7 182 149.7 178.7 C 149.7 175.29999999999998 150.79999999999998 172.5 153.2 170.2 L 170.2 153.2 C 172.6 150.79999999999998 175.29999999999998 149.7 178.7 149.7 C 182.1 149.7 184.79999999999998 150.79999999999998 187.2 153.2 L 224 190 L 260.8 153.2 C 263.2 150.79999999999998 265.90000000000003 149.7 269.3 149.7 C 272.7 149.7 275.40000000000003 150.79999999999998 277.8 153.2 L 294.8 170.2 C 297.2 172.5 298.3 175.29999999999998 298.3 178.7 C 298.3 182 297.2 184.79999999999998 294.8 187.2 L 258 224 L 294.8 260.8 C 297.1 263.1 298.2 265.9 298.2 269.2 Z"/></g></g></g></g><g transform="matrix(1,0,0,1,28,61)"/></g><g id="_8A60E1DA-099B-4091-86B4-4A2FBDC7A691" bpmn2nodeid="_8A60E1DA-099B-4091-86B4-4A2FBDC7A691" transform="matrix(1,0,0,1,148.3333282470703,188.6666717529297)"><g><path fill="none" stroke="none"/></g><g transform="matrix(1,0,0,1,0,0)"><path fill="#ffffff" stroke="none" id="_8A60E1DA-099B-4091-86B4-4A2FBDC7A691?shapeType=BACKGROUND" paint-order="stroke fill markers" d=" M 2 0 L 152.00001525878906 0 L 152.00001525878906 0 A 2 2 0 0 1 154.00001525878906 2 L 154.00001525878906 99.99998474121094 L 154.00001525878906 99.99998474121094 A 2 2 0 0 1 152.00001525878906 101.99998474121094 L 2 101.99998474121094 L 2 101.99998474121094 A 2 2 0 0 1 0 99.99998474121094 L 0 2 L 0 2.0000000000000004 A 2 2 0 0 1 1.9999999999999996 0 Z"/></g><g transform="matrix(1,0,0,1,0,0)"><path fill="none" stroke="#000000" id="_8A60E1DA-099B-4091-86B4-4A2FBDC7A691?shapeType=BORDER&amp;renderType=STROKE" paint-order="fill stroke markers" d=" M 2 0 L 152.00001525878906 0 L 152.00001525878906 0 A 2 2 0 0 1 154.00001525878906 2 L 154.00001525878906 99.99998474121094 L 154.00001525878906 99.99998474121094 A 2 2 0 0 1 152.00001525878906 101.99998474121094 L 2 101.99998474121094 L 2 101.99998474121094 A 2 2 0 0 1 0 99.99998474121094 L 0 2 L 0 2.0000000000000004 A 2 2 0 0 1 1.9999999999999996 0 Z" stroke-miterlimit="10" stroke-width="1.5" stroke-dasharray=""/></g><g><g transform="matrix(0.02,0,0,0.02,1.96,1.96)"><g transform="matrix(1,0,0,1,0,0)"><path fill="#393f44" stroke="none" id="_8A60E1DA-099B-4091-86B4-4A2FBDC7A691_task__Gqa1__QdBp" paint-order="stroke fill markers" d=" M 0 0 M 825.74609 438.17383 C 825.69979 475.1723 825.75629 512.17163 825.85156 549.16992 C 794.29829 558.09661 765.46524 570.55412 738.23633 585.8144500000001 L 658.6542999999999 507.1894500000001 L 509.8476599999999 656.85742 L 589.42383 735.46875 C 574.05216 763.02029 562.0487099999999 792.29945 553.67188 822.7109399999999 L 440.94727 822.9160199999999 L 440.94727 1033.7051 L 554.84961 1033.2948999999999 C 565.26551 1074.5932999999998 587.93422 1111.7200999999998 610.51172 1144.918 L 610.51172 963.0937499999999 L 510.94727 963.4511699999999 L 510.94727 892.78906 L 610.01562 892.60938 L 615.57617 864.4375 C 623.68569 823.35291 639.74603 784.18805 662.8203100000001 749.14453 L 678.6054700000001 725.17188 L 609.0019500000001 656.41016 L 659.0957000000001 606.02539 L 728.82617 674.91797 L 752.55664 659.0820299999999 C 788.8205 635.15649 828.48451 619.1185099999999 868.03711 610.7656199999999 L 895.99609 604.9609399999999 L 895.74609 508.1757799999999 L 967.71289 508.1757799999999 L 967.15625 604.4570299999999 L 995.58398 604.4570299999999 L 1155.9902 604.4570299999999 C 1138.2767999999999 583.3133799999999 1064.8698 555.7993799999999 1037.4823999999999 548.13281 L 1038.1172 438.1757799999999 C 959.7171599999999 438.1737799999999 898.2517399999999 438.17977999999994 825.7460899999999 438.1737799999999 Z M 0 0 M 1024.9043 639.83203 L 1025.1914 750.82422 C 993.6369799999999 759.75091 964.80383 772.20673 937.57422 787.46875 L 857.99023 708.84375 L 709.18359 858.51172 L 788.76172 937.1230499999999 C 773.38937 964.67608 761.3846199999999 993.9542999999999 753.00781 1024.3672 L 640.2851599999999 1024.5702999999999 L 640.2851599999999 1235.3593999999998 L 754.1855499999999 1234.9511999999997 C 763.1509799999999 1266.2081999999998 775.5796899999999 1294.7509999999997 790.8105499999999 1321.6972999999998 L 709.3164099999999 1402.8729999999998 L 859.7812499999999 1550.7519999999997 L 940.9824199999999 1469.9276999999997 C 968.7967199999999 1485.3723999999997 998.3629 1497.3636999999997 1029.0156 1505.7089999999998 L 1029.0686 1620.4218999999998 C 1101.4603 1621.0557 1178.5356000000002 1620.7291999999998 1240.4045 1620.7226999999998 L 1240.4045 1504.6522999999997 C 1271.9823000000001 1495.7484999999997 1300.9055 1483.2013999999997 1328.1408000000001 1467.9472999999998 L 1409.2756000000002 1547.9433999999999 L 1558.1799 1398.4629 L 1476.8752000000002 1318.3398 C 1492.2822 1290.7142 1504.2876 1261.3861 1512.6740000000002 1230.9414 L 1623.0529000000001 1230.2598 L 1623.0529000000001 1019.6738 L 1511.4357000000002 1020.3535 C 1502.4633000000001 989.0665200000001 1490.2144000000003 960.7167400000001 1474.7814000000003 933.5918 L 1551.9025000000004 856.27344 L 1401.5217000000005 708.1425800000001 L 1324.5002000000004 785.4277300000001 C 1296.7999000000004 770.1087700000002 1267.3539000000005 758.1453700000001 1236.8205000000005 749.7890600000001 L 1237.4533000000006 639.83203 L 1024.9045000000006 639.83203 Z M 0 0 M 1095.0839999999998 709.83203 L 1167.0507999999998 709.83203 L 1166.4960999999998 806.11523 L 1194.9218999999998 811.69336 C 1236.1942999999999 819.79239 1275.7524999999998 835.83275 1310.9374999999998 858.76562 L 1334.7616999999998 874.29492 L 1401.9784999999997 806.84961 L 1452.5956999999996 856.7109399999999 L 1385.2851999999996 924.19336 L 1401.4804999999997 948.09961 C 1425.2451999999996 983.9725 1441.0087999999996 1022.7495 1449.9081999999996 1062.6797 L 1455.7636999999995 1090.6914 L 1553.0448999999994 1090.0996 L 1553.0448999999994 1160.6895 L 1456.3065999999994 1161.2852 L 1450.7499999999995 1189.2969 C 1442.5901999999996 1230.4276 1426.5648999999996 1269.5910000000001 1403.4511999999995 1304.6953 L 1387.6483999999996 1328.7012000000002 L 1458.9061999999997 1398.9238000000003 L 1408.8202999999996 1449.2031000000002 L 1337.5546999999997 1378.9375000000002 L 1313.8651999999997 1394.6758000000002 C 1277.5899999999997 1418.3823000000002 1238.2405999999996 1434.7985 1198.5409999999997 1442.8867000000002 L 1170.3964999999996 1448.5078000000003 L 1170.3964999999996 1550.7227000000003 C 1151.1554999999996 1550.7697000000003 1130.1655999999996 1550.7397000000003 1099.0272999999995 1550.6957000000002 L 1098.9822999999994 1449.2465000000002 L 1070.7107999999994 1443.7250000000001 C 1029.3806999999995 1435.6542000000002 989.8875999999993 1419.6875000000002 954.7635699999994 1396.6586000000002 L 931.0096699999993 1381.0844000000002 L 859.4686499999993 1452.2953000000002 L 808.8436499999993 1402.5375000000001 L 880.4842799999993 1331.1762 L 864.1366199999993 1307.1723000000002 C 840.3497899999993 1271.3781000000001 824.6137199999993 1232.5600000000002 815.6991199999993 1192.6762 L 809.8495099999993 1164.7504000000001 L 710.2850599999994 1165.1059 L 710.2850599999994 1094.4457 L 809.3534199999993 1094.2641 L 814.9139599999993 1066.0961000000002 C 823.0235399999993 1025.0112000000001 839.0841299999993 985.8442300000002 862.1580999999993 950.8011800000002 L 877.9432599999993 926.8265700000002 L 808.3377899999994 858.0648500000002 L 858.4315399999994 807.6800900000002 L 928.1639599999994 876.5726700000001 L 951.8944299999994 860.7386800000002 C 988.2042899999993 836.9689600000002 1026.7352999999994 821.1972900000002 1067.3748999999993 812.4242300000002 L 1095.3357999999994 806.6195400000001 L 1095.0838999999994 709.8324300000002 Z M 0 0 M 1132.2499999999998 967.03516 C 1045.6030999999998 967.03516 974.6113299999997 1038.0288 974.6113299999997 1124.6758 C 974.6113299999997 1211.3228 1045.6030999999998 1282.3125 1132.2499999999998 1282.3125 C 1218.8968999999997 1282.3125 1289.8886999999997 1211.3228 1289.8886999999997 1124.6758 C 1289.8886999999997 1038.0288 1218.8968999999997 967.03516 1132.2499999999998 967.03516 Z M 0 0 M 1132.2499999999998 1037.0352 C 1181.0661999999998 1037.0352 1219.8886999999997 1075.8597 1219.8886999999997 1124.6758 C 1219.8886999999997 1173.4919 1181.0661999999998 1212.3125 1132.2499999999998 1212.3125 C 1083.4337999999998 1212.3125 1044.6132999999998 1173.4919 1044.6132999999998 1124.6758 C 1044.6132999999998 1075.8597 1083.4337999999998 1037.0352 1132.2499999999998 1037.0352 Z"/></g><g transform="matrix(1,0,0,1,0,0)"><path fill="none" stroke="black" id="_8A60E1DA-099B-4091-86B4-4A2FBDC7A691_task__Gqa1__z9cM" paint-order="fill stroke markers" d=" M 0 0 M 825.74609 438.17383 C 825.69979 475.1723 825.75629 512.17163 825.85156 549.16992 C 794.29829 558.09661 765.46524 570.55412 738.23633 585.8144500000001 L 658.6542999999999 507.1894500000001 L 509.8476599999999 656.85742 L 589.42383 735.46875 C 574.05216 763.02029 562.0487099999999 792.29945 553.67188 822.7109399999999 L 440.94727 822.9160199999999 L 440.94727 1033.7051 L 554.84961 1033.2948999999999 C 565.26551 1074.5932999999998 587.93422 1111.7200999999998 610.51172 1144.918 L 610.51172 963.0937499999999 L 510.94727 963.4511699999999 L 510.94727 892.78906 L 610.01562 892.60938 L 615.57617 864.4375 C 623.68569 823.35291 639.74603 784.18805 662.8203100000001 749.14453 L 678.6054700000001 725.17188 L 609.0019500000001 656.41016 L 659.0957000000001 606.02539 L 728.82617 674.91797 L 752.55664 659.0820299999999 C 788.8205 635.15649 828.48451 619.1185099999999 868.03711 610.7656199999999 L 895.99609 604.9609399999999 L 895.74609 508.1757799999999 L 967.71289 508.1757799999999 L 967.15625 604.4570299999999 L 995.58398 604.4570299999999 L 1155.9902 604.4570299999999 C 1138.2767999999999 583.3133799999999 1064.8698 555.7993799999999 1037.4823999999999 548.13281 L 1038.1172 438.1757799999999 C 959.7171599999999 438.1737799999999 898.2517399999999 438.17977999999994 825.7460899999999 438.1737799999999 Z M 0 0 M 1024.9043 639.83203 L 1025.1914 750.82422 C 993.6369799999999 759.75091 964.80383 772.20673 937.57422 787.46875 L 857.99023 708.84375 L 709.18359 858.51172 L 788.76172 937.1230499999999 C 773.38937 964.67608 761.3846199999999 993.9542999999999 753.00781 1024.3672 L 640.2851599999999 1024.5702999999999 L 640.2851599999999 1235.3593999999998 L 754.1855499999999 1234.9511999999997 C 763.1509799999999 1266.2081999999998 775.5796899999999 1294.7509999999997 790.8105499999999 1321.6972999999998 L 709.3164099999999 1402.8729999999998 L 859.7812499999999 1550.7519999999997 L 940.9824199999999 1469.9276999999997 C 968.7967199999999 1485.3723999999997 998.3629 1497.3636999999997 1029.0156 1505.7089999999998 L 1029.0686 1620.4218999999998 C 1101.4603 1621.0557 1178.5356000000002 1620.7291999999998 1240.4045 1620.7226999999998 L 1240.4045 1504.6522999999997 C 1271.9823000000001 1495.7484999999997 1300.9055 1483.2013999999997 1328.1408000000001 1467.9472999999998 L 1409.2756000000002 1547.9433999999999 L 1558.1799 1398.4629 L 1476.8752000000002 1318.3398 C 1492.2822 1290.7142 1504.2876 1261.3861 1512.6740000000002 1230.9414 L 1623.0529000000001 1230.2598 L 1623.0529000000001 1019.6738 L 1511.4357000000002 1020.3535 C 1502.4633000000001 989.0665200000001 1490.2144000000003 960.7167400000001 1474.7814000000003 933.5918 L 1551.9025000000004 856.27344 L 1401.5217000000005 708.1425800000001 L 1324.5002000000004 785.4277300000001 C 1296.7999000000004 770.1087700000002 1267.3539000000005 758.1453700000001 1236.8205000000005 749.7890600000001 L 1237.4533000000006 639.83203 L 1024.9045000000006 639.83203 Z M 0 0 M 1095.0839999999998 709.83203 L 1167.0507999999998 709.83203 L 1166.4960999999998 806.11523 L 1194.9218999999998 811.69336 C 1236.1942999999999 819.79239 1275.7524999999998 835.83275 1310.9374999999998 858.76562 L 1334.7616999999998 874.29492 L 1401.9784999999997 806.84961 L 1452.5956999999996 856.7109399999999 L 1385.2851999999996 924.19336 L 1401.4804999999997 948.09961 C 1425.2451999999996 983.9725 1441.0087999999996 1022.7495 1449.9081999999996 1062.6797 L 1455.7636999999995 1090.6914 L 1553.0448999999994 1090.0996 L 1553.0448999999994 1160.6895 L 1456.3065999999994 1161.2852 L 1450.7499999999995 1189.2969 C 1442.5901999999996 1230.4276 1426.5648999999996 1269.5910000000001 1403.4511999999995 1304.6953 L 1387.6483999999996 1328.7012000000002 L 1458.9061999999997 1398.9238000000003 L 1408.8202999999996 1449.2031000000002 L 1337.5546999999997 1378.9375000000002 L 1313.8651999999997 1394.6758000000002 C 1277.5899999999997 1418.3823000000002 1238.2405999999996 1434.7985 1198.5409999999997 1442.8867000000002 L 1170.3964999999996 1448.5078000000003 L 1170.3964999999996 1550.7227000000003 C 1151.1554999999996 1550.7697000000003 1130.1655999999996 1550.7397000000003 1099.0272999999995 1550.6957000000002 L 1098.9822999999994 1449.2465000000002 L 1070.7107999999994 1443.7250000000001 C 1029.3806999999995 1435.6542000000002 989.8875999999993 1419.6875000000002 954.7635699999994 1396.6586000000002 L 931.0096699999993 1381.0844000000002 L 859.4686499999993 1452.2953000000002 L 808.8436499999993 1402.5375000000001 L 880.4842799999993 1331.1762 L 864.1366199999993 1307.1723000000002 C 840.3497899999993 1271.3781000000001 824.6137199999993 1232.5600000000002 815.6991199999993 1192.6762 L 809.8495099999993 1164.7504000000001 L 710.2850599999994 1165.1059 L 710.2850599999994 1094.4457 L 809.3534199999993 1094.2641 L 814.9139599999993 1066.0961000000002 C 823.0235399999993 1025.0112000000001 839.0841299999993 985.8442300000002 862.1580999999993 950.8011800000002 L 877.9432599999993 926.8265700000002 L 808.3377899999994 858.0648500000002 L 858.4315399999994 807.6800900000002 L 928.1639599999994 876.5726700000001 L 951.8944299999994 860.7386800000002 C 988.2042899999993 836.9689600000002 1026.7352999999994 821.1972900000002 1067.3748999999993 812.4242300000002 L 1095.3357999999994 806.6195400000001 L 1095.0838999999994 709.8324300000002 Z M 0 0 M 1132.2499999999998 967.03516 C 1045.6030999999998 967.03516 974.6113299999997 1038.0288 974.6113299999997 1124.6758 C 974.6113299999997 1211.3228 1045.6030999999998 1282.3125 1132.2499999999998 1282.3125 C 1218.8968999999997 1282.3125 1289.8886999999997 1211.3228 1289.8886999999997 1124.6758 C 1289.8886999999997 1038.0288 1218.8968999999997 967.03516 1132.2499999999998 967.03516 Z M 0 0 M 1132.2499999999998 1037.0352 C 1181.0661999999998 1037.0352 1219.8886999999997 1075.8597 1219.8886999999997 1124.6758 C 1219.8886999999997 1173.4919 1181.0661999999998 1212.3125 1132.2499999999998 1212.3125 C 1083.4337999999998 1212.3125 1044.6132999999998 1173.4919 1044.6132999999998 1124.6758 C 1044.6132999999998 1075.8597 1083.4337999999998 1037.0352 1132.2499999999998 1037.0352 Z" stroke-miterlimit="10" stroke-dasharray=""/></g><g transform="matrix(1,0,0,1,0,0)"><path fill="#393f44" stroke="none" id="_8A60E1DA-099B-4091-86B4-4A2FBDC7A691_task__Gqa1__qqw2" paint-order="stroke fill markers" d=" M 0 0 M 825.74609 438.17383 C 825.69979 475.1723 825.75629 512.17163 825.85156 549.16992 C 794.29829 558.09661 765.46524 570.55412 738.23633 585.8144500000001 L 658.6542999999999 507.1894500000001 L 509.8476599999999 656.85742 L 589.42383 735.46875 C 574.05216 763.02029 562.0487099999999 792.29945 553.67188 822.7109399999999 L 440.94727 822.9160199999999 L 440.94727 1033.7051 L 554.84961 1033.2948999999999 C 565.26551 1074.5932999999998 587.93422 1111.7200999999998 610.51172 1144.918 L 610.51172 963.0937499999999 L 510.94727 963.4511699999999 L 510.94727 892.78906 L 610.01562 892.60938 L 615.57617 864.4375 C 623.68569 823.35291 639.74603 784.18805 662.8203100000001 749.14453 L 678.6054700000001 725.17188 L 609.0019500000001 656.41016 L 659.0957000000001 606.02539 L 728.82617 674.91797 L 752.55664 659.0820299999999 C 788.8205 635.15649 828.48451 619.1185099999999 868.03711 610.7656199999999 L 895.99609 604.9609399999999 L 895.74609 508.1757799999999 L 967.71289 508.1757799999999 L 967.15625 604.4570299999999 L 995.58398 604.4570299999999 L 1155.9902 604.4570299999999 C 1138.2767999999999 583.3133799999999 1064.8698 555.7993799999999 1037.4823999999999 548.13281 L 1038.1172 438.1757799999999 C 959.7171599999999 438.1737799999999 898.2517399999999 438.17977999999994 825.7460899999999 438.1737799999999 Z M 0 0 M 1024.9043 639.83203 L 1025.1914 750.82422 C 993.6369799999999 759.75091 964.80383 772.20673 937.57422 787.46875 L 857.99023 708.84375 L 709.18359 858.51172 L 788.76172 937.1230499999999 C 773.38937 964.67608 761.3846199999999 993.9542999999999 753.00781 1024.3672 L 640.2851599999999 1024.5702999999999 L 640.2851599999999 1235.3593999999998 L 754.1855499999999 1234.9511999999997 C 763.1509799999999 1266.2081999999998 775.5796899999999 1294.7509999999997 790.8105499999999 1321.6972999999998 L 709.3164099999999 1402.8729999999998 L 859.7812499999999 1550.7519999999997 L 940.9824199999999 1469.9276999999997 C 968.7967199999999 1485.3723999999997 998.3629 1497.3636999999997 1029.0156 1505.7089999999998 L 1029.0686 1620.4218999999998 C 1101.4603 1621.0557 1178.5356000000002 1620.7291999999998 1240.4045 1620.7226999999998 L 1240.4045 1504.6522999999997 C 1271.9823000000001 1495.7484999999997 1300.9055 1483.2013999999997 1328.1408000000001 1467.9472999999998 L 1409.2756000000002 1547.9433999999999 L 1558.1799 1398.4629 L 1476.8752000000002 1318.3398 C 1492.2822 1290.7142 1504.2876 1261.3861 1512.6740000000002 1230.9414 L 1623.0529000000001 1230.2598 L 1623.0529000000001 1019.6738 L 1511.4357000000002 1020.3535 C 1502.4633000000001 989.0665200000001 1490.2144000000003 960.7167400000001 1474.7814000000003 933.5918 L 1551.9025000000004 856.27344 L 1401.5217000000005 708.1425800000001 L 1324.5002000000004 785.4277300000001 C 1296.7999000000004 770.1087700000002 1267.3539000000005 758.1453700000001 1236.8205000000005 749.7890600000001 L 1237.4533000000006 639.83203 L 1024.9045000000006 639.83203 Z M 0 0 M 1095.0839999999998 709.83203 L 1167.0507999999998 709.83203 L 1166.4960999999998 806.11523 L 1194.9218999999998 811.69336 C 1236.1942999999999 819.79239 1275.7524999999998 835.83275 1310.9374999999998 858.76562 L 1334.7616999999998 874.29492 L 1401.9784999999997 806.84961 L 1452.5956999999996 856.7109399999999 L 1385.2851999999996 924.19336 L 1401.4804999999997 948.09961 C 1425.2451999999996 983.9725 1441.0087999999996 1022.7495 1449.9081999999996 1062.6797 L 1455.7636999999995 1090.6914 L 1553.0448999999994 1090.0996 L 1553.0448999999994 1160.6895 L 1456.3065999999994 1161.2852 L 1450.7499999999995 1189.2969 C 1442.5901999999996 1230.4276 1426.5648999999996 1269.5910000000001 1403.4511999999995 1304.6953 L 1387.6483999999996 1328.7012000000002 L 1458.9061999999997 1398.9238000000003 L 1408.8202999999996 1449.2031000000002 L 1337.5546999999997 1378.9375000000002 L 1313.8651999999997 1394.6758000000002 C 1277.5899999999997 1418.3823000000002 1238.2405999999996 1434.7985 1198.5409999999997 1442.8867000000002 L 1170.3964999999996 1448.5078000000003 L 1170.3964999999996 1550.7227000000003 C 1151.1554999999996 1550.7697000000003 1130.1655999999996 1550.7397000000003 1099.0272999999995 1550.6957000000002 L 1098.9822999999994 1449.2465000000002 L 1070.7107999999994 1443.7250000000001 C 1029.3806999999995 1435.6542000000002 989.8875999999993 1419.6875000000002 954.7635699999994 1396.6586000000002 L 931.0096699999993 1381.0844000000002 L 859.4686499999993 1452.2953000000002 L 808.8436499999993 1402.5375000000001 L 880.4842799999993 1331.1762 L 864.1366199999993 1307.1723000000002 C 840.3497899999993 1271.3781000000001 824.6137199999993 1232.5600000000002 815.6991199999993 1192.6762 L 809.8495099999993 1164.7504000000001 L 710.2850599999994 1165.1059 L 710.2850599999994 1094.4457 L 809.3534199999993 1094.2641 L 814.9139599999993 1066.0961000000002 C 823.0235399999993 1025.0112000000001 839.0841299999993 985.8442300000002 862.1580999999993 950.8011800000002 L 877.9432599999993 926.8265700000002 L 808.3377899999994 858.0648500000002 L 858.4315399999994 807.6800900000002 L 928.1639599999994 876.5726700000001 L 951.8944299999994 860.7386800000002 C 988.2042899999993 836.9689600000002 1026.7352999999994 821.1972900000002 1067.3748999999993 812.4242300000002 L 1095.3357999999994 806.6195400000001 L 1095.0838999999994 709.8324300000002 Z M 0 0 M 1132.2499999999998 967.03516 C 1045.6030999999998 967.03516 974.6113299999997 1038.0288 974.6113299999997 1124.6758 C 974.6113299999997 1211.3228 1045.6030999999998 1282.3125 1132.2499999999998 1282.3125 C 1218.8968999999997 1282.3125 1289.8886999999997 1211.3228 1289.8886999999997 1124.6758 C 1289.8886999999997 1038.0288 1218.8968999999997 967.03516 1132.2499999999998 967.03516 Z M 0 0 M 1132.2499999999998 1037.0352 C 1181.0661999999998 1037.0352 1219.8886999999997 1075.8597 1219.8886999999997 1124.6758 C 1219.8886999999997 1173.4919 1181.0661999999998 1212.3125 1132.2499999999998 1212.3125 C 1083.4337999999998 1212.3125 1044.6132999999998 1173.4919 1044.6132999999998 1124.6758 C 1044.6132999999998 1075.8597 1083.4337999999998 1037.0352 1132.2499999999998 1037.0352 Z"/></g></g></g><g transform="matrix(1,0,0,1,35,28.49999237060547)"><text fill="#000000" stroke="none" font-family="Open Sans" font-size="12pt" font-style="normal" font-weight="normal" text-decoration="normal" x="45.234375" y="12" text-anchor="middle" dominant-baseline="alphabetic">  Registrar    </text><text fill="#000000" stroke="none" font-family="Open Sans" font-size="12pt" font-style="normal" font-weight="normal" text-decoration="normal" x="45.234375" y="27" text-anchor="middle" dominant-baseline="alphabetic">notificación </text><text fill="#000000" stroke="none" font-family="Open Sans" font-size="12pt" font-style="normal" font-weight="normal" text-decoration="normal" x="45.234375" y="42" text-anchor="middle" dominant-baseline="alphabetic">  en Causa   </text></g></g><g id="_711D0790-23A2-4FA4-ACEF-3D57B4631145" bpmn2nodeid="_711D0790-23A2-4FA4-ACEF-3D57B4631145" transform="matrix(1,0,0,1,1010,212.3333282470703)"><g><path fill="none" stroke="none"/></g><g transform="matrix(0.125,0,0,0.125,0,0)"><g transform="matrix(1,0,0,1,0,0)"><path fill="#fef4ea" stroke="none" id="_711D0790-23A2-4FA4-ACEF-3D57B4631145?shapeType=BACKGROUND" paint-order="stroke fill markers" d=" M 0 0 M 224.4 4.3 C 216.4 4.3 208.4 7.3 202.3 13.399999999999999 L 13.5 202.2 C 1.3000000000000007 214.39999999999998 1.3000000000000007 234.2 13.5 246.39999999999998 L 202.2 435.09999999999997 C 208.29999999999998 441.2 216.39999999999998 444.2 224.29999999999998 444.2 C 232.2 444.2 240.29999999999998 441.2 246.39999999999998 435.09999999999997 L 435.09999999999997 246.39999999999998 C 447.29999999999995 234.2 447.29999999999995 214.39999999999998 435.09999999999997 202.2 L 246.5 13.4 C 240.4 7.3 232.4 4.3 224.4 4.3 L 224.4 4.3 Z"/></g><g><g transform="matrix(1,0,0,1,0,0)"><g transform="matrix(1,0,0,1,0,0)"><path fill="#ec7a08" stroke="none" id="_711D0790-23A2-4FA4-ACEF-3D57B4631145?shapeType=BORDER&amp;renderType=FILL" paint-order="stroke fill markers" d=" M 0 0 M 20.8 212.7 L 213.3 20.2 C 219.60000000000002 13.899999999999999 229.70000000000002 13.899999999999999 235.9 20.2 L 428.4 212.7 C 434.7 219 434.7 229.1 428.4 235.29999999999998 L 235.9 427.8 C 229.6 434.1 219.5 434.1 213.3 427.8 L 20.8 235.3 C 14.5 229.1 14.5 218.9 20.8 212.7 L 20.8 212.7 Z M 0 0 M 0 224 C 0 232.1 3.1 240.3 9.3 246.5 L 201.5 438.7 C 213.9 451.09999999999997 234.1 451.09999999999997 246.5 438.7 L 438.7 246.5 C 444.9 240.3 448 232.1 448 224 C 448 215.9 444.9 207.7 438.7 201.5 L 246.5 9.3 C 234.1 -3.0999999999999996 213.9 -3.0999999999999996 201.5 9.3 L 9.3 201.5 C 3.1 207.7 0 215.9 0 224 L 0 224 Z"/></g></g></g><g><g transform="matrix(1,0,0,1,0,0)"><g transform="matrix(1,0,0,1,0,0)"><path fill="#ec7a08" stroke="none" id="_711D0790-23A2-4FA4-ACEF-3D57B4631145_exclusive" paint-order="stroke fill markers" d=" M 0 0 M 298.2 269.2 C 298.2 272.59999999999997 297.09999999999997 275.3 294.7 277.7 L 277.7 294.7 C 275.3 297.09999999999997 272.59999999999997 298.2 269.2 298.2 C 265.8 298.2 263.09999999999997 297.09999999999997 260.7 294.7 L 224 258 L 187.2 294.8 C 184.79999999999998 297.2 182.1 298.3 178.7 298.3 C 175.29999999999998 298.3 172.6 297.2 170.2 294.8 L 153.2 277.8 C 150.79999999999998 275.40000000000003 149.7 272.7 149.7 269.3 C 149.7 265.90000000000003 150.79999999999998 263.2 153.2 260.8 L 190 224 L 153.2 187.2 C 150.79999999999998 184.79999999999998 149.7 182 149.7 178.7 C 149.7 175.29999999999998 150.79999999999998 172.5 153.2 170.2 L 170.2 153.2 C 172.6 150.79999999999998 175.29999999999998 149.7 178.7 149.7 C 182.1 149.7 184.79999999999998 150.79999999999998 187.2 153.2 L 224 190 L 260.8 153.2 C 263.2 150.79999999999998 265.90000000000003 149.7 269.3 149.7 C 272.7 149.7 275.40000000000003 150.79999999999998 277.8 153.2 L 294.8 170.2 C 297.2 172.5 298.3 175.29999999999998 298.3 178.7 C 298.3 182 297.2 184.79999999999998 294.8 187.2 L 258 224 L 294.8 260.8 C 297.1 263.1 298.2 265.9 298.2 269.2 Z"/></g></g></g></g><g transform="matrix(1,0,0,1,-73.2734375,61)"><text fill="#000000" stroke="none" font-family="Open Sans" font-size="12pt" font-style="normal" font-weight="normal" text-decoration="normal" x="101.2734375" y="12" text-anchor="middle" dominant-baseline="alphabetic">Requiere activar evento de </text><text fill="#000000" stroke="none" font-family="Open Sans" font-size="12pt" font-style="normal" font-weight="normal" text-decoration="normal" x="101.2734375" y="27" text-anchor="middle" dominant-baseline="alphabetic">                 proceso                 </text></g></g><g id="_028E02A6-EF9B-4CE3-850B-1179BE9754C8" bpmn2nodeid="_028E02A6-EF9B-4CE3-850B-1179BE9754C8" transform="matrix(1,0,0,1,575.6666870117188,211.6666717529297)"><g><path fill="none" stroke="none"/></g><g transform="matrix(0.125,0,0,0.125,0,0)"><g transform="matrix(1,0,0,1,0,0)"><path fill="#fef4ea" stroke="none" id="_028E02A6-EF9B-4CE3-850B-1179BE9754C8?shapeType=BACKGROUND" paint-order="stroke fill markers" d=" M 0 0 M 224.4 4.3 C 216.4 4.3 208.4 7.3 202.3 13.399999999999999 L 13.5 202.2 C 1.3000000000000007 214.39999999999998 1.3000000000000007 234.2 13.5 246.39999999999998 L 202.2 435.09999999999997 C 208.29999999999998 441.2 216.39999999999998 444.2 224.29999999999998 444.2 C 232.2 444.2 240.29999999999998 441.2 246.39999999999998 435.09999999999997 L 435.09999999999997 246.39999999999998 C 447.29999999999995 234.2 447.29999999999995 214.39999999999998 435.09999999999997 202.2 L 246.5 13.4 C 240.4 7.3 232.4 4.3 224.4 4.3 L 224.4 4.3 Z"/></g><g><g transform="matrix(1,0,0,1,0,0)"><g transform="matrix(1,0,0,1,0,0)"><path fill="#ec7a08" stroke="none" id="_028E02A6-EF9B-4CE3-850B-1179BE9754C8?shapeType=BORDER&amp;renderType=FILL" paint-order="stroke fill markers" d=" M 0 0 M 20.8 212.7 L 213.3 20.2 C 219.60000000000002 13.899999999999999 229.70000000000002 13.899999999999999 235.9 20.2 L 428.4 212.7 C 434.7 219 434.7 229.1 428.4 235.29999999999998 L 235.9 427.8 C 229.6 434.1 219.5 434.1 213.3 427.8 L 20.8 235.3 C 14.5 229.1 14.5 218.9 20.8 212.7 L 20.8 212.7 Z M 0 0 M 0 224 C 0 232.1 3.1 240.3 9.3 246.5 L 201.5 438.7 C 213.9 451.09999999999997 234.1 451.09999999999997 246.5 438.7 L 438.7 246.5 C 444.9 240.3 448 232.1 448 224 C 448 215.9 444.9 207.7 438.7 201.5 L 246.5 9.3 C 234.1 -3.0999999999999996 213.9 -3.0999999999999996 201.5 9.3 L 9.3 201.5 C 3.1 207.7 0 215.9 0 224 L 0 224 Z"/></g></g></g><g><g transform="matrix(1,0,0,1,0,0)"><g transform="matrix(1,0,0,1,0,0)"><path fill="#ec7a08" stroke="none" id="_028E02A6-EF9B-4CE3-850B-1179BE9754C8_exclusive" paint-order="stroke fill markers" d=" M 0 0 M 298.2 269.2 C 298.2 272.59999999999997 297.09999999999997 275.3 294.7 277.7 L 277.7 294.7 C 275.3 297.09999999999997 272.59999999999997 298.2 269.2 298.2 C 265.8 298.2 263.09999999999997 297.09999999999997 260.7 294.7 L 224 258 L 187.2 294.8 C 184.79999999999998 297.2 182.1 298.3 178.7 298.3 C 175.29999999999998 298.3 172.6 297.2 170.2 294.8 L 153.2 277.8 C 150.79999999999998 275.40000000000003 149.7 272.7 149.7 269.3 C 149.7 265.90000000000003 150.79999999999998 263.2 153.2 260.8 L 190 224 L 153.2 187.2 C 150.79999999999998 184.79999999999998 149.7 182 149.7 178.7 C 149.7 175.29999999999998 150.79999999999998 172.5 153.2 170.2 L 170.2 153.2 C 172.6 150.79999999999998 175.29999999999998 149.7 178.7 149.7 C 182.1 149.7 184.79999999999998 150.79999999999998 187.2 153.2 L 224 190 L 260.8 153.2 C 263.2 150.79999999999998 265.90000000000003 149.7 269.3 149.7 C 272.7 149.7 275.40000000000003 150.79999999999998 277.8 153.2 L 294.8 170.2 C 297.2 172.5 298.3 175.29999999999998 298.3 178.7 C 298.3 182 297.2 184.79999999999998 294.8 187.2 L 258 224 L 294.8 260.8 C 297.1 263.1 298.2 265.9 298.2 269.2 Z"/></g></g></g></g><g transform="matrix(1,0,0,1,-60.96875,61)"><text fill="#000000" stroke="none" font-family="Open Sans" font-size="12pt" font-style="normal" font-weight="normal" text-decoration="normal" x="88.96875" y="12" text-anchor="middle" dominant-baseline="alphabetic">Informar notificación al </text><text fill="#000000" stroke="none" font-family="Open Sans" font-size="12pt" font-style="normal" font-weight="normal" text-decoration="normal" x="88.96875" y="27" text-anchor="middle" dominant-baseline="alphabetic">                fiscal?                </text></g></g><g id="_78EB0FAE-E4EC-4EE5-A0C3-3A06AB29E4A7" bpmn2nodeid="_78EB0FAE-E4EC-4EE5-A0C3-3A06AB29E4A7" transform="matrix(1,0,0,1,719,189.3333282470703)"><g><path fill="none" stroke="none"/></g><g transform="matrix(1,0,0,1,0,0)"><path fill="#ffffff" stroke="none" id="_78EB0FAE-E4EC-4EE5-A0C3-3A06AB29E4A7?shapeType=BACKGROUND" paint-order="stroke fill markers" d=" M 2 0 L 152 0 L 152 0 A 2 2 0 0 1 154 2 L 154 100.00001525878906 L 154 100.00001525878906 A 2 2 0 0 1 152 102.00001525878906 L 2 102.00001525878906 L 2 102.00001525878906 A 2 2 0 0 1 0 100.00001525878906 L 0 2 L 0 2.0000000000000004 A 2 2 0 0 1 1.9999999999999996 0 Z"/></g><g transform="matrix(1,0,0,1,0,0)"><path fill="none" stroke="rgb(0,0,0)" id="_78EB0FAE-E4EC-4EE5-A0C3-3A06AB29E4A7?shapeType=BORDER&amp;renderType=STROKE" paint-order="fill stroke markers" d=" M 2 0 L 152 0 L 152 0 A 2 2 0 0 1 154 2 L 154 100.00001525878906 L 154 100.00001525878906 A 2 2 0 0 1 152 102.00001525878906 L 2 102.00001525878906 L 2 102.00001525878906 A 2 2 0 0 1 0 100.00001525878906 L 0 2 L 0 2.0000000000000004 A 2 2 0 0 1 1.9999999999999996 0 Z" stroke-miterlimit="10" stroke-width="1.5" stroke-dasharray=""/></g><g><g transform="matrix(0.02,0,0,0.02,1.96,1.96)"><g transform="matrix(1,0,0,1,0,0)"><path fill="#393f44" stroke="none" id="_78EB0FAE-E4EC-4EE5-A0C3-3A06AB29E4A7_task__Gqa1__QdBp" paint-order="stroke fill markers" d=" M 0 0 M 825.74609 438.17383 C 825.69979 475.1723 825.75629 512.17163 825.85156 549.16992 C 794.29829 558.09661 765.46524 570.55412 738.23633 585.8144500000001 L 658.6542999999999 507.1894500000001 L 509.8476599999999 656.85742 L 589.42383 735.46875 C 574.05216 763.02029 562.0487099999999 792.29945 553.67188 822.7109399999999 L 440.94727 822.9160199999999 L 440.94727 1033.7051 L 554.84961 1033.2948999999999 C 565.26551 1074.5932999999998 587.93422 1111.7200999999998 610.51172 1144.918 L 610.51172 963.0937499999999 L 510.94727 963.4511699999999 L 510.94727 892.78906 L 610.01562 892.60938 L 615.57617 864.4375 C 623.68569 823.35291 639.74603 784.18805 662.8203100000001 749.14453 L 678.6054700000001 725.17188 L 609.0019500000001 656.41016 L 659.0957000000001 606.02539 L 728.82617 674.91797 L 752.55664 659.0820299999999 C 788.8205 635.15649 828.48451 619.1185099999999 868.03711 610.7656199999999 L 895.99609 604.9609399999999 L 895.74609 508.1757799999999 L 967.71289 508.1757799999999 L 967.15625 604.4570299999999 L 995.58398 604.4570299999999 L 1155.9902 604.4570299999999 C 1138.2767999999999 583.3133799999999 1064.8698 555.7993799999999 1037.4823999999999 548.13281 L 1038.1172 438.1757799999999 C 959.7171599999999 438.1737799999999 898.2517399999999 438.17977999999994 825.7460899999999 438.1737799999999 Z M 0 0 M 1024.9043 639.83203 L 1025.1914 750.82422 C 993.6369799999999 759.75091 964.80383 772.20673 937.57422 787.46875 L 857.99023 708.84375 L 709.18359 858.51172 L 788.76172 937.1230499999999 C 773.38937 964.67608 761.3846199999999 993.9542999999999 753.00781 1024.3672 L 640.2851599999999 1024.5702999999999 L 640.2851599999999 1235.3593999999998 L 754.1855499999999 1234.9511999999997 C 763.1509799999999 1266.2081999999998 775.5796899999999 1294.7509999999997 790.8105499999999 1321.6972999999998 L 709.3164099999999 1402.8729999999998 L 859.7812499999999 1550.7519999999997 L 940.9824199999999 1469.9276999999997 C 968.7967199999999 1485.3723999999997 998.3629 1497.3636999999997 1029.0156 1505.7089999999998 L 1029.0686 1620.4218999999998 C 1101.4603 1621.0557 1178.5356000000002 1620.7291999999998 1240.4045 1620.7226999999998 L 1240.4045 1504.6522999999997 C 1271.9823000000001 1495.7484999999997 1300.9055 1483.2013999999997 1328.1408000000001 1467.9472999999998 L 1409.2756000000002 1547.9433999999999 L 1558.1799 1398.4629 L 1476.8752000000002 1318.3398 C 1492.2822 1290.7142 1504.2876 1261.3861 1512.6740000000002 1230.9414 L 1623.0529000000001 1230.2598 L 1623.0529000000001 1019.6738 L 1511.4357000000002 1020.3535 C 1502.4633000000001 989.0665200000001 1490.2144000000003 960.7167400000001 1474.7814000000003 933.5918 L 1551.9025000000004 856.27344 L 1401.5217000000005 708.1425800000001 L 1324.5002000000004 785.4277300000001 C 1296.7999000000004 770.1087700000002 1267.3539000000005 758.1453700000001 1236.8205000000005 749.7890600000001 L 1237.4533000000006 639.83203 L 1024.9045000000006 639.83203 Z M 0 0 M 1095.0839999999998 709.83203 L 1167.0507999999998 709.83203 L 1166.4960999999998 806.11523 L 1194.9218999999998 811.69336 C 1236.1942999999999 819.79239 1275.7524999999998 835.83275 1310.9374999999998 858.76562 L 1334.7616999999998 874.29492 L 1401.9784999999997 806.84961 L 1452.5956999999996 856.7109399999999 L 1385.2851999999996 924.19336 L 1401.4804999999997 948.09961 C 1425.2451999999996 983.9725 1441.0087999999996 1022.7495 1449.9081999999996 1062.6797 L 1455.7636999999995 1090.6914 L 1553.0448999999994 1090.0996 L 1553.0448999999994 1160.6895 L 1456.3065999999994 1161.2852 L 1450.7499999999995 1189.2969 C 1442.5901999999996 1230.4276 1426.5648999999996 1269.5910000000001 1403.4511999999995 1304.6953 L 1387.6483999999996 1328.7012000000002 L 1458.9061999999997 1398.9238000000003 L 1408.8202999999996 1449.2031000000002 L 1337.5546999999997 1378.9375000000002 L 1313.8651999999997 1394.6758000000002 C 1277.5899999999997 1418.3823000000002 1238.2405999999996 1434.7985 1198.5409999999997 1442.8867000000002 L 1170.3964999999996 1448.5078000000003 L 1170.3964999999996 1550.7227000000003 C 1151.1554999999996 1550.7697000000003 1130.1655999999996 1550.7397000000003 1099.0272999999995 1550.6957000000002 L 1098.9822999999994 1449.2465000000002 L 1070.7107999999994 1443.7250000000001 C 1029.3806999999995 1435.6542000000002 989.8875999999993 1419.6875000000002 954.7635699999994 1396.6586000000002 L 931.0096699999993 1381.0844000000002 L 859.4686499999993 1452.2953000000002 L 808.8436499999993 1402.5375000000001 L 880.4842799999993 1331.1762 L 864.1366199999993 1307.1723000000002 C 840.3497899999993 1271.3781000000001 824.6137199999993 1232.5600000000002 815.6991199999993 1192.6762 L 809.8495099999993 1164.7504000000001 L 710.2850599999994 1165.1059 L 710.2850599999994 1094.4457 L 809.3534199999993 1094.2641 L 814.9139599999993 1066.0961000000002 C 823.0235399999993 1025.0112000000001 839.0841299999993 985.8442300000002 862.1580999999993 950.8011800000002 L 877.9432599999993 926.8265700000002 L 808.3377899999994 858.0648500000002 L 858.4315399999994 807.6800900000002 L 928.1639599999994 876.5726700000001 L 951.8944299999994 860.7386800000002 C 988.2042899999993 836.9689600000002 1026.7352999999994 821.1972900000002 1067.3748999999993 812.4242300000002 L 1095.3357999999994 806.6195400000001 L 1095.0838999999994 709.8324300000002 Z M 0 0 M 1132.2499999999998 967.03516 C 1045.6030999999998 967.03516 974.6113299999997 1038.0288 974.6113299999997 1124.6758 C 974.6113299999997 1211.3228 1045.6030999999998 1282.3125 1132.2499999999998 1282.3125 C 1218.8968999999997 1282.3125 1289.8886999999997 1211.3228 1289.8886999999997 1124.6758 C 1289.8886999999997 1038.0288 1218.8968999999997 967.03516 1132.2499999999998 967.03516 Z M 0 0 M 1132.2499999999998 1037.0352 C 1181.0661999999998 1037.0352 1219.8886999999997 1075.8597 1219.8886999999997 1124.6758 C 1219.8886999999997 1173.4919 1181.0661999999998 1212.3125 1132.2499999999998 1212.3125 C 1083.4337999999998 1212.3125 1044.6132999999998 1173.4919 1044.6132999999998 1124.6758 C 1044.6132999999998 1075.8597 1083.4337999999998 1037.0352 1132.2499999999998 1037.0352 Z"/></g><g transform="matrix(1,0,0,1,0,0)"><path fill="none" stroke="black" id="_78EB0FAE-E4EC-4EE5-A0C3-3A06AB29E4A7_task__Gqa1__z9cM" paint-order="fill stroke markers" d=" M 0 0 M 825.74609 438.17383 C 825.69979 475.1723 825.75629 512.17163 825.85156 549.16992 C 794.29829 558.09661 765.46524 570.55412 738.23633 585.8144500000001 L 658.6542999999999 507.1894500000001 L 509.8476599999999 656.85742 L 589.42383 735.46875 C 574.05216 763.02029 562.0487099999999 792.29945 553.67188 822.7109399999999 L 440.94727 822.9160199999999 L 440.94727 1033.7051 L 554.84961 1033.2948999999999 C 565.26551 1074.5932999999998 587.93422 1111.7200999999998 610.51172 1144.918 L 610.51172 963.0937499999999 L 510.94727 963.4511699999999 L 510.94727 892.78906 L 610.01562 892.60938 L 615.57617 864.4375 C 623.68569 823.35291 639.74603 784.18805 662.8203100000001 749.14453 L 678.6054700000001 725.17188 L 609.0019500000001 656.41016 L 659.0957000000001 606.02539 L 728.82617 674.91797 L 752.55664 659.0820299999999 C 788.8205 635.15649 828.48451 619.1185099999999 868.03711 610.7656199999999 L 895.99609 604.9609399999999 L 895.74609 508.1757799999999 L 967.71289 508.1757799999999 L 967.15625 604.4570299999999 L 995.58398 604.4570299999999 L 1155.9902 604.4570299999999 C 1138.2767999999999 583.3133799999999 1064.8698 555.7993799999999 1037.4823999999999 548.13281 L 1038.1172 438.1757799999999 C 959.7171599999999 438.1737799999999 898.2517399999999 438.17977999999994 825.7460899999999 438.1737799999999 Z M 0 0 M 1024.9043 639.83203 L 1025.1914 750.82422 C 993.6369799999999 759.75091 964.80383 772.20673 937.57422 787.46875 L 857.99023 708.84375 L 709.18359 858.51172 L 788.76172 937.1230499999999 C 773.38937 964.67608 761.3846199999999 993.9542999999999 753.00781 1024.3672 L 640.2851599999999 1024.5702999999999 L 640.2851599999999 1235.3593999999998 L 754.1855499999999 1234.9511999999997 C 763.1509799999999 1266.2081999999998 775.5796899999999 1294.7509999999997 790.8105499999999 1321.6972999999998 L 709.3164099999999 1402.8729999999998 L 859.7812499999999 1550.7519999999997 L 940.9824199999999 1469.9276999999997 C 968.7967199999999 1485.3723999999997 998.3629 1497.3636999999997 1029.0156 1505.7089999999998 L 1029.0686 1620.4218999999998 C 1101.4603 1621.0557 1178.5356000000002 1620.7291999999998 1240.4045 1620.7226999999998 L 1240.4045 1504.6522999999997 C 1271.9823000000001 1495.7484999999997 1300.9055 1483.2013999999997 1328.1408000000001 1467.9472999999998 L 1409.2756000000002 1547.9433999999999 L 1558.1799 1398.4629 L 1476.8752000000002 1318.3398 C 1492.2822 1290.7142 1504.2876 1261.3861 1512.6740000000002 1230.9414 L 1623.0529000000001 1230.2598 L 1623.0529000000001 1019.6738 L 1511.4357000000002 1020.3535 C 1502.4633000000001 989.0665200000001 1490.2144000000003 960.7167400000001 1474.7814000000003 933.5918 L 1551.9025000000004 856.27344 L 1401.5217000000005 708.1425800000001 L 1324.5002000000004 785.4277300000001 C 1296.7999000000004 770.1087700000002 1267.3539000000005 758.1453700000001 1236.8205000000005 749.7890600000001 L 1237.4533000000006 639.83203 L 1024.9045000000006 639.83203 Z M 0 0 M 1095.0839999999998 709.83203 L 1167.0507999999998 709.83203 L 1166.4960999999998 806.11523 L 1194.9218999999998 811.69336 C 1236.1942999999999 819.79239 1275.7524999999998 835.83275 1310.9374999999998 858.76562 L 1334.7616999999998 874.29492 L 1401.9784999999997 806.84961 L 1452.5956999999996 856.7109399999999 L 1385.2851999999996 924.19336 L 1401.4804999999997 948.09961 C 1425.2451999999996 983.9725 1441.0087999999996 1022.7495 1449.9081999999996 1062.6797 L 1455.7636999999995 1090.6914 L 1553.0448999999994 1090.0996 L 1553.0448999999994 1160.6895 L 1456.3065999999994 1161.2852 L 1450.7499999999995 1189.2969 C 1442.5901999999996 1230.4276 1426.5648999999996 1269.5910000000001 1403.4511999999995 1304.6953 L 1387.6483999999996 1328.7012000000002 L 1458.9061999999997 1398.9238000000003 L 1408.8202999999996 1449.2031000000002 L 1337.5546999999997 1378.9375000000002 L 1313.8651999999997 1394.6758000000002 C 1277.5899999999997 1418.3823000000002 1238.2405999999996 1434.7985 1198.5409999999997 1442.8867000000002 L 1170.3964999999996 1448.5078000000003 L 1170.3964999999996 1550.7227000000003 C 1151.1554999999996 1550.7697000000003 1130.1655999999996 1550.7397000000003 1099.0272999999995 1550.6957000000002 L 1098.9822999999994 1449.2465000000002 L 1070.7107999999994 1443.7250000000001 C 1029.3806999999995 1435.6542000000002 989.8875999999993 1419.6875000000002 954.7635699999994 1396.6586000000002 L 931.0096699999993 1381.0844000000002 L 859.4686499999993 1452.2953000000002 L 808.8436499999993 1402.5375000000001 L 880.4842799999993 1331.1762 L 864.1366199999993 1307.1723000000002 C 840.3497899999993 1271.3781000000001 824.6137199999993 1232.5600000000002 815.6991199999993 1192.6762 L 809.8495099999993 1164.7504000000001 L 710.2850599999994 1165.1059 L 710.2850599999994 1094.4457 L 809.3534199999993 1094.2641 L 814.9139599999993 1066.0961000000002 C 823.0235399999993 1025.0112000000001 839.0841299999993 985.8442300000002 862.1580999999993 950.8011800000002 L 877.9432599999993 926.8265700000002 L 808.3377899999994 858.0648500000002 L 858.4315399999994 807.6800900000002 L 928.1639599999994 876.5726700000001 L 951.8944299999994 860.7386800000002 C 988.2042899999993 836.9689600000002 1026.7352999999994 821.1972900000002 1067.3748999999993 812.4242300000002 L 1095.3357999999994 806.6195400000001 L 1095.0838999999994 709.8324300000002 Z M 0 0 M 1132.2499999999998 967.03516 C 1045.6030999999998 967.03516 974.6113299999997 1038.0288 974.6113299999997 1124.6758 C 974.6113299999997 1211.3228 1045.6030999999998 1282.3125 1132.2499999999998 1282.3125 C 1218.8968999999997 1282.3125 1289.8886999999997 1211.3228 1289.8886999999997 1124.6758 C 1289.8886999999997 1038.0288 1218.8968999999997 967.03516 1132.2499999999998 967.03516 Z M 0 0 M 1132.2499999999998 1037.0352 C 1181.0661999999998 1037.0352 1219.8886999999997 1075.8597 1219.8886999999997 1124.6758 C 1219.8886999999997 1173.4919 1181.0661999999998 1212.3125 1132.2499999999998 1212.3125 C 1083.4337999999998 1212.3125 1044.6132999999998 1173.4919 1044.6132999999998 1124.6758 C 1044.6132999999998 1075.8597 1083.4337999999998 1037.0352 1132.2499999999998 1037.0352 Z" stroke-miterlimit="10" stroke-dasharray=""/></g><g transform="matrix(1,0,0,1,0,0)"><path fill="#393f44" stroke="none" id="_78EB0FAE-E4EC-4EE5-A0C3-3A06AB29E4A7_task__Gqa1__qqw2" paint-order="stroke fill markers" d=" M 0 0 M 825.74609 438.17383 C 825.69979 475.1723 825.75629 512.17163 825.85156 549.16992 C 794.29829 558.09661 765.46524 570.55412 738.23633 585.8144500000001 L 658.6542999999999 507.1894500000001 L 509.8476599999999 656.85742 L 589.42383 735.46875 C 574.05216 763.02029 562.0487099999999 792.29945 553.67188 822.7109399999999 L 440.94727 822.9160199999999 L 440.94727 1033.7051 L 554.84961 1033.2948999999999 C 565.26551 1074.5932999999998 587.93422 1111.7200999999998 610.51172 1144.918 L 610.51172 963.0937499999999 L 510.94727 963.4511699999999 L 510.94727 892.78906 L 610.01562 892.60938 L 615.57617 864.4375 C 623.68569 823.35291 639.74603 784.18805 662.8203100000001 749.14453 L 678.6054700000001 725.17188 L 609.0019500000001 656.41016 L 659.0957000000001 606.02539 L 728.82617 674.91797 L 752.55664 659.0820299999999 C 788.8205 635.15649 828.48451 619.1185099999999 868.03711 610.7656199999999 L 895.99609 604.9609399999999 L 895.74609 508.1757799999999 L 967.71289 508.1757799999999 L 967.15625 604.4570299999999 L 995.58398 604.4570299999999 L 1155.9902 604.4570299999999 C 1138.2767999999999 583.3133799999999 1064.8698 555.7993799999999 1037.4823999999999 548.13281 L 1038.1172 438.1757799999999 C 959.7171599999999 438.1737799999999 898.2517399999999 438.17977999999994 825.7460899999999 438.1737799999999 Z M 0 0 M 1024.9043 639.83203 L 1025.1914 750.82422 C 993.6369799999999 759.75091 964.80383 772.20673 937.57422 787.46875 L 857.99023 708.84375 L 709.18359 858.51172 L 788.76172 937.1230499999999 C 773.38937 964.67608 761.3846199999999 993.9542999999999 753.00781 1024.3672 L 640.2851599999999 1024.5702999999999 L 640.2851599999999 1235.3593999999998 L 754.1855499999999 1234.9511999999997 C 763.1509799999999 1266.2081999999998 775.5796899999999 1294.7509999999997 790.8105499999999 1321.6972999999998 L 709.3164099999999 1402.8729999999998 L 859.7812499999999 1550.7519999999997 L 940.9824199999999 1469.9276999999997 C 968.7967199999999 1485.3723999999997 998.3629 1497.3636999999997 1029.0156 1505.7089999999998 L 1029.0686 1620.4218999999998 C 1101.4603 1621.0557 1178.5356000000002 1620.7291999999998 1240.4045 1620.7226999999998 L 1240.4045 1504.6522999999997 C 1271.9823000000001 1495.7484999999997 1300.9055 1483.2013999999997 1328.1408000000001 1467.9472999999998 L 1409.2756000000002 1547.9433999999999 L 1558.1799 1398.4629 L 1476.8752000000002 1318.3398 C 1492.2822 1290.7142 1504.2876 1261.3861 1512.6740000000002 1230.9414 L 1623.0529000000001 1230.2598 L 1623.0529000000001 1019.6738 L 1511.4357000000002 1020.3535 C 1502.4633000000001 989.0665200000001 1490.2144000000003 960.7167400000001 1474.7814000000003 933.5918 L 1551.9025000000004 856.27344 L 1401.5217000000005 708.1425800000001 L 1324.5002000000004 785.4277300000001 C 1296.7999000000004 770.1087700000002 1267.3539000000005 758.1453700000001 1236.8205000000005 749.7890600000001 L 1237.4533000000006 639.83203 L 1024.9045000000006 639.83203 Z M 0 0 M 1095.0839999999998 709.83203 L 1167.0507999999998 709.83203 L 1166.4960999999998 806.11523 L 1194.9218999999998 811.69336 C 1236.1942999999999 819.79239 1275.7524999999998 835.83275 1310.9374999999998 858.76562 L 1334.7616999999998 874.29492 L 1401.9784999999997 806.84961 L 1452.5956999999996 856.7109399999999 L 1385.2851999999996 924.19336 L 1401.4804999999997 948.09961 C 1425.2451999999996 983.9725 1441.0087999999996 1022.7495 1449.9081999999996 1062.6797 L 1455.7636999999995 1090.6914 L 1553.0448999999994 1090.0996 L 1553.0448999999994 1160.6895 L 1456.3065999999994 1161.2852 L 1450.7499999999995 1189.2969 C 1442.5901999999996 1230.4276 1426.5648999999996 1269.5910000000001 1403.4511999999995 1304.6953 L 1387.6483999999996 1328.7012000000002 L 1458.9061999999997 1398.9238000000003 L 1408.8202999999996 1449.2031000000002 L 1337.5546999999997 1378.9375000000002 L 1313.8651999999997 1394.6758000000002 C 1277.5899999999997 1418.3823000000002 1238.2405999999996 1434.7985 1198.5409999999997 1442.8867000000002 L 1170.3964999999996 1448.5078000000003 L 1170.3964999999996 1550.7227000000003 C 1151.1554999999996 1550.7697000000003 1130.1655999999996 1550.7397000000003 1099.0272999999995 1550.6957000000002 L 1098.9822999999994 1449.2465000000002 L 1070.7107999999994 1443.7250000000001 C 1029.3806999999995 1435.6542000000002 989.8875999999993 1419.6875000000002 954.7635699999994 1396.6586000000002 L 931.0096699999993 1381.0844000000002 L 859.4686499999993 1452.2953000000002 L 808.8436499999993 1402.5375000000001 L 880.4842799999993 1331.1762 L 864.1366199999993 1307.1723000000002 C 840.3497899999993 1271.3781000000001 824.6137199999993 1232.5600000000002 815.6991199999993 1192.6762 L 809.8495099999993 1164.7504000000001 L 710.2850599999994 1165.1059 L 710.2850599999994 1094.4457 L 809.3534199999993 1094.2641 L 814.9139599999993 1066.0961000000002 C 823.0235399999993 1025.0112000000001 839.0841299999993 985.8442300000002 862.1580999999993 950.8011800000002 L 877.9432599999993 926.8265700000002 L 808.3377899999994 858.0648500000002 L 858.4315399999994 807.6800900000002 L 928.1639599999994 876.5726700000001 L 951.8944299999994 860.7386800000002 C 988.2042899999993 836.9689600000002 1026.7352999999994 821.1972900000002 1067.3748999999993 812.4242300000002 L 1095.3357999999994 806.6195400000001 L 1095.0838999999994 709.8324300000002 Z M 0 0 M 1132.2499999999998 967.03516 C 1045.6030999999998 967.03516 974.6113299999997 1038.0288 974.6113299999997 1124.6758 C 974.6113299999997 1211.3228 1045.6030999999998 1282.3125 1132.2499999999998 1282.3125 C 1218.8968999999997 1282.3125 1289.8886999999997 1211.3228 1289.8886999999997 1124.6758 C 1289.8886999999997 1038.0288 1218.8968999999997 967.03516 1132.2499999999998 967.03516 Z M 0 0 M 1132.2499999999998 1037.0352 C 1181.0661999999998 1037.0352 1219.8886999999997 1075.8597 1219.8886999999997 1124.6758 C 1219.8886999999997 1173.4919 1181.0661999999998 1212.3125 1132.2499999999998 1212.3125 C 1083.4337999999998 1212.3125 1044.6132999999998 1173.4919 1044.6132999999998 1124.6758 C 1044.6132999999998 1075.8597 1083.4337999999998 1037.0352 1132.2499999999998 1037.0352 Z"/></g></g></g><g transform="matrix(1,0,0,1,36.42578125,36.00000762939453)"><text fill="#000000" stroke="none" font-family="Open Sans" font-size="12pt" font-style="normal" font-weight="normal" text-decoration="normal" x="40.57421875" y="12" text-anchor="middle" dominant-baseline="alphabetic">Notificar a </text><text fill="#000000" stroke="none" font-family="Open Sans" font-size="12pt" font-style="normal" font-weight="normal" text-decoration="normal" x="40.57421875" y="27" text-anchor="middle" dominant-baseline="alphabetic">     Fiscal     </text></g></g><g id="_091CD4FA-AE0A-4782-A450-62BB4DCBD224" bpmn2nodeid="_091CD4FA-AE0A-4782-A450-62BB4DCBD224" transform="matrix(1,0,0,1,335,188.6666717529297)"><g><path fill="none" stroke="none"/></g><g transform="matrix(1,0,0,1,0,0)"><path fill="#ffffff" stroke="none" id="_091CD4FA-AE0A-4782-A450-62BB4DCBD224?shapeType=BACKGROUND" paint-order="stroke fill markers" d=" M 2 0 L 152 0 L 152 0 A 2 2 0 0 1 154 2 L 154 99.99998474121094 L 154 99.99998474121094 A 2 2 0 0 1 152 101.99998474121094 L 2 101.99998474121094 L 2 101.99998474121094 A 2 2 0 0 1 0 99.99998474121094 L 0 2 L 0 2.0000000000000004 A 2 2 0 0 1 1.9999999999999996 0 Z"/></g><g transform="matrix(1,0,0,1,0,0)"><path fill="none" stroke="rgb(0,136,206)" id="_091CD4FA-AE0A-4782-A450-62BB4DCBD224?shapeType=BORDER&amp;renderType=STROKE" paint-order="fill stroke markers" d=" M 2 0 L 152 0 L 152 0 A 2 2 0 0 1 154 2 L 154 99.99998474121094 L 154 99.99998474121094 A 2 2 0 0 1 152 101.99998474121094 L 2 101.99998474121094 L 2 101.99998474121094 A 2 2 0 0 1 0 99.99998474121094 L 0 2 L 0 2.0000000000000004 A 2 2 0 0 1 1.9999999999999996 0 Z" stroke-miterlimit="10" stroke-width="1.5" stroke-dasharray=""/></g><g><g transform="matrix(0.06,0,0,0.06,9.4,9.4)"><g transform="matrix(1,0,0,1,0,0)"><path fill="#393f44" stroke="none" id="_091CD4FA-AE0A-4782-A450-62BB4DCBD224_task__uJIY__Ncj7" paint-order="stroke fill markers" d=" M 0 0 M 128 344 L 128 296 C 128 293.7 127.2 291.8 125.8 290.2 C 124.39999999999999 288.59999999999997 122.39999999999999 288 120 288 L 40 288 C 37.7 288 35.8 288.8 34.2 290.2 C 32.60000000000001 291.59999999999997 32 293.7 32 296 L 32 344 C 32 346.3 32.8 348.2 34.2 349.8 C 35.60000000000001 351.40000000000003 37.6 352 40 352 L 120 352 C 122.3 352 124.2 351.2 125.8 349.8 C 127.39999999999999 348.40000000000003 128 346.3 128 344 Z M 0 0 M 128 248 L 128 200 C 128 197.7 127.2 195.8 125.8 194.2 C 124.39999999999999 192.59999999999997 122.39999999999999 192 120 192 L 40 192 C 37.7 192 35.8 192.8 34.2 194.2 C 32.60000000000001 195.59999999999997 32 197.7 32 200 L 32 248 C 32 250.3 32.8 252.2 34.2 253.8 C 35.60000000000001 255.40000000000003 37.6 256 40 256 L 120 256 C 122.3 256 124.2 255.2 125.8 253.8 C 127.39999999999999 252.40000000000003 128 250.3 128 248 Z M 0 0 M 376 352 C 378.3 352 380.2 351.2 381.8 349.8 C 383.40000000000003 348.40000000000003 384 346.40000000000003 384 344 L 384 296 C 384 293.7 383.2 291.8 381.8 290.2 C 380.40000000000003 288.59999999999997 378.40000000000003 288 376 288 L 168 288 C 165.7 288 163.8 288.8 162.2 290.2 C 160.59999999999997 291.59999999999997 160 293.59999999999997 160 296 L 160 344 C 160 346.3 160.8 348.2 162.2 349.8 C 163.59999999999997 351.40000000000003 165.6 352 168 352 L 376 352 Z M 0 0 M 128 152 L 128 104 C 128 101.7 127.2 99.8 125.8 98.2 C 124.39999999999999 96.60000000000001 122.3 96 120 96 L 40 96 C 37.7 96 35.8 96.8 34.2 98.2 C 32.60000000000001 99.60000000000001 32 101.7 32 104 L 32 152 C 32 154.3 32.8 156.2 34.2 157.8 C 35.60000000000001 159.40000000000003 37.6 160 40 160 L 120 160 C 122.3 160 124.2 159.2 125.8 157.8 C 127.39999999999999 156.40000000000003 128 154.3 128 152 Z M 0 0 M 376 256 C 378.3 256 380.2 255.2 381.8 253.8 C 383.40000000000003 252.40000000000003 384 250.4 384 248 L 384 200 C 384 197.7 383.2 195.8 381.8 194.2 C 380.40000000000003 192.59999999999997 378.40000000000003 192 376 192 L 168 192 C 165.7 192 163.8 192.8 162.2 194.2 C 160.59999999999997 195.59999999999997 160 197.6 160 200 L 160 248 C 160 250.3 160.8 252.2 162.2 253.8 C 163.59999999999997 255.40000000000003 165.6 256 168 256 L 376 256 Z M 0 0 M 376 160 C 378.3 160 380.2 159.2 381.8 157.8 C 383.40000000000003 156.40000000000003 384 154.4 384 152 L 384 104 C 384 101.7 383.2 99.8 381.8 98.2 C 380.40000000000003 96.60000000000001 378.3 96 376 96 L 168 96 C 165.7 96 163.8 96.8 162.2 98.2 C 160.59999999999997 99.60000000000001 160 101.60000000000001 160 104 L 160 152 C 160 154.3 160.8 156.2 162.2 157.8 C 163.59999999999997 159.40000000000003 165.6 160 168 160 L 376 160 Z M 0 0 M 416 72 L 416 344 C 416 355 412.1 364.4 404.2 372.2 C 396.29999999999995 380 387 384 376 384 L 40 384 C 29 384 19.6 380.1 11.8 372.2 C 4 364.29999999999995 0 355 0 344 L 0 72 C 0 61 3.9 51.6 11.8 43.8 C 19.700000000000003 35.99999999999999 29 32 40 32 L 376 32 C 387 32 396.4 35.9 404.2 43.8 C 412 51.699999999999996 416 61 416 72 Z"/></g></g></g><g transform="matrix(1,0,0,1,35,28.49999237060547)"><text fill="#000000" stroke="none" font-family="Open Sans" font-size="12pt" font-style="normal" font-weight="normal" text-decoration="normal" x="52.8828125" y="12" text-anchor="middle" dominant-baseline="alphabetic">  Evaluar RN    </text><text fill="#000000" stroke="none" font-family="Open Sans" font-size="12pt" font-style="normal" font-weight="normal" text-decoration="normal" x="52.8828125" y="27" text-anchor="middle" dominant-baseline="alphabetic">Notificación a </text><text fill="#000000" stroke="none" font-family="Open Sans" font-size="12pt" font-style="normal" font-weight="normal" text-decoration="normal" x="52.8828125" y="42" text-anchor="middle" dominant-baseline="alphabetic">        Fiscal        </text></g></g></g><g id="_E5E6F44A-4E1E-4FE8-AE5B-72567C84D291" bpmn2nodeid="_E5E6F44A-4E1E-4FE8-AE5B-72567C84D291"><g><path fill="none" stroke="#000000" paint-order="fill stroke markers" d=" M 161.66666412353516 271.8828442907244 L 198.33345954758053 271.7294255612684" stroke-miterlimit="10" stroke-dasharray=""/></g><g transform="matrix(1,0,0,1,161.66666412353516,271.8828442907244)"/><g transform="matrix(0.004184095848882003,0.9999912466326529,-0.9999912466326529,0.004184095848882003,213.3124077678259,266.66670789037187)"><path fill="#000000" stroke="#000000" paint-order="fill stroke markers" d=" M 10 15 L 0 15 L 5 0 Z" stroke-miterlimit="10" stroke-dasharray=""/></g><g transform="matrix(1,0,0,1,161.70850508202398,261.77484174080325)"/></g><g id="_2E1A71EF-6E6C-4AB2-AF3C-635D78806665" bpmn2nodeid="_2E1A71EF-6E6C-4AB2-AF3C-635D78806665"><g><path fill="none" stroke="#000000" paint-order="fill stroke markers" d=" M 668.6901225105661 243.6666717529297 L 668.768798828125 149.6666717529297 L 993 149.6666717529297 L 993 229" stroke-miterlimit="10" stroke-dasharray=""/></g><g transform="matrix(1,0,0,1,668.6901225105661,243.6666717529297)"/><g transform="matrix(-1,1.2246467991473532e-16,-1.2246467991473532e-16,-1,998,244)"><path fill="#000000" stroke="#000000" paint-order="fill stroke markers" d=" M 10 15 L 0 15 L 5 0 Z" stroke-miterlimit="10" stroke-dasharray=""/></g><g transform="matrix(1,0,0,1,678.6901190078727,185.65830193484447)"><text fill="#000000" stroke="none" font-family="Open Sans" font-size="10pt" font-style="normal" font-weight="normal" text-decoration="normal" x="0" y="8.8" text-anchor="start" dominant-baseline="alphabetic">No                      </text></g></g><g id="_DEC6567A-8C66-40CB-8219-FF261495D05C" bpmn2nodeid="_DEC6567A-8C66-40CB-8219-FF261495D05C"><g><path fill="none" stroke="#000000" paint-order="fill stroke markers" d=" M 1021 272.11381940143866 L 1060.000123928848 272.2723540714963" stroke-miterlimit="10" stroke-dasharray=""/></g><g transform="matrix(1,0,0,1,1021,272.11381940143866)"/><g transform="matrix(-0.004064945038267823,0.9999917380767882,-0.9999917380767882,-0.004064945038267823,1075.0203247251914,267.33336955668636)"><path fill="#000000" stroke="#000000" paint-order="fill stroke markers" d=" M 10 15 L 0 15 L 5 0 Z" stroke-miterlimit="10" stroke-dasharray=""/></g><g transform="matrix(1,0,0,1,1021.0406494503827,262.22365644348656)"/></g><g id="_A9A5248E-E430-4E42-B853-690A97BEA4D2" bpmn2nodeid="_A9A5248E-E430-4E42-B853-690A97BEA4D2"><g><path fill="none" stroke="#000000" paint-order="fill stroke markers" d=" M 1131 272.24949722155947 L 1199.3334412516924 272.0449092766732" stroke-miterlimit="10" stroke-dasharray=""/></g><g transform="matrix(1,0,0,1,1131,272.24949722155947)"/><g transform="matrix(0.002993951778212979,0.9999955181163313,-0.9999955181163313,0.002993951778212979,1214.3184042645464,267.00002240941836)"><path fill="#000000" stroke="#000000" paint-order="fill stroke markers" d=" M 10 15 L 0 15 L 5 0 Z" stroke-miterlimit="10" stroke-dasharray=""/></g><g transform="matrix(1,0,0,1,1131.0299395177822,251.12479342961646)"><text fill="#000000" stroke="none" font-family="Open Sans" font-size="10pt" font-style="normal" font-weight="normal" text-decoration="normal" x="0" y="8.8" text-anchor="start" dominant-baseline="alphabetic">SI                     </text></g></g><g id="_A894E5AF-23BE-456E-BA5F-5A84D4B44FF1" bpmn2nodeid="_A894E5AF-23BE-456E-BA5F-5A84D4B44FF1"><g><path fill="none" stroke="#000000" paint-order="fill stroke markers" d=" M 1103.004608898383 300.3333282470703 L 1103.0157470703125 368 L 1199 368" stroke-miterlimit="10" stroke-dasharray=""/></g><g transform="matrix(1,0,0,1,1103.004608898383,300.3333282470703)"/><g transform="matrix(6.123233995736766e-17,1,-1,6.123233995736766e-17,1214,363)"><path fill="#000000" stroke="#000000" paint-order="fill stroke markers" d=" M 10 15 L 0 15 L 5 0 Z" stroke-miterlimit="10" stroke-dasharray=""/></g><g transform="matrix(1,0,0,1,1113.0046087629114,323.16501808842065)"><text fill="#000000" stroke="none" font-family="Open Sans" font-size="10pt" font-style="normal" font-weight="normal" text-decoration="normal" x="0" y="8.8" text-anchor="start" dominant-baseline="alphabetic">No              </text></g></g><g transform="matrix(1,0,0,1,65,32)"/><g transform="matrix(1,0,0,1,1214.3333740234375,244)"/><g transform="matrix(1,0,0,1,105.66666412353516,244)"/><g transform="matrix(1,0,0,1,1214,340)"/><g transform="matrix(1,0,0,1,965,244)"/><g transform="matrix(1,0,0,1,213.3333282470703,220.6666717529297)"/><g transform="matrix(1,0,0,1,1075,244.3333282470703)"/><g transform="matrix(1,0,0,1,640.6666870117188,243.6666717529297)"/><g id="_3475FD95-40DB-477E-8F96-F26F90CDA7CD" bpmn2nodeid="_3475FD95-40DB-477E-8F96-F26F90CDA7CD"><g><path fill="none" stroke="#000000" paint-order="fill stroke markers" d=" M 696.6666870117188 271.82852087505523 L 769.0002505849674 272.24663243807464" stroke-miterlimit="10" stroke-dasharray=""/></g><g transform="matrix(1,0,0,1,696.6666870117188,271.82852087505523)"/><g transform="matrix(-0.005780229226013347,0.9999832943355078,-0.9999832943355078,-0.005780229226013347,784.02890114613,267.3334194047873)"><path fill="#000000" stroke="#000000" paint-order="fill stroke markers" d=" M 10 15 L 0 15 L 5 0 Z" stroke-miterlimit="10" stroke-dasharray=""/></g><g transform="matrix(1,0,0,1,696.7244893039789,251.08109543240496)"><text fill="#000000" stroke="none" font-family="Open Sans" font-size="10pt" font-style="normal" font-weight="normal" text-decoration="normal" x="0" y="8.8" text-anchor="start" dominant-baseline="alphabetic">Si                      </text></g></g><g id="_E7480AFA-26BC-41F6-BFA0-243393D0ACDD" bpmn2nodeid="_E7480AFA-26BC-41F6-BFA0-243393D0ACDD"><g><path fill="none" stroke="#000000" paint-order="fill stroke markers" d=" M 938 272.08653912177454 L 950.0000770469331 272.04807704292756" stroke-miterlimit="10" stroke-dasharray=""/></g><g transform="matrix(1,0,0,1,938,272.08653912177454)"/><g transform="matrix(0.0032051361951707037,0.9999948635377935,-0.9999948635377935,0.0032051361951707037,964.9839743190241,267.00002568231105)"><path fill="#000000" stroke="#000000" paint-order="fill stroke markers" d=" M 10 15 L 0 15 L 5 0 Z" stroke-miterlimit="10" stroke-dasharray=""/></g><g transform="matrix(1,0,0,1,938.0320513619517,262.0433209255093)"/></g><g transform="matrix(1,0,0,1,784,221.3333282470703)"/><g id="_651AEF04-BD3A-46CF-9E61-0F4513FE75D1" bpmn2nodeid="_651AEF04-BD3A-46CF-9E61-0F4513FE75D1"><g><path fill="none" stroke="#000000" paint-order="fill stroke markers" d=" M 367.3333435058594 271.66666412353516 L 385 271.66666412353516" stroke-miterlimit="10" stroke-dasharray=""/></g><g transform="matrix(1,0,0,1,367.3333435058594,271.66666412353516)"/><g transform="matrix(6.123233995736766e-17,1,-1,6.123233995736766e-17,400,266.66666412353516)"><path fill="#000000" stroke="#000000" paint-order="fill stroke markers" d=" M 10 15 L 0 15 L 5 0 Z" stroke-miterlimit="10" stroke-dasharray=""/></g><g transform="matrix(1,0,0,1,367.3333435058594,261.66666412353516)"/></g><g id="_E0A9EA68-1158-4BCE-8A28-3358E52E21DB" bpmn2nodeid="_E0A9EA68-1158-4BCE-8A28-3358E52E21DB"><g><path fill="none" stroke="#000000" paint-order="fill stroke markers" d=" M 554 271.66727190666893 L 625.6666870119242 271.66689681054197" stroke-miterlimit="10" stroke-dasharray=""/></g><g transform="matrix(1,0,0,1,554,271.66727190666893)"/><g transform="matrix(0.0000052338979610695775,0.9999999999863032,-0.9999999999863032,0.0000052338979610695775,640.6666608422289,266.66681830214105)"><path fill="#000000" stroke="#000000" paint-order="fill stroke markers" d=" M 10 15 L 0 15 L 5 0 Z" stroke-miterlimit="10" stroke-dasharray=""/></g><g transform="matrix(1,0,0,1,554.0000523389796,261.66704510450774)"/></g><g transform="matrix(1,0,0,1,400,220.6666717529297)"/></g></g></svg>